ISO-10303-21;
HEADER;
/* Generated by software containing ST-Developer
 * from STEP Tools, Inc. (www.steptools.com) 
 */

FILE_DESCRIPTION(
/* description */ (''),
/* implementation_level */ '2;1');

FILE_NAME(
/* name */ 'counter 2.step',
/* time_stamp */ '2026-09-09T16:12:35+05:30',
/* author */ (''),
/* organization */ (''),
/* preprocessor_version */ 'ST-DEVELOPER v20.2',
/* originating_system */ 'Autodesk Translation Framework v15.15.0.0',
/* authorisation */ '');

FILE_SCHEMA (('AUTOMOTIVE_DESIGN { 1 0 10303 214 3 1 1 }'));
ENDSEC;

DATA;
#10=MECHANICAL_DESIGN_GEOMETRIC_PRESENTATION_REPRESENTATION('',(#13),#628);
#11=SHAPE_REPRESENTATION_RELATIONSHIP('SRR','None',#635,#12);
#12=ADVANCED_BREP_SHAPE_REPRESENTATION('',(#14),#627);
#13=STYLED_ITEM('',(#644),#14);
#14=MANIFOLD_SOLID_BREP('Body1',#388);
#15=FACE_BOUND('',#58,.T.);
#16=FACE_BOUND('',#61,.T.);
#17=FACE_BOUND('',#62,.T.);
#18=FACE_BOUND('',#65,.T.);
#19=FACE_BOUND('',#66,.T.);
#20=FACE_BOUND('',#67,.T.);
#21=CYLINDRICAL_SURFACE('',#416,18.);
#22=CIRCLE('',#407,18.);
#23=CIRCLE('',#410,18.);
#24=CIRCLE('',#417,18.);
#25=CIRCLE('',#418,18.);
#26=FACE_OUTER_BOUND('',#45,.T.);
#27=FACE_OUTER_BOUND('',#46,.T.);
#28=FACE_OUTER_BOUND('',#47,.T.);
#29=FACE_OUTER_BOUND('',#48,.T.);
#30=FACE_OUTER_BOUND('',#49,.T.);
#31=FACE_OUTER_BOUND('',#50,.T.);
#32=FACE_OUTER_BOUND('',#51,.T.);
#33=FACE_OUTER_BOUND('',#52,.T.);
#34=FACE_OUTER_BOUND('',#53,.T.);
#35=FACE_OUTER_BOUND('',#54,.T.);
#36=FACE_OUTER_BOUND('',#55,.T.);
#37=FACE_OUTER_BOUND('',#56,.T.);
#38=FACE_OUTER_BOUND('',#57,.T.);
#39=FACE_OUTER_BOUND('',#59,.T.);
#40=FACE_OUTER_BOUND('',#60,.T.);
#41=FACE_OUTER_BOUND('',#63,.T.);
#42=FACE_OUTER_BOUND('',#64,.T.);
#43=FACE_OUTER_BOUND('',#68,.T.);
#44=FACE_OUTER_BOUND('',#69,.T.);
#45=EDGE_LOOP('',(#249,#250,#251,#252));
#46=EDGE_LOOP('',(#253,#254,#255,#256));
#47=EDGE_LOOP('',(#257,#258,#259,#260));
#48=EDGE_LOOP('',(#261,#262,#263,#264));
#49=EDGE_LOOP('',(#265,#266,#267,#268));
#50=EDGE_LOOP('',(#269,#270,#271,#272));
#51=EDGE_LOOP('',(#273,#274,#275,#276));
#52=EDGE_LOOP('',(#277,#278,#279,#280));
#53=EDGE_LOOP('',(#281,#282,#283,#284));
#54=EDGE_LOOP('',(#285,#286,#287,#288));
#55=EDGE_LOOP('',(#289,#290,#291,#292));
#56=EDGE_LOOP('',(#293,#294,#295,#296));
#57=EDGE_LOOP('',(#297,#298,#299,#300));
#58=EDGE_LOOP('',(#301,#302,#303,#304));
#59=EDGE_LOOP('',(#305,#306,#307,#308,#309));
#60=EDGE_LOOP('',(#310,#311,#312,#313));
#61=EDGE_LOOP('',(#314,#315,#316,#317));
#62=EDGE_LOOP('',(#318,#319,#320,#321));
#63=EDGE_LOOP('',(#322,#323,#324,#325,#326));
#64=EDGE_LOOP('',(#327,#328,#329,#330));
#65=EDGE_LOOP('',(#331,#332,#333,#334));
#66=EDGE_LOOP('',(#335,#336,#337,#338));
#67=EDGE_LOOP('',(#339,#340,#341,#342));
#68=EDGE_LOOP('',(#343,#344,#345,#346));
#69=EDGE_LOOP('',(#347,#348,#349,#350));
#70=LINE('',#524,#117);
#71=LINE('',#526,#118);
#72=LINE('',#528,#119);
#73=LINE('',#529,#120);
#74=LINE('',#532,#121);
#75=LINE('',#534,#122);
#76=LINE('',#535,#123);
#77=LINE('',#538,#124);
#78=LINE('',#540,#125);
#79=LINE('',#541,#126);
#80=LINE('',#543,#127);
#81=LINE('',#544,#128);
#82=LINE('',#550,#129);
#83=LINE('',#552,#130);
#84=LINE('',#553,#131);
#85=LINE('',#556,#132);
#86=LINE('',#558,#133);
#87=LINE('',#559,#134);
#88=LINE('',#564,#135);
#89=LINE('',#565,#136);
#90=LINE('',#567,#137);
#91=LINE('',#568,#138);
#92=LINE('',#572,#139);
#93=LINE('',#574,#140);
#94=LINE('',#576,#141);
#95=LINE('',#577,#142);
#96=LINE('',#580,#143);
#97=LINE('',#582,#144);
#98=LINE('',#583,#145);
#99=LINE('',#586,#146);
#100=LINE('',#588,#147);
#101=LINE('',#589,#148);
#102=LINE('',#591,#149);
#103=LINE('',#592,#150);
#104=LINE('',#598,#151);
#105=LINE('',#601,#152);
#106=LINE('',#604,#153);
#107=LINE('',#606,#154);
#108=LINE('',#608,#155);
#109=LINE('',#609,#156);
#110=LINE('',#612,#157);
#111=LINE('',#613,#158);
#112=LINE('',#616,#159);
#113=LINE('',#618,#160);
#114=LINE('',#619,#161);
#115=LINE('',#621,#162);
#116=LINE('',#622,#163);
#117=VECTOR('',#429,10.);
#118=VECTOR('',#430,10.);
#119=VECTOR('',#431,10.);
#120=VECTOR('',#432,10.);
#121=VECTOR('',#435,10.);
#122=VECTOR('',#436,10.);
#123=VECTOR('',#437,10.);
#124=VECTOR('',#440,10.);
#125=VECTOR('',#441,10.);
#126=VECTOR('',#442,10.);
#127=VECTOR('',#445,10.);
#128=VECTOR('',#446,10.);
#129=VECTOR('',#451,10.);
#130=VECTOR('',#452,10.);
#131=VECTOR('',#453,10.);
#132=VECTOR('',#456,10.);
#133=VECTOR('',#457,10.);
#134=VECTOR('',#458,10.);
#135=VECTOR('',#463,10.);
#136=VECTOR('',#464,10.);
#137=VECTOR('',#467,10.);
#138=VECTOR('',#468,10.);
#139=VECTOR('',#471,10.);
#140=VECTOR('',#472,10.);
#141=VECTOR('',#473,10.);
#142=VECTOR('',#474,10.);
#143=VECTOR('',#477,10.);
#144=VECTOR('',#478,10.);
#145=VECTOR('',#479,10.);
#146=VECTOR('',#482,10.);
#147=VECTOR('',#483,10.);
#148=VECTOR('',#484,10.);
#149=VECTOR('',#487,10.);
#150=VECTOR('',#488,10.);
#151=VECTOR('',#493,10.);
#152=VECTOR('',#496,10.);
#153=VECTOR('',#499,10.);
#154=VECTOR('',#500,10.);
#155=VECTOR('',#501,10.);
#156=VECTOR('',#502,10.);
#157=VECTOR('',#505,10.);
#158=VECTOR('',#506,10.);
#159=VECTOR('',#509,10.);
#160=VECTOR('',#510,10.);
#161=VECTOR('',#511,10.);
#162=VECTOR('',#514,10.);
#163=VECTOR('',#515,10.);
#164=VERTEX_POINT('',#522);
#165=VERTEX_POINT('',#523);
#166=VERTEX_POINT('',#525);
#167=VERTEX_POINT('',#527);
#168=VERTEX_POINT('',#531);
#169=VERTEX_POINT('',#533);
#170=VERTEX_POINT('',#537);
#171=VERTEX_POINT('',#539);
#172=VERTEX_POINT('',#546);
#173=VERTEX_POINT('',#547);
#174=VERTEX_POINT('',#549);
#175=VERTEX_POINT('',#551);
#176=VERTEX_POINT('',#555);
#177=VERTEX_POINT('',#557);
#178=VERTEX_POINT('',#561);
#179=VERTEX_POINT('',#563);
#180=VERTEX_POINT('',#570);
#181=VERTEX_POINT('',#571);
#182=VERTEX_POINT('',#573);
#183=VERTEX_POINT('',#575);
#184=VERTEX_POINT('',#579);
#185=VERTEX_POINT('',#581);
#186=VERTEX_POINT('',#585);
#187=VERTEX_POINT('',#587);
#188=VERTEX_POINT('',#594);
#189=VERTEX_POINT('',#595);
#190=VERTEX_POINT('',#597);
#191=VERTEX_POINT('',#599);
#192=VERTEX_POINT('',#603);
#193=VERTEX_POINT('',#605);
#194=VERTEX_POINT('',#607);
#195=VERTEX_POINT('',#611);
#196=VERTEX_POINT('',#615);
#197=VERTEX_POINT('',#617);
#198=EDGE_CURVE('',#164,#165,#70,.T.);
#199=EDGE_CURVE('',#164,#166,#71,.T.);
#200=EDGE_CURVE('',#167,#166,#72,.T.);
#201=EDGE_CURVE('',#165,#167,#73,.T.);
#202=EDGE_CURVE('',#168,#164,#74,.T.);
#203=EDGE_CURVE('',#168,#169,#75,.T.);
#204=EDGE_CURVE('',#166,#169,#76,.T.);
#205=EDGE_CURVE('',#170,#168,#77,.T.);
#206=EDGE_CURVE('',#170,#171,#78,.T.);
#207=EDGE_CURVE('',#169,#171,#79,.T.);
#208=EDGE_CURVE('',#165,#170,#80,.T.);
#209=EDGE_CURVE('',#171,#167,#81,.T.);
#210=EDGE_CURVE('',#172,#173,#22,.T.);
#211=EDGE_CURVE('',#172,#174,#82,.T.);
#212=EDGE_CURVE('',#175,#174,#83,.T.);
#213=EDGE_CURVE('',#173,#175,#84,.T.);
#214=EDGE_CURVE('',#173,#176,#85,.T.);
#215=EDGE_CURVE('',#177,#175,#86,.T.);
#216=EDGE_CURVE('',#176,#177,#87,.T.);
#217=EDGE_CURVE('',#176,#178,#23,.T.);
#218=EDGE_CURVE('',#179,#177,#88,.T.);
#219=EDGE_CURVE('',#178,#179,#89,.T.);
#220=EDGE_CURVE('',#178,#172,#90,.T.);
#221=EDGE_CURVE('',#174,#179,#91,.T.);
#222=EDGE_CURVE('',#180,#181,#92,.T.);
#223=EDGE_CURVE('',#180,#182,#93,.T.);
#224=EDGE_CURVE('',#183,#182,#94,.T.);
#225=EDGE_CURVE('',#181,#183,#95,.T.);
#226=EDGE_CURVE('',#184,#180,#96,.T.);
#227=EDGE_CURVE('',#184,#185,#97,.T.);
#228=EDGE_CURVE('',#182,#185,#98,.T.);
#229=EDGE_CURVE('',#186,#184,#99,.T.);
#230=EDGE_CURVE('',#186,#187,#100,.T.);
#231=EDGE_CURVE('',#185,#187,#101,.T.);
#232=EDGE_CURVE('',#181,#186,#102,.T.);
#233=EDGE_CURVE('',#187,#183,#103,.T.);
#234=EDGE_CURVE('',#188,#189,#24,.T.);
#235=EDGE_CURVE('',#189,#190,#104,.T.);
#236=EDGE_CURVE('',#190,#191,#25,.T.);
#237=EDGE_CURVE('',#191,#188,#105,.T.);
#238=EDGE_CURVE('',#192,#188,#106,.T.);
#239=EDGE_CURVE('',#192,#193,#107,.T.);
#240=EDGE_CURVE('',#193,#194,#108,.T.);
#241=EDGE_CURVE('',#189,#194,#109,.T.);
#242=EDGE_CURVE('',#195,#191,#110,.T.);
#243=EDGE_CURVE('',#195,#192,#111,.T.);
#244=EDGE_CURVE('',#196,#190,#112,.T.);
#245=EDGE_CURVE('',#197,#196,#113,.T.);
#246=EDGE_CURVE('',#197,#195,#114,.T.);
#247=EDGE_CURVE('',#193,#197,#115,.T.);
#248=EDGE_CURVE('',#194,#196,#116,.T.);
#249=ORIENTED_EDGE('',*,*,#198,.F.);
#250=ORIENTED_EDGE('',*,*,#199,.T.);
#251=ORIENTED_EDGE('',*,*,#200,.F.);
#252=ORIENTED_EDGE('',*,*,#201,.F.);
#253=ORIENTED_EDGE('',*,*,#202,.F.);
#254=ORIENTED_EDGE('',*,*,#203,.T.);
#255=ORIENTED_EDGE('',*,*,#204,.F.);
#256=ORIENTED_EDGE('',*,*,#199,.F.);
#257=ORIENTED_EDGE('',*,*,#205,.F.);
#258=ORIENTED_EDGE('',*,*,#206,.T.);
#259=ORIENTED_EDGE('',*,*,#207,.F.);
#260=ORIENTED_EDGE('',*,*,#203,.F.);
#261=ORIENTED_EDGE('',*,*,#208,.F.);
#262=ORIENTED_EDGE('',*,*,#201,.T.);
#263=ORIENTED_EDGE('',*,*,#209,.F.);
#264=ORIENTED_EDGE('',*,*,#206,.F.);
#265=ORIENTED_EDGE('',*,*,#210,.F.);
#266=ORIENTED_EDGE('',*,*,#211,.T.);
#267=ORIENTED_EDGE('',*,*,#212,.F.);
#268=ORIENTED_EDGE('',*,*,#213,.F.);
#269=ORIENTED_EDGE('',*,*,#214,.F.);
#270=ORIENTED_EDGE('',*,*,#213,.T.);
#271=ORIENTED_EDGE('',*,*,#215,.F.);
#272=ORIENTED_EDGE('',*,*,#216,.F.);
#273=ORIENTED_EDGE('',*,*,#217,.F.);
#274=ORIENTED_EDGE('',*,*,#216,.T.);
#275=ORIENTED_EDGE('',*,*,#218,.F.);
#276=ORIENTED_EDGE('',*,*,#219,.F.);
#277=ORIENTED_EDGE('',*,*,#220,.F.);
#278=ORIENTED_EDGE('',*,*,#219,.T.);
#279=ORIENTED_EDGE('',*,*,#221,.F.);
#280=ORIENTED_EDGE('',*,*,#211,.F.);
#281=ORIENTED_EDGE('',*,*,#222,.F.);
#282=ORIENTED_EDGE('',*,*,#223,.T.);
#283=ORIENTED_EDGE('',*,*,#224,.F.);
#284=ORIENTED_EDGE('',*,*,#225,.F.);
#285=ORIENTED_EDGE('',*,*,#226,.F.);
#286=ORIENTED_EDGE('',*,*,#227,.T.);
#287=ORIENTED_EDGE('',*,*,#228,.F.);
#288=ORIENTED_EDGE('',*,*,#223,.F.);
#289=ORIENTED_EDGE('',*,*,#229,.F.);
#290=ORIENTED_EDGE('',*,*,#230,.T.);
#291=ORIENTED_EDGE('',*,*,#231,.F.);
#292=ORIENTED_EDGE('',*,*,#227,.F.);
#293=ORIENTED_EDGE('',*,*,#232,.F.);
#294=ORIENTED_EDGE('',*,*,#225,.T.);
#295=ORIENTED_EDGE('',*,*,#233,.F.);
#296=ORIENTED_EDGE('',*,*,#230,.F.);
#297=ORIENTED_EDGE('',*,*,#234,.T.);
#298=ORIENTED_EDGE('',*,*,#235,.T.);
#299=ORIENTED_EDGE('',*,*,#236,.T.);
#300=ORIENTED_EDGE('',*,*,#237,.T.);
#301=ORIENTED_EDGE('',*,*,#217,.T.);
#302=ORIENTED_EDGE('',*,*,#220,.T.);
#303=ORIENTED_EDGE('',*,*,#210,.T.);
#304=ORIENTED_EDGE('',*,*,#214,.T.);
#305=ORIENTED_EDGE('',*,*,#234,.F.);
#306=ORIENTED_EDGE('',*,*,#238,.F.);
#307=ORIENTED_EDGE('',*,*,#239,.T.);
#308=ORIENTED_EDGE('',*,*,#240,.T.);
#309=ORIENTED_EDGE('',*,*,#241,.F.);
#310=ORIENTED_EDGE('',*,*,#237,.F.);
#311=ORIENTED_EDGE('',*,*,#242,.F.);
#312=ORIENTED_EDGE('',*,*,#243,.T.);
#313=ORIENTED_EDGE('',*,*,#238,.T.);
#314=ORIENTED_EDGE('',*,*,#198,.T.);
#315=ORIENTED_EDGE('',*,*,#208,.T.);
#316=ORIENTED_EDGE('',*,*,#205,.T.);
#317=ORIENTED_EDGE('',*,*,#202,.T.);
#318=ORIENTED_EDGE('',*,*,#222,.T.);
#319=ORIENTED_EDGE('',*,*,#232,.T.);
#320=ORIENTED_EDGE('',*,*,#229,.T.);
#321=ORIENTED_EDGE('',*,*,#226,.T.);
#322=ORIENTED_EDGE('',*,*,#236,.F.);
#323=ORIENTED_EDGE('',*,*,#244,.F.);
#324=ORIENTED_EDGE('',*,*,#245,.F.);
#325=ORIENTED_EDGE('',*,*,#246,.T.);
#326=ORIENTED_EDGE('',*,*,#242,.T.);
#327=ORIENTED_EDGE('',*,*,#247,.T.);
#328=ORIENTED_EDGE('',*,*,#245,.T.);
#329=ORIENTED_EDGE('',*,*,#248,.F.);
#330=ORIENTED_EDGE('',*,*,#240,.F.);
#331=ORIENTED_EDGE('',*,*,#200,.T.);
#332=ORIENTED_EDGE('',*,*,#204,.T.);
#333=ORIENTED_EDGE('',*,*,#207,.T.);
#334=ORIENTED_EDGE('',*,*,#209,.T.);
#335=ORIENTED_EDGE('',*,*,#218,.T.);
#336=ORIENTED_EDGE('',*,*,#215,.T.);
#337=ORIENTED_EDGE('',*,*,#212,.T.);
#338=ORIENTED_EDGE('',*,*,#221,.T.);
#339=ORIENTED_EDGE('',*,*,#224,.T.);
#340=ORIENTED_EDGE('',*,*,#228,.T.);
#341=ORIENTED_EDGE('',*,*,#231,.T.);
#342=ORIENTED_EDGE('',*,*,#233,.T.);
#343=ORIENTED_EDGE('',*,*,#235,.F.);
#344=ORIENTED_EDGE('',*,*,#241,.T.);
#345=ORIENTED_EDGE('',*,*,#248,.T.);
#346=ORIENTED_EDGE('',*,*,#244,.T.);
#347=ORIENTED_EDGE('',*,*,#239,.F.);
#348=ORIENTED_EDGE('',*,*,#243,.F.);
#349=ORIENTED_EDGE('',*,*,#246,.F.);
#350=ORIENTED_EDGE('',*,*,#247,.F.);
#351=PLANE('',#402);
#352=PLANE('',#403);
#353=PLANE('',#404);
#354=PLANE('',#405);
#355=PLANE('',#406);
#356=PLANE('',#408);
#357=PLANE('',#409);
#358=PLANE('',#411);
#359=PLANE('',#412);
#360=PLANE('',#413);
#361=PLANE('',#414);
#362=PLANE('',#415);
#363=PLANE('',#419);
#364=PLANE('',#420);
#365=PLANE('',#421);
#366=PLANE('',#422);
#367=PLANE('',#423);
#368=PLANE('',#424);
#369=ADVANCED_FACE('',(#26),#351,.F.);
#370=ADVANCED_FACE('',(#27),#352,.F.);
#371=ADVANCED_FACE('',(#28),#353,.F.);
#372=ADVANCED_FACE('',(#29),#354,.F.);
#373=ADVANCED_FACE('',(#30),#355,.F.);
#374=ADVANCED_FACE('',(#31),#356,.F.);
#375=ADVANCED_FACE('',(#32),#357,.F.);
#376=ADVANCED_FACE('',(#33),#358,.F.);
#377=ADVANCED_FACE('',(#34),#359,.F.);
#378=ADVANCED_FACE('',(#35),#360,.F.);
#379=ADVANCED_FACE('',(#36),#361,.F.);
#380=ADVANCED_FACE('',(#37),#362,.F.);
#381=ADVANCED_FACE('',(#38,#15),#21,.T.);
#382=ADVANCED_FACE('',(#39),#363,.T.);
#383=ADVANCED_FACE('',(#40,#16,#17),#364,.T.);
#384=ADVANCED_FACE('',(#41),#365,.T.);
#385=ADVANCED_FACE('',(#42,#18,#19,#20),#366,.T.);
#386=ADVANCED_FACE('',(#43),#367,.T.);
#387=ADVANCED_FACE('',(#44),#368,.F.);
#388=CLOSED_SHELL('',(#369,#370,#371,#372,#373,#374,#375,#376,#377,#378,
#379,#380,#381,#382,#383,#384,#385,#386,#387));
#389=DERIVED_UNIT_ELEMENT(#391,1.);
#390=DERIVED_UNIT_ELEMENT(#630,-3.);
#391=(
MASS_UNIT()
NAMED_UNIT(*)
SI_UNIT(.KILO.,.GRAM.)
);
#392=DERIVED_UNIT((#389,#390));
#393=MEASURE_REPRESENTATION_ITEM('density measure',
POSITIVE_RATIO_MEASURE(7850.),#392);
#394=PROPERTY_DEFINITION_REPRESENTATION(#399,#396);
#395=PROPERTY_DEFINITION_REPRESENTATION(#400,#397);
#396=REPRESENTATION('material name',(#398),#627);
#397=REPRESENTATION('density',(#393),#627);
#398=DESCRIPTIVE_REPRESENTATION_ITEM('Steel','Steel');
#399=PROPERTY_DEFINITION('material property','material name',#637);
#400=PROPERTY_DEFINITION('material property','density of part',#637);
#401=AXIS2_PLACEMENT_3D('',#520,#425,#426);
#402=AXIS2_PLACEMENT_3D('',#521,#427,#428);
#403=AXIS2_PLACEMENT_3D('',#530,#433,#434);
#404=AXIS2_PLACEMENT_3D('',#536,#438,#439);
#405=AXIS2_PLACEMENT_3D('',#542,#443,#444);
#406=AXIS2_PLACEMENT_3D('',#545,#447,#448);
#407=AXIS2_PLACEMENT_3D('',#548,#449,#450);
#408=AXIS2_PLACEMENT_3D('',#554,#454,#455);
#409=AXIS2_PLACEMENT_3D('',#560,#459,#460);
#410=AXIS2_PLACEMENT_3D('',#562,#461,#462);
#411=AXIS2_PLACEMENT_3D('',#566,#465,#466);
#412=AXIS2_PLACEMENT_3D('',#569,#469,#470);
#413=AXIS2_PLACEMENT_3D('',#578,#475,#476);
#414=AXIS2_PLACEMENT_3D('',#584,#480,#481);
#415=AXIS2_PLACEMENT_3D('',#590,#485,#486);
#416=AXIS2_PLACEMENT_3D('',#593,#489,#490);
#417=AXIS2_PLACEMENT_3D('',#596,#491,#492);
#418=AXIS2_PLACEMENT_3D('',#600,#494,#495);
#419=AXIS2_PLACEMENT_3D('',#602,#497,#498);
#420=AXIS2_PLACEMENT_3D('',#610,#503,#504);
#421=AXIS2_PLACEMENT_3D('',#614,#507,#508);
#422=AXIS2_PLACEMENT_3D('',#620,#512,#513);
#423=AXIS2_PLACEMENT_3D('',#623,#516,#517);
#424=AXIS2_PLACEMENT_3D('',#624,#518,#519);
#425=DIRECTION('axis',(0.,0.,1.));
#426=DIRECTION('refdir',(1.,0.,0.));
#427=DIRECTION('center_axis',(-1.,0.,0.));
#428=DIRECTION('ref_axis',(0.,0.,-1.));
#429=DIRECTION('',(0.,0.,-1.));
#430=DIRECTION('',(0.,-1.,0.));
#431=DIRECTION('',(0.,0.,1.));
#432=DIRECTION('',(0.,-1.,0.));
#433=DIRECTION('center_axis',(0.,0.,1.));
#434=DIRECTION('ref_axis',(-1.,0.,0.));
#435=DIRECTION('',(-1.,0.,0.));
#436=DIRECTION('',(0.,-1.,0.));
#437=DIRECTION('',(1.,0.,0.));
#438=DIRECTION('center_axis',(1.,0.,0.));
#439=DIRECTION('ref_axis',(0.,0.,1.));
#440=DIRECTION('',(0.,0.,1.));
#441=DIRECTION('',(0.,-1.,0.));
#442=DIRECTION('',(0.,0.,-1.));
#443=DIRECTION('center_axis',(0.,0.,-1.));
#444=DIRECTION('ref_axis',(1.,0.,0.));
#445=DIRECTION('',(1.,0.,0.));
#446=DIRECTION('',(-1.,0.,0.));
#447=DIRECTION('center_axis',(1.,0.,0.));
#448=DIRECTION('ref_axis',(0.,0.,1.));
#449=DIRECTION('center_axis',(1.,0.,0.));
#450=DIRECTION('ref_axis',(0.,0.707106781186548,0.707106781186547));
#451=DIRECTION('',(0.,-1.,0.));
#452=DIRECTION('',(0.,0.,-1.));
#453=DIRECTION('',(0.,-1.,0.));
#454=DIRECTION('center_axis',(0.,0.,1.));
#455=DIRECTION('ref_axis',(-1.,0.,0.));
#456=DIRECTION('',(-1.,0.,0.));
#457=DIRECTION('',(1.,0.,0.));
#458=DIRECTION('',(0.,-1.,0.));
#459=DIRECTION('center_axis',(-1.,0.,0.));
#460=DIRECTION('ref_axis',(0.,0.,-1.));
#461=DIRECTION('center_axis',(-1.,0.,0.));
#462=DIRECTION('ref_axis',(0.,0.707106781186548,0.707106781186547));
#463=DIRECTION('',(0.,0.,1.));
#464=DIRECTION('',(0.,-1.,0.));
#465=DIRECTION('center_axis',(0.,0.,-1.));
#466=DIRECTION('ref_axis',(1.,0.,0.));
#467=DIRECTION('',(1.,0.,0.));
#468=DIRECTION('',(-1.,0.,0.));
#469=DIRECTION('center_axis',(-1.,0.,0.));
#470=DIRECTION('ref_axis',(0.,0.,-1.));
#471=DIRECTION('',(0.,0.,-1.));
#472=DIRECTION('',(0.,-1.,0.));
#473=DIRECTION('',(0.,0.,1.));
#474=DIRECTION('',(0.,-1.,0.));
#475=DIRECTION('center_axis',(0.,0.,1.));
#476=DIRECTION('ref_axis',(-1.,0.,0.));
#477=DIRECTION('',(-1.,0.,0.));
#478=DIRECTION('',(0.,-1.,0.));
#479=DIRECTION('',(1.,0.,0.));
#480=DIRECTION('center_axis',(1.,0.,0.));
#481=DIRECTION('ref_axis',(0.,0.,1.));
#482=DIRECTION('',(0.,0.,1.));
#483=DIRECTION('',(0.,-1.,0.));
#484=DIRECTION('',(0.,0.,-1.));
#485=DIRECTION('center_axis',(0.,0.,-1.));
#486=DIRECTION('ref_axis',(1.,0.,0.));
#487=DIRECTION('',(1.,0.,0.));
#488=DIRECTION('',(-1.,0.,0.));
#489=DIRECTION('center_axis',(-1.,0.,0.));
#490=DIRECTION('ref_axis',(0.,0.707106781186548,0.707106781186547));
#491=DIRECTION('center_axis',(1.,-4.93038065763132E-33,0.));
#492=DIRECTION('ref_axis',(0.,0.707106781186548,0.707106781186547));
#493=DIRECTION('',(1.,0.,0.));
#494=DIRECTION('center_axis',(-1.,0.,0.));
#495=DIRECTION('ref_axis',(0.,0.707106781186548,0.707106781186547));
#496=DIRECTION('',(-1.,0.,0.));
#497=DIRECTION('center_axis',(-1.,4.93038065763132E-33,0.));
#498=DIRECTION('ref_axis',(-4.93038065763132E-33,-1.,0.));
#499=DIRECTION('',(0.,0.,1.));
#500=DIRECTION('',(-4.93038065763132E-33,-1.,0.));
#501=DIRECTION('',(0.,0.,1.));
#502=DIRECTION('',(-4.93038065763132E-33,-1.,0.));
#503=DIRECTION('center_axis',(0.,1.,0.));
#504=DIRECTION('ref_axis',(-1.,0.,0.));
#505=DIRECTION('',(0.,0.,1.));
#506=DIRECTION('',(-1.,0.,0.));
#507=DIRECTION('center_axis',(1.,0.,0.));
#508=DIRECTION('ref_axis',(0.,1.,0.));
#509=DIRECTION('',(0.,1.,0.));
#510=DIRECTION('',(0.,0.,1.));
#511=DIRECTION('',(0.,1.,0.));
#512=DIRECTION('center_axis',(0.,-1.,0.));
#513=DIRECTION('ref_axis',(1.,0.,0.));
#514=DIRECTION('',(1.,0.,0.));
#515=DIRECTION('',(1.,0.,0.));
#516=DIRECTION('center_axis',(0.,0.,1.));
#517=DIRECTION('ref_axis',(1.,0.,0.));
#518=DIRECTION('center_axis',(0.,0.,1.));
#519=DIRECTION('ref_axis',(1.,0.,0.));
#520=CARTESIAN_POINT('',(0.,0.,0.));
#521=CARTESIAN_POINT('Origin',(3.00000004470348,25.,11.0000001639128));
#522=CARTESIAN_POINT('',(3.00000004470348,25.,11.0000001639128));
#523=CARTESIAN_POINT('',(3.00000004470348,25.,3.00000016391277));
#524=CARTESIAN_POINT('',(3.00000004470349,25.,5.50000008195639));
#525=CARTESIAN_POINT('',(3.00000004470348,0.,11.0000001639128));
#526=CARTESIAN_POINT('',(3.00000004470348,25.,11.0000001639128));
#527=CARTESIAN_POINT('',(3.00000004470348,0.,3.00000016391277));
#528=CARTESIAN_POINT('',(3.00000004470348,0.,5.50000008195639));
#529=CARTESIAN_POINT('',(3.00000004470348,25.,3.00000016391277));
#530=CARTESIAN_POINT('Origin',(37.000000551343,25.,11.0000001639128));
#531=CARTESIAN_POINT('',(37.000000551343,25.,11.0000001639128));
#532=CARTESIAN_POINT('',(38.5000002756715,25.,11.0000001639128));
#533=CARTESIAN_POINT('',(37.000000551343,0.,11.0000001639128));
#534=CARTESIAN_POINT('',(37.000000551343,25.,11.0000001639128));
#535=CARTESIAN_POINT('',(18.5000002756715,0.,11.0000001639128));
#536=CARTESIAN_POINT('Origin',(37.000000551343,25.,3.00000016391277));
#537=CARTESIAN_POINT('',(37.000000551343,25.,3.00000016391277));
#538=CARTESIAN_POINT('',(37.000000551343,25.,1.50000008195639));
#539=CARTESIAN_POINT('',(37.000000551343,0.,3.00000016391277));
#540=CARTESIAN_POINT('',(37.000000551343,25.,3.00000016391277));
#541=CARTESIAN_POINT('',(37.000000551343,0.,1.50000008195639));
#542=CARTESIAN_POINT('Origin',(3.00000004470348,25.,3.00000016391277));
#543=CARTESIAN_POINT('',(21.5000000223517,25.,3.00000016391277));
#544=CARTESIAN_POINT('',(1.50000002235174,0.,3.00000016391277));
#545=CARTESIAN_POINT('Origin',(37.000000551343,25.,29.0000004321337));
#546=CARTESIAN_POINT('',(37.000000551343,24.8885437716843,29.0000004321337));
#547=CARTESIAN_POINT('',(37.000000551343,19.4498989756059,40.0000005960464));
#548=CARTESIAN_POINT('Origin',(37.000000551343,7.,27.));
#549=CARTESIAN_POINT('',(37.000000551343,0.,29.0000004321337));
#550=CARTESIAN_POINT('',(37.000000551343,25.,29.0000004321337));
#551=CARTESIAN_POINT('',(37.000000551343,0.,40.0000005960464));
#552=CARTESIAN_POINT('',(37.000000551343,0.,14.5000002160668));
#553=CARTESIAN_POINT('',(37.000000551343,25.,40.0000005960464));
#554=CARTESIAN_POINT('Origin',(37.000000551343,25.,40.0000005960464));
#555=CARTESIAN_POINT('',(3.00000004470348,19.4498989756059,40.0000005960464));
#556=CARTESIAN_POINT('',(30.,19.4498989756059,40.0000005960464));
#557=CARTESIAN_POINT('',(3.00000004470348,0.,40.0000005960464));
#558=CARTESIAN_POINT('',(18.5000002756715,0.,40.0000005960464));
#559=CARTESIAN_POINT('',(3.00000004470348,25.,40.0000005960464));
#560=CARTESIAN_POINT('Origin',(3.00000004470348,25.,40.0000005960464));
#561=CARTESIAN_POINT('',(3.00000004470348,24.8885437716843,29.0000004321337));
#562=CARTESIAN_POINT('Origin',(3.00000004470348,7.,27.));
#563=CARTESIAN_POINT('',(3.00000004470348,0.,29.0000004321337));
#564=CARTESIAN_POINT('',(3.00000004470348,0.,20.0000002980232));
#565=CARTESIAN_POINT('',(3.00000004470348,25.,29.0000004321337));
#566=CARTESIAN_POINT('Origin',(3.00000004470348,25.,29.0000004321337));
#567=CARTESIAN_POINT('',(30.,24.8885437716843,29.0000004321337));
#568=CARTESIAN_POINT('',(1.50000002235174,0.,29.0000004321337));
#569=CARTESIAN_POINT('Origin',(3.00000004470348,25.,25.000000372529));
#570=CARTESIAN_POINT('',(3.00000004470348,25.,25.000000372529));
#571=CARTESIAN_POINT('',(3.00000004470348,25.,14.0000002086163));
#572=CARTESIAN_POINT('',(3.00000004470349,25.,12.5000001862645));
#573=CARTESIAN_POINT('',(3.00000004470348,0.,25.000000372529));
#574=CARTESIAN_POINT('',(3.00000004470348,25.,25.000000372529));
#575=CARTESIAN_POINT('',(3.00000004470348,0.,14.0000002086163));
#576=CARTESIAN_POINT('',(3.00000004470348,0.,12.5000001862645));
#577=CARTESIAN_POINT('',(3.00000004470348,25.,14.0000002086163));
#578=CARTESIAN_POINT('Origin',(37.000000551343,25.,25.000000372529));
#579=CARTESIAN_POINT('',(37.000000551343,25.,25.000000372529));
#580=CARTESIAN_POINT('',(38.5000002756715,25.,25.000000372529));
#581=CARTESIAN_POINT('',(37.000000551343,0.,25.000000372529));
#582=CARTESIAN_POINT('',(37.000000551343,25.,25.000000372529));
#583=CARTESIAN_POINT('',(18.5000002756715,0.,25.000000372529));
#584=CARTESIAN_POINT('Origin',(37.000000551343,25.,14.0000002086163));
#585=CARTESIAN_POINT('',(37.000000551343,25.,14.0000002086163));
#586=CARTESIAN_POINT('',(37.000000551343,25.,7.00000010430813));
#587=CARTESIAN_POINT('',(37.000000551343,0.,14.0000002086163));
#588=CARTESIAN_POINT('',(37.000000551343,25.,14.0000002086163));
#589=CARTESIAN_POINT('',(37.000000551343,0.,7.00000010430813));
#590=CARTESIAN_POINT('Origin',(3.00000004470348,25.,14.0000002086163));
#591=CARTESIAN_POINT('',(21.5000000223517,25.,14.0000002086163));
#592=CARTESIAN_POINT('',(1.50000002235174,0.,14.0000002086163));
#593=CARTESIAN_POINT('Origin',(30.,7.,27.));
#594=CARTESIAN_POINT('',(1.23259516440783E-31,25.,27.));
#595=CARTESIAN_POINT('',(3.45126646034193E-32,7.,45.));
#596=CARTESIAN_POINT('Origin',(0.,7.,27.));
#597=CARTESIAN_POINT('',(40.,7.,45.));
#598=CARTESIAN_POINT('',(30.,7.,45.));
#599=CARTESIAN_POINT('',(40.,25.,27.));
#600=CARTESIAN_POINT('Origin',(40.,7.,27.));
#601=CARTESIAN_POINT('',(30.,25.,27.));
#602=CARTESIAN_POINT('Origin',(1.23259516440783E-31,25.,0.));
#603=CARTESIAN_POINT('',(1.23259516440783E-31,25.,0.));
#604=CARTESIAN_POINT('',(1.23259516440783E-31,25.,0.));
#605=CARTESIAN_POINT('',(0.,0.,0.));
#606=CARTESIAN_POINT('',(1.23259516440783E-31,25.,0.));
#607=CARTESIAN_POINT('',(0.,0.,45.));
#608=CARTESIAN_POINT('',(0.,0.,0.));
#609=CARTESIAN_POINT('',(1.23259516440783E-31,25.,45.));
#610=CARTESIAN_POINT('Origin',(40.,25.,0.));
#611=CARTESIAN_POINT('',(40.,25.,0.));
#612=CARTESIAN_POINT('',(40.,25.,0.));
#613=CARTESIAN_POINT('',(40.,25.,0.));
#614=CARTESIAN_POINT('Origin',(40.,0.,0.));
#615=CARTESIAN_POINT('',(40.,0.,45.));
#616=CARTESIAN_POINT('',(40.,0.,45.));
#617=CARTESIAN_POINT('',(40.,0.,0.));
#618=CARTESIAN_POINT('',(40.,0.,0.));
#619=CARTESIAN_POINT('',(40.,0.,0.));
#620=CARTESIAN_POINT('Origin',(0.,0.,0.));
#621=CARTESIAN_POINT('',(0.,0.,0.));
#622=CARTESIAN_POINT('',(0.,0.,45.));
#623=CARTESIAN_POINT('Origin',(20.,12.5,45.));
#624=CARTESIAN_POINT('Origin',(20.,12.5,0.));
#625=UNCERTAINTY_MEASURE_WITH_UNIT(LENGTH_MEASURE(0.01),#629,
'DISTANCE_ACCURACY_VALUE',
'Maximum model space distance between geometric entities at asserted c
onnectivities');
#626=UNCERTAINTY_MEASURE_WITH_UNIT(LENGTH_MEASURE(0.01),#629,
'DISTANCE_ACCURACY_VALUE',
'Maximum model space distance between geometric entities at asserted c
onnectivities');
#627=(
GEOMETRIC_REPRESENTATION_CONTEXT(3)
GLOBAL_UNCERTAINTY_ASSIGNED_CONTEXT((#625))
GLOBAL_UNIT_ASSIGNED_CONTEXT((#629,#631,#632))
REPRESENTATION_CONTEXT('','3D')
);
#628=(
GEOMETRIC_REPRESENTATION_CONTEXT(3)
GLOBAL_UNCERTAINTY_ASSIGNED_CONTEXT((#626))
GLOBAL_UNIT_ASSIGNED_CONTEXT((#629,#631,#632))
REPRESENTATION_CONTEXT('','3D')
);
#629=(
LENGTH_UNIT()
NAMED_UNIT(*)
SI_UNIT(.MILLI.,.METRE.)
);
#630=(
LENGTH_UNIT()
NAMED_UNIT(*)
SI_UNIT($,.METRE.)
);
#631=(
NAMED_UNIT(*)
PLANE_ANGLE_UNIT()
SI_UNIT($,.RADIAN.)
);
#632=(
NAMED_UNIT(*)
SI_UNIT($,.STERADIAN.)
SOLID_ANGLE_UNIT()
);
#633=SHAPE_DEFINITION_REPRESENTATION(#634,#635);
#634=PRODUCT_DEFINITION_SHAPE('',$,#637);
#635=SHAPE_REPRESENTATION('',(#401),#627);
#636=PRODUCT_DEFINITION_CONTEXT('part definition',#641,'design');
#637=PRODUCT_DEFINITION('2026-09-09-01-30-52-000','other counter',#638,
#636);
#638=PRODUCT_DEFINITION_FORMATION('',$,#643);
#639=PRODUCT_RELATED_PRODUCT_CATEGORY('other counter','other counter',(#643));
#640=APPLICATION_PROTOCOL_DEFINITION('international standard',
'automotive_design',2009,#641);
#641=APPLICATION_CONTEXT(
'Core Data for Automotive Mechanical Design Process');
#642=PRODUCT_CONTEXT('part definition',#641,'mechanical');
#643=PRODUCT('2026-09-09-01-30-52-000','other counter',$,(#642));
#644=PRESENTATION_STYLE_ASSIGNMENT((#645));
#645=SURFACE_STYLE_USAGE(.BOTH.,#646);
#646=SURFACE_SIDE_STYLE('',(#647));
#647=SURFACE_STYLE_FILL_AREA(#648);
#648=FILL_AREA_STYLE('Steel - Satin',(#649));
#649=FILL_AREA_STYLE_COLOUR('Steel - Satin',#650);
#650=COLOUR_RGB('Steel - Satin',0.627450980392157,0.627450980392157,0.627450980392157);
ENDSEC;
END-ISO-10303-21;
