ISO-10303-21;
HEADER;
/* Generated by software containing ST-Developer
 * from STEP Tools, Inc. (www.steptools.com) 
 */

FILE_DESCRIPTION(
/* description */ (''),
/* implementation_level */ '2;1');

FILE_NAME(
/* name */ 'Cupboard.step',
/* time_stamp */ '2026-09-09T16:06:37+05:30',
/* author */ (''),
/* organization */ (''),
/* preprocessor_version */ 'ST-DEVELOPER v20.2',
/* originating_system */ 'Autodesk Translation Framework v15.15.0.0',
/* authorisation */ '');

FILE_SCHEMA (('AUTOMOTIVE_DESIGN { 1 0 10303 214 3 1 1 }'));
ENDSEC;

DATA;
#10=MECHANICAL_DESIGN_GEOMETRIC_PRESENTATION_REPRESENTATION('',(#15,#16,
#17),#1076);
#11=SHAPE_REPRESENTATION_RELATIONSHIP('SRR','None',#1083,#12);
#12=ADVANCED_BREP_SHAPE_REPRESENTATION('',(#18,#19,#20),#1075);
#13=SPHERICAL_SURFACE('',#704,1.);
#14=SPHERICAL_SURFACE('',#711,1.);
#15=STYLED_ITEM('',(#1092),#18);
#16=STYLED_ITEM('',(#1092),#19);
#17=STYLED_ITEM('',(#1092),#20);
#18=MANIFOLD_SOLID_BREP('Body1',#654);
#19=MANIFOLD_SOLID_BREP('Body2',#655);
#20=MANIFOLD_SOLID_BREP('Body3',#656);
#21=FACE_BOUND('',#128,.T.);
#22=FACE_BOUND('',#129,.T.);
#23=FACE_BOUND('',#130,.T.);
#24=FACE_BOUND('',#131,.T.);
#25=FACE_BOUND('',#132,.T.);
#26=PLANE('',#673);
#27=PLANE('',#674);
#28=PLANE('',#675);
#29=PLANE('',#676);
#30=PLANE('',#677);
#31=PLANE('',#678);
#32=PLANE('',#679);
#33=PLANE('',#680);
#34=PLANE('',#681);
#35=PLANE('',#682);
#36=PLANE('',#683);
#37=PLANE('',#684);
#38=PLANE('',#685);
#39=PLANE('',#686);
#40=PLANE('',#687);
#41=PLANE('',#688);
#42=PLANE('',#689);
#43=PLANE('',#690);
#44=PLANE('',#691);
#45=PLANE('',#692);
#46=PLANE('',#693);
#47=PLANE('',#694);
#48=PLANE('',#695);
#49=PLANE('',#696);
#50=PLANE('',#697);
#51=PLANE('',#698);
#52=PLANE('',#699);
#53=PLANE('',#700);
#54=PLANE('',#701);
#55=PLANE('',#702);
#56=PLANE('',#703);
#57=PLANE('',#710);
#58=PLANE('',#717);
#59=FACE_OUTER_BOUND('',#97,.T.);
#60=FACE_OUTER_BOUND('',#98,.T.);
#61=FACE_OUTER_BOUND('',#99,.T.);
#62=FACE_OUTER_BOUND('',#100,.T.);
#63=FACE_OUTER_BOUND('',#101,.T.);
#64=FACE_OUTER_BOUND('',#102,.T.);
#65=FACE_OUTER_BOUND('',#103,.T.);
#66=FACE_OUTER_BOUND('',#104,.T.);
#67=FACE_OUTER_BOUND('',#105,.T.);
#68=FACE_OUTER_BOUND('',#106,.T.);
#69=FACE_OUTER_BOUND('',#107,.T.);
#70=FACE_OUTER_BOUND('',#108,.T.);
#71=FACE_OUTER_BOUND('',#109,.T.);
#72=FACE_OUTER_BOUND('',#110,.T.);
#73=FACE_OUTER_BOUND('',#111,.T.);
#74=FACE_OUTER_BOUND('',#112,.T.);
#75=FACE_OUTER_BOUND('',#113,.T.);
#76=FACE_OUTER_BOUND('',#114,.T.);
#77=FACE_OUTER_BOUND('',#115,.T.);
#78=FACE_OUTER_BOUND('',#116,.T.);
#79=FACE_OUTER_BOUND('',#117,.T.);
#80=FACE_OUTER_BOUND('',#118,.T.);
#81=FACE_OUTER_BOUND('',#119,.T.);
#82=FACE_OUTER_BOUND('',#120,.T.);
#83=FACE_OUTER_BOUND('',#121,.T.);
#84=FACE_OUTER_BOUND('',#122,.T.);
#85=FACE_OUTER_BOUND('',#123,.T.);
#86=FACE_OUTER_BOUND('',#124,.T.);
#87=FACE_OUTER_BOUND('',#125,.T.);
#88=FACE_OUTER_BOUND('',#126,.T.);
#89=FACE_OUTER_BOUND('',#127,.T.);
#90=FACE_OUTER_BOUND('',#133,.T.);
#91=FACE_OUTER_BOUND('',#134,.T.);
#92=FACE_OUTER_BOUND('',#135,.T.);
#93=FACE_OUTER_BOUND('',#136,.T.);
#94=FACE_OUTER_BOUND('',#137,.T.);
#95=FACE_OUTER_BOUND('',#138,.T.);
#96=FACE_OUTER_BOUND('',#139,.T.);
#97=EDGE_LOOP('',(#443,#444,#445,#446));
#98=EDGE_LOOP('',(#447,#448,#449,#450,#451));
#99=EDGE_LOOP('',(#452,#453,#454,#455));
#100=EDGE_LOOP('',(#456,#457,#458,#459));
#101=EDGE_LOOP('',(#460,#461,#462,#463));
#102=EDGE_LOOP('',(#464,#465,#466,#467));
#103=EDGE_LOOP('',(#468,#469,#470,#471));
#104=EDGE_LOOP('',(#472,#473,#474,#475));
#105=EDGE_LOOP('',(#476,#477,#478,#479));
#106=EDGE_LOOP('',(#480,#481,#482,#483));
#107=EDGE_LOOP('',(#484,#485,#486,#487));
#108=EDGE_LOOP('',(#488,#489,#490,#491));
#109=EDGE_LOOP('',(#492,#493,#494,#495));
#110=EDGE_LOOP('',(#496,#497,#498,#499));
#111=EDGE_LOOP('',(#500,#501,#502,#503));
#112=EDGE_LOOP('',(#504,#505,#506,#507));
#113=EDGE_LOOP('',(#508,#509,#510,#511));
#114=EDGE_LOOP('',(#512,#513,#514,#515));
#115=EDGE_LOOP('',(#516,#517,#518,#519));
#116=EDGE_LOOP('',(#520,#521,#522,#523));
#117=EDGE_LOOP('',(#524,#525,#526,#527));
#118=EDGE_LOOP('',(#528,#529,#530,#531));
#119=EDGE_LOOP('',(#532,#533,#534,#535));
#120=EDGE_LOOP('',(#536,#537,#538,#539));
#121=EDGE_LOOP('',(#540,#541,#542,#543));
#122=EDGE_LOOP('',(#544,#545,#546,#547));
#123=EDGE_LOOP('',(#548,#549,#550,#551));
#124=EDGE_LOOP('',(#552,#553,#554,#555));
#125=EDGE_LOOP('',(#556,#557,#558,#559,#560));
#126=EDGE_LOOP('',(#561,#562,#563,#564));
#127=EDGE_LOOP('',(#565,#566,#567,#568));
#128=EDGE_LOOP('',(#569,#570,#571,#572));
#129=EDGE_LOOP('',(#573,#574,#575,#576));
#130=EDGE_LOOP('',(#577,#578,#579,#580));
#131=EDGE_LOOP('',(#581,#582,#583,#584));
#132=EDGE_LOOP('',(#585,#586,#587,#588));
#133=EDGE_LOOP('',(#589,#590,#591,#592));
#134=EDGE_LOOP('',(#593,#594,#595,#596));
#135=EDGE_LOOP('',(#597,#598,#599,#600,#601));
#136=EDGE_LOOP('',(#602));
#137=EDGE_LOOP('',(#603,#604,#605,#606));
#138=EDGE_LOOP('',(#607,#608,#609,#610,#611));
#139=EDGE_LOOP('',(#612));
#140=LINE('',#897,#215);
#141=LINE('',#900,#216);
#142=LINE('',#903,#217);
#143=LINE('',#905,#218);
#144=LINE('',#907,#219);
#145=LINE('',#908,#220);
#146=LINE('',#911,#221);
#147=LINE('',#912,#222);
#148=LINE('',#916,#223);
#149=LINE('',#918,#224);
#150=LINE('',#920,#225);
#151=LINE('',#921,#226);
#152=LINE('',#924,#227);
#153=LINE('',#926,#228);
#154=LINE('',#927,#229);
#155=LINE('',#930,#230);
#156=LINE('',#932,#231);
#157=LINE('',#933,#232);
#158=LINE('',#935,#233);
#159=LINE('',#936,#234);
#160=LINE('',#941,#235);
#161=LINE('',#943,#236);
#162=LINE('',#945,#237);
#163=LINE('',#946,#238);
#164=LINE('',#949,#239);
#165=LINE('',#951,#240);
#166=LINE('',#952,#241);
#167=LINE('',#955,#242);
#168=LINE('',#957,#243);
#169=LINE('',#958,#244);
#170=LINE('',#960,#245);
#171=LINE('',#961,#246);
#172=LINE('',#966,#247);
#173=LINE('',#968,#248);
#174=LINE('',#970,#249);
#175=LINE('',#971,#250);
#176=LINE('',#974,#251);
#177=LINE('',#976,#252);
#178=LINE('',#977,#253);
#179=LINE('',#980,#254);
#180=LINE('',#982,#255);
#181=LINE('',#983,#256);
#182=LINE('',#985,#257);
#183=LINE('',#986,#258);
#184=LINE('',#991,#259);
#185=LINE('',#993,#260);
#186=LINE('',#995,#261);
#187=LINE('',#996,#262);
#188=LINE('',#999,#263);
#189=LINE('',#1001,#264);
#190=LINE('',#1002,#265);
#191=LINE('',#1005,#266);
#192=LINE('',#1007,#267);
#193=LINE('',#1008,#268);
#194=LINE('',#1010,#269);
#195=LINE('',#1011,#270);
#196=LINE('',#1016,#271);
#197=LINE('',#1018,#272);
#198=LINE('',#1020,#273);
#199=LINE('',#1021,#274);
#200=LINE('',#1024,#275);
#201=LINE('',#1026,#276);
#202=LINE('',#1027,#277);
#203=LINE('',#1030,#278);
#204=LINE('',#1032,#279);
#205=LINE('',#1033,#280);
#206=LINE('',#1035,#281);
#207=LINE('',#1036,#282);
#208=LINE('',#1040,#283);
#209=LINE('',#1042,#284);
#210=LINE('',#1043,#285);
#211=LINE('',#1045,#286);
#212=LINE('',#1046,#287);
#213=LINE('',#1058,#288);
#214=LINE('',#1070,#289);
#215=VECTOR('',#724,10.);
#216=VECTOR('',#727,10.);
#217=VECTOR('',#730,10.);
#218=VECTOR('',#731,10.);
#219=VECTOR('',#732,10.);
#220=VECTOR('',#733,10.);
#221=VECTOR('',#736,10.);
#222=VECTOR('',#737,10.);
#223=VECTOR('',#740,10.);
#224=VECTOR('',#741,10.);
#225=VECTOR('',#742,10.);
#226=VECTOR('',#743,10.);
#227=VECTOR('',#746,10.);
#228=VECTOR('',#747,10.);
#229=VECTOR('',#748,10.);
#230=VECTOR('',#751,10.);
#231=VECTOR('',#752,10.);
#232=VECTOR('',#753,10.);
#233=VECTOR('',#756,10.);
#234=VECTOR('',#757,10.);
#235=VECTOR('',#762,10.);
#236=VECTOR('',#763,10.);
#237=VECTOR('',#764,10.);
#238=VECTOR('',#765,10.);
#239=VECTOR('',#768,10.);
#240=VECTOR('',#769,10.);
#241=VECTOR('',#770,10.);
#242=VECTOR('',#773,10.);
#243=VECTOR('',#774,10.);
#244=VECTOR('',#775,10.);
#245=VECTOR('',#778,10.);
#246=VECTOR('',#779,10.);
#247=VECTOR('',#784,10.);
#248=VECTOR('',#785,10.);
#249=VECTOR('',#786,10.);
#250=VECTOR('',#787,10.);
#251=VECTOR('',#790,10.);
#252=VECTOR('',#791,10.);
#253=VECTOR('',#792,10.);
#254=VECTOR('',#795,10.);
#255=VECTOR('',#796,10.);
#256=VECTOR('',#797,10.);
#257=VECTOR('',#800,10.);
#258=VECTOR('',#801,10.);
#259=VECTOR('',#806,10.);
#260=VECTOR('',#807,10.);
#261=VECTOR('',#808,10.);
#262=VECTOR('',#809,10.);
#263=VECTOR('',#812,10.);
#264=VECTOR('',#813,10.);
#265=VECTOR('',#814,10.);
#266=VECTOR('',#817,10.);
#267=VECTOR('',#818,10.);
#268=VECTOR('',#819,10.);
#269=VECTOR('',#822,10.);
#270=VECTOR('',#823,10.);
#271=VECTOR('',#828,10.);
#272=VECTOR('',#829,10.);
#273=VECTOR('',#830,10.);
#274=VECTOR('',#831,10.);
#275=VECTOR('',#834,10.);
#276=VECTOR('',#835,10.);
#277=VECTOR('',#836,10.);
#278=VECTOR('',#839,10.);
#279=VECTOR('',#840,10.);
#280=VECTOR('',#841,10.);
#281=VECTOR('',#844,10.);
#282=VECTOR('',#845,10.);
#283=VECTOR('',#850,10.);
#284=VECTOR('',#851,10.);
#285=VECTOR('',#852,10.);
#286=VECTOR('',#855,10.);
#287=VECTOR('',#856,10.);
#288=VECTOR('',#871,1.);
#289=VECTOR('',#886,1.);
#290=CIRCLE('',#671,1.);
#291=CIRCLE('',#672,1.);
#292=CIRCLE('',#705,1.);
#293=CIRCLE('',#706,1.);
#294=CIRCLE('',#707,1.);
#295=CIRCLE('',#709,1.);
#296=CIRCLE('',#712,1.);
#297=CIRCLE('',#713,1.);
#298=CIRCLE('',#714,1.);
#299=CIRCLE('',#716,1.);
#300=VERTEX_POINT('',#893);
#301=VERTEX_POINT('',#894);
#302=VERTEX_POINT('',#896);
#303=VERTEX_POINT('',#898);
#304=VERTEX_POINT('',#902);
#305=VERTEX_POINT('',#904);
#306=VERTEX_POINT('',#906);
#307=VERTEX_POINT('',#910);
#308=VERTEX_POINT('',#914);
#309=VERTEX_POINT('',#915);
#310=VERTEX_POINT('',#917);
#311=VERTEX_POINT('',#919);
#312=VERTEX_POINT('',#923);
#313=VERTEX_POINT('',#925);
#314=VERTEX_POINT('',#929);
#315=VERTEX_POINT('',#931);
#316=VERTEX_POINT('',#939);
#317=VERTEX_POINT('',#940);
#318=VERTEX_POINT('',#942);
#319=VERTEX_POINT('',#944);
#320=VERTEX_POINT('',#948);
#321=VERTEX_POINT('',#950);
#322=VERTEX_POINT('',#954);
#323=VERTEX_POINT('',#956);
#324=VERTEX_POINT('',#964);
#325=VERTEX_POINT('',#965);
#326=VERTEX_POINT('',#967);
#327=VERTEX_POINT('',#969);
#328=VERTEX_POINT('',#973);
#329=VERTEX_POINT('',#975);
#330=VERTEX_POINT('',#979);
#331=VERTEX_POINT('',#981);
#332=VERTEX_POINT('',#989);
#333=VERTEX_POINT('',#990);
#334=VERTEX_POINT('',#992);
#335=VERTEX_POINT('',#994);
#336=VERTEX_POINT('',#998);
#337=VERTEX_POINT('',#1000);
#338=VERTEX_POINT('',#1004);
#339=VERTEX_POINT('',#1006);
#340=VERTEX_POINT('',#1014);
#341=VERTEX_POINT('',#1015);
#342=VERTEX_POINT('',#1017);
#343=VERTEX_POINT('',#1019);
#344=VERTEX_POINT('',#1023);
#345=VERTEX_POINT('',#1025);
#346=VERTEX_POINT('',#1029);
#347=VERTEX_POINT('',#1031);
#348=VERTEX_POINT('',#1039);
#349=VERTEX_POINT('',#1041);
#350=VERTEX_POINT('',#1050);
#351=VERTEX_POINT('',#1051);
#352=VERTEX_POINT('',#1053);
#353=VERTEX_POINT('',#1057);
#354=VERTEX_POINT('',#1062);
#355=VERTEX_POINT('',#1063);
#356=VERTEX_POINT('',#1065);
#357=VERTEX_POINT('',#1069);
#358=EDGE_CURVE('',#300,#301,#290,.T.);
#359=EDGE_CURVE('',#301,#302,#140,.T.);
#360=EDGE_CURVE('',#302,#303,#291,.T.);
#361=EDGE_CURVE('',#303,#300,#141,.T.);
#362=EDGE_CURVE('',#304,#300,#142,.T.);
#363=EDGE_CURVE('',#304,#305,#143,.T.);
#364=EDGE_CURVE('',#305,#306,#144,.T.);
#365=EDGE_CURVE('',#301,#306,#145,.T.);
#366=EDGE_CURVE('',#307,#303,#146,.T.);
#367=EDGE_CURVE('',#307,#304,#147,.T.);
#368=EDGE_CURVE('',#308,#309,#148,.T.);
#369=EDGE_CURVE('',#308,#310,#149,.T.);
#370=EDGE_CURVE('',#310,#311,#150,.T.);
#371=EDGE_CURVE('',#309,#311,#151,.T.);
#372=EDGE_CURVE('',#312,#308,#152,.T.);
#373=EDGE_CURVE('',#312,#313,#153,.T.);
#374=EDGE_CURVE('',#313,#310,#154,.T.);
#375=EDGE_CURVE('',#314,#312,#155,.T.);
#376=EDGE_CURVE('',#314,#315,#156,.T.);
#377=EDGE_CURVE('',#315,#313,#157,.T.);
#378=EDGE_CURVE('',#309,#314,#158,.T.);
#379=EDGE_CURVE('',#311,#315,#159,.T.);
#380=EDGE_CURVE('',#316,#317,#160,.T.);
#381=EDGE_CURVE('',#316,#318,#161,.T.);
#382=EDGE_CURVE('',#318,#319,#162,.T.);
#383=EDGE_CURVE('',#317,#319,#163,.T.);
#384=EDGE_CURVE('',#320,#316,#164,.T.);
#385=EDGE_CURVE('',#320,#321,#165,.T.);
#386=EDGE_CURVE('',#321,#318,#166,.T.);
#387=EDGE_CURVE('',#322,#320,#167,.T.);
#388=EDGE_CURVE('',#322,#323,#168,.T.);
#389=EDGE_CURVE('',#323,#321,#169,.T.);
#390=EDGE_CURVE('',#317,#322,#170,.T.);
#391=EDGE_CURVE('',#319,#323,#171,.T.);
#392=EDGE_CURVE('',#324,#325,#172,.T.);
#393=EDGE_CURVE('',#324,#326,#173,.T.);
#394=EDGE_CURVE('',#326,#327,#174,.T.);
#395=EDGE_CURVE('',#325,#327,#175,.T.);
#396=EDGE_CURVE('',#328,#324,#176,.T.);
#397=EDGE_CURVE('',#328,#329,#177,.T.);
#398=EDGE_CURVE('',#329,#326,#178,.T.);
#399=EDGE_CURVE('',#330,#328,#179,.T.);
#400=EDGE_CURVE('',#330,#331,#180,.T.);
#401=EDGE_CURVE('',#331,#329,#181,.T.);
#402=EDGE_CURVE('',#325,#330,#182,.T.);
#403=EDGE_CURVE('',#327,#331,#183,.T.);
#404=EDGE_CURVE('',#332,#333,#184,.T.);
#405=EDGE_CURVE('',#332,#334,#185,.T.);
#406=EDGE_CURVE('',#334,#335,#186,.T.);
#407=EDGE_CURVE('',#333,#335,#187,.T.);
#408=EDGE_CURVE('',#336,#332,#188,.T.);
#409=EDGE_CURVE('',#336,#337,#189,.T.);
#410=EDGE_CURVE('',#337,#334,#190,.T.);
#411=EDGE_CURVE('',#338,#336,#191,.T.);
#412=EDGE_CURVE('',#338,#339,#192,.T.);
#413=EDGE_CURVE('',#339,#337,#193,.T.);
#414=EDGE_CURVE('',#333,#338,#194,.T.);
#415=EDGE_CURVE('',#335,#339,#195,.T.);
#416=EDGE_CURVE('',#340,#341,#196,.T.);
#417=EDGE_CURVE('',#340,#342,#197,.T.);
#418=EDGE_CURVE('',#342,#343,#198,.T.);
#419=EDGE_CURVE('',#341,#343,#199,.T.);
#420=EDGE_CURVE('',#344,#340,#200,.T.);
#421=EDGE_CURVE('',#344,#345,#201,.T.);
#422=EDGE_CURVE('',#345,#342,#202,.T.);
#423=EDGE_CURVE('',#346,#344,#203,.T.);
#424=EDGE_CURVE('',#346,#347,#204,.T.);
#425=EDGE_CURVE('',#347,#345,#205,.T.);
#426=EDGE_CURVE('',#341,#346,#206,.T.);
#427=EDGE_CURVE('',#343,#347,#207,.T.);
#428=EDGE_CURVE('',#348,#302,#208,.T.);
#429=EDGE_CURVE('',#349,#348,#209,.T.);
#430=EDGE_CURVE('',#349,#307,#210,.T.);
#431=EDGE_CURVE('',#305,#349,#211,.T.);
#432=EDGE_CURVE('',#306,#348,#212,.T.);
#433=EDGE_CURVE('',#350,#351,#292,.T.);
#434=EDGE_CURVE('',#352,#351,#293,.T.);
#435=EDGE_CURVE('',#351,#350,#294,.T.);
#436=EDGE_CURVE('',#350,#353,#213,.T.);
#437=EDGE_CURVE('',#353,#353,#295,.T.);
#438=EDGE_CURVE('',#354,#355,#296,.T.);
#439=EDGE_CURVE('',#356,#355,#297,.T.);
#440=EDGE_CURVE('',#355,#354,#298,.T.);
#441=EDGE_CURVE('',#354,#357,#214,.T.);
#442=EDGE_CURVE('',#357,#357,#299,.T.);
#443=ORIENTED_EDGE('',*,*,#358,.T.);
#444=ORIENTED_EDGE('',*,*,#359,.T.);
#445=ORIENTED_EDGE('',*,*,#360,.T.);
#446=ORIENTED_EDGE('',*,*,#361,.T.);
#447=ORIENTED_EDGE('',*,*,#358,.F.);
#448=ORIENTED_EDGE('',*,*,#362,.F.);
#449=ORIENTED_EDGE('',*,*,#363,.T.);
#450=ORIENTED_EDGE('',*,*,#364,.T.);
#451=ORIENTED_EDGE('',*,*,#365,.F.);
#452=ORIENTED_EDGE('',*,*,#361,.F.);
#453=ORIENTED_EDGE('',*,*,#366,.F.);
#454=ORIENTED_EDGE('',*,*,#367,.T.);
#455=ORIENTED_EDGE('',*,*,#362,.T.);
#456=ORIENTED_EDGE('',*,*,#368,.F.);
#457=ORIENTED_EDGE('',*,*,#369,.T.);
#458=ORIENTED_EDGE('',*,*,#370,.T.);
#459=ORIENTED_EDGE('',*,*,#371,.F.);
#460=ORIENTED_EDGE('',*,*,#372,.F.);
#461=ORIENTED_EDGE('',*,*,#373,.T.);
#462=ORIENTED_EDGE('',*,*,#374,.T.);
#463=ORIENTED_EDGE('',*,*,#369,.F.);
#464=ORIENTED_EDGE('',*,*,#375,.F.);
#465=ORIENTED_EDGE('',*,*,#376,.T.);
#466=ORIENTED_EDGE('',*,*,#377,.T.);
#467=ORIENTED_EDGE('',*,*,#373,.F.);
#468=ORIENTED_EDGE('',*,*,#378,.F.);
#469=ORIENTED_EDGE('',*,*,#371,.T.);
#470=ORIENTED_EDGE('',*,*,#379,.T.);
#471=ORIENTED_EDGE('',*,*,#376,.F.);
#472=ORIENTED_EDGE('',*,*,#379,.F.);
#473=ORIENTED_EDGE('',*,*,#370,.F.);
#474=ORIENTED_EDGE('',*,*,#374,.F.);
#475=ORIENTED_EDGE('',*,*,#377,.F.);
#476=ORIENTED_EDGE('',*,*,#380,.F.);
#477=ORIENTED_EDGE('',*,*,#381,.T.);
#478=ORIENTED_EDGE('',*,*,#382,.T.);
#479=ORIENTED_EDGE('',*,*,#383,.F.);
#480=ORIENTED_EDGE('',*,*,#384,.F.);
#481=ORIENTED_EDGE('',*,*,#385,.T.);
#482=ORIENTED_EDGE('',*,*,#386,.T.);
#483=ORIENTED_EDGE('',*,*,#381,.F.);
#484=ORIENTED_EDGE('',*,*,#387,.F.);
#485=ORIENTED_EDGE('',*,*,#388,.T.);
#486=ORIENTED_EDGE('',*,*,#389,.T.);
#487=ORIENTED_EDGE('',*,*,#385,.F.);
#488=ORIENTED_EDGE('',*,*,#390,.F.);
#489=ORIENTED_EDGE('',*,*,#383,.T.);
#490=ORIENTED_EDGE('',*,*,#391,.T.);
#491=ORIENTED_EDGE('',*,*,#388,.F.);
#492=ORIENTED_EDGE('',*,*,#391,.F.);
#493=ORIENTED_EDGE('',*,*,#382,.F.);
#494=ORIENTED_EDGE('',*,*,#386,.F.);
#495=ORIENTED_EDGE('',*,*,#389,.F.);
#496=ORIENTED_EDGE('',*,*,#392,.F.);
#497=ORIENTED_EDGE('',*,*,#393,.T.);
#498=ORIENTED_EDGE('',*,*,#394,.T.);
#499=ORIENTED_EDGE('',*,*,#395,.F.);
#500=ORIENTED_EDGE('',*,*,#396,.F.);
#501=ORIENTED_EDGE('',*,*,#397,.T.);
#502=ORIENTED_EDGE('',*,*,#398,.T.);
#503=ORIENTED_EDGE('',*,*,#393,.F.);
#504=ORIENTED_EDGE('',*,*,#399,.F.);
#505=ORIENTED_EDGE('',*,*,#400,.T.);
#506=ORIENTED_EDGE('',*,*,#401,.T.);
#507=ORIENTED_EDGE('',*,*,#397,.F.);
#508=ORIENTED_EDGE('',*,*,#402,.F.);
#509=ORIENTED_EDGE('',*,*,#395,.T.);
#510=ORIENTED_EDGE('',*,*,#403,.T.);
#511=ORIENTED_EDGE('',*,*,#400,.F.);
#512=ORIENTED_EDGE('',*,*,#403,.F.);
#513=ORIENTED_EDGE('',*,*,#394,.F.);
#514=ORIENTED_EDGE('',*,*,#398,.F.);
#515=ORIENTED_EDGE('',*,*,#401,.F.);
#516=ORIENTED_EDGE('',*,*,#404,.F.);
#517=ORIENTED_EDGE('',*,*,#405,.T.);
#518=ORIENTED_EDGE('',*,*,#406,.T.);
#519=ORIENTED_EDGE('',*,*,#407,.F.);
#520=ORIENTED_EDGE('',*,*,#408,.F.);
#521=ORIENTED_EDGE('',*,*,#409,.T.);
#522=ORIENTED_EDGE('',*,*,#410,.T.);
#523=ORIENTED_EDGE('',*,*,#405,.F.);
#524=ORIENTED_EDGE('',*,*,#411,.F.);
#525=ORIENTED_EDGE('',*,*,#412,.T.);
#526=ORIENTED_EDGE('',*,*,#413,.T.);
#527=ORIENTED_EDGE('',*,*,#409,.F.);
#528=ORIENTED_EDGE('',*,*,#414,.F.);
#529=ORIENTED_EDGE('',*,*,#407,.T.);
#530=ORIENTED_EDGE('',*,*,#415,.T.);
#531=ORIENTED_EDGE('',*,*,#412,.F.);
#532=ORIENTED_EDGE('',*,*,#415,.F.);
#533=ORIENTED_EDGE('',*,*,#406,.F.);
#534=ORIENTED_EDGE('',*,*,#410,.F.);
#535=ORIENTED_EDGE('',*,*,#413,.F.);
#536=ORIENTED_EDGE('',*,*,#416,.F.);
#537=ORIENTED_EDGE('',*,*,#417,.T.);
#538=ORIENTED_EDGE('',*,*,#418,.T.);
#539=ORIENTED_EDGE('',*,*,#419,.F.);
#540=ORIENTED_EDGE('',*,*,#420,.F.);
#541=ORIENTED_EDGE('',*,*,#421,.T.);
#542=ORIENTED_EDGE('',*,*,#422,.T.);
#543=ORIENTED_EDGE('',*,*,#417,.F.);
#544=ORIENTED_EDGE('',*,*,#423,.F.);
#545=ORIENTED_EDGE('',*,*,#424,.T.);
#546=ORIENTED_EDGE('',*,*,#425,.T.);
#547=ORIENTED_EDGE('',*,*,#421,.F.);
#548=ORIENTED_EDGE('',*,*,#426,.F.);
#549=ORIENTED_EDGE('',*,*,#419,.T.);
#550=ORIENTED_EDGE('',*,*,#427,.T.);
#551=ORIENTED_EDGE('',*,*,#424,.F.);
#552=ORIENTED_EDGE('',*,*,#427,.F.);
#553=ORIENTED_EDGE('',*,*,#418,.F.);
#554=ORIENTED_EDGE('',*,*,#422,.F.);
#555=ORIENTED_EDGE('',*,*,#425,.F.);
#556=ORIENTED_EDGE('',*,*,#360,.F.);
#557=ORIENTED_EDGE('',*,*,#428,.F.);
#558=ORIENTED_EDGE('',*,*,#429,.F.);
#559=ORIENTED_EDGE('',*,*,#430,.T.);
#560=ORIENTED_EDGE('',*,*,#366,.T.);
#561=ORIENTED_EDGE('',*,*,#431,.T.);
#562=ORIENTED_EDGE('',*,*,#429,.T.);
#563=ORIENTED_EDGE('',*,*,#432,.F.);
#564=ORIENTED_EDGE('',*,*,#364,.F.);
#565=ORIENTED_EDGE('',*,*,#359,.F.);
#566=ORIENTED_EDGE('',*,*,#365,.T.);
#567=ORIENTED_EDGE('',*,*,#432,.T.);
#568=ORIENTED_EDGE('',*,*,#428,.T.);
#569=ORIENTED_EDGE('',*,*,#368,.T.);
#570=ORIENTED_EDGE('',*,*,#378,.T.);
#571=ORIENTED_EDGE('',*,*,#375,.T.);
#572=ORIENTED_EDGE('',*,*,#372,.T.);
#573=ORIENTED_EDGE('',*,*,#380,.T.);
#574=ORIENTED_EDGE('',*,*,#390,.T.);
#575=ORIENTED_EDGE('',*,*,#387,.T.);
#576=ORIENTED_EDGE('',*,*,#384,.T.);
#577=ORIENTED_EDGE('',*,*,#392,.T.);
#578=ORIENTED_EDGE('',*,*,#402,.T.);
#579=ORIENTED_EDGE('',*,*,#399,.T.);
#580=ORIENTED_EDGE('',*,*,#396,.T.);
#581=ORIENTED_EDGE('',*,*,#404,.T.);
#582=ORIENTED_EDGE('',*,*,#414,.T.);
#583=ORIENTED_EDGE('',*,*,#411,.T.);
#584=ORIENTED_EDGE('',*,*,#408,.T.);
#585=ORIENTED_EDGE('',*,*,#416,.T.);
#586=ORIENTED_EDGE('',*,*,#426,.T.);
#587=ORIENTED_EDGE('',*,*,#423,.T.);
#588=ORIENTED_EDGE('',*,*,#420,.T.);
#589=ORIENTED_EDGE('',*,*,#363,.F.);
#590=ORIENTED_EDGE('',*,*,#367,.F.);
#591=ORIENTED_EDGE('',*,*,#430,.F.);
#592=ORIENTED_EDGE('',*,*,#431,.F.);
#593=ORIENTED_EDGE('',*,*,#433,.T.);
#594=ORIENTED_EDGE('',*,*,#434,.F.);
#595=ORIENTED_EDGE('',*,*,#434,.T.);
#596=ORIENTED_EDGE('',*,*,#435,.T.);
#597=ORIENTED_EDGE('',*,*,#433,.F.);
#598=ORIENTED_EDGE('',*,*,#436,.T.);
#599=ORIENTED_EDGE('',*,*,#437,.T.);
#600=ORIENTED_EDGE('',*,*,#436,.F.);
#601=ORIENTED_EDGE('',*,*,#435,.F.);
#602=ORIENTED_EDGE('',*,*,#437,.F.);
#603=ORIENTED_EDGE('',*,*,#438,.T.);
#604=ORIENTED_EDGE('',*,*,#439,.F.);
#605=ORIENTED_EDGE('',*,*,#439,.T.);
#606=ORIENTED_EDGE('',*,*,#440,.T.);
#607=ORIENTED_EDGE('',*,*,#438,.F.);
#608=ORIENTED_EDGE('',*,*,#441,.T.);
#609=ORIENTED_EDGE('',*,*,#442,.T.);
#610=ORIENTED_EDGE('',*,*,#441,.F.);
#611=ORIENTED_EDGE('',*,*,#440,.F.);
#612=ORIENTED_EDGE('',*,*,#442,.F.);
#613=CYLINDRICAL_SURFACE('',#670,1.);
#614=CYLINDRICAL_SURFACE('',#708,1.);
#615=CYLINDRICAL_SURFACE('',#715,1.);
#616=ADVANCED_FACE('',(#59),#613,.T.);
#617=ADVANCED_FACE('',(#60),#26,.T.);
#618=ADVANCED_FACE('',(#61),#27,.T.);
#619=ADVANCED_FACE('',(#62),#28,.F.);
#620=ADVANCED_FACE('',(#63),#29,.F.);
#621=ADVANCED_FACE('',(#64),#30,.F.);
#622=ADVANCED_FACE('',(#65),#31,.F.);
#623=ADVANCED_FACE('',(#66),#32,.F.);
#624=ADVANCED_FACE('',(#67),#33,.F.);
#625=ADVANCED_FACE('',(#68),#34,.F.);
#626=ADVANCED_FACE('',(#69),#35,.F.);
#627=ADVANCED_FACE('',(#70),#36,.F.);
#628=ADVANCED_FACE('',(#71),#37,.F.);
#629=ADVANCED_FACE('',(#72),#38,.F.);
#630=ADVANCED_FACE('',(#73),#39,.F.);
#631=ADVANCED_FACE('',(#74),#40,.F.);
#632=ADVANCED_FACE('',(#75),#41,.F.);
#633=ADVANCED_FACE('',(#76),#42,.F.);
#634=ADVANCED_FACE('',(#77),#43,.F.);
#635=ADVANCED_FACE('',(#78),#44,.F.);
#636=ADVANCED_FACE('',(#79),#45,.F.);
#637=ADVANCED_FACE('',(#80),#46,.F.);
#638=ADVANCED_FACE('',(#81),#47,.F.);
#639=ADVANCED_FACE('',(#82),#48,.F.);
#640=ADVANCED_FACE('',(#83),#49,.F.);
#641=ADVANCED_FACE('',(#84),#50,.F.);
#642=ADVANCED_FACE('',(#85),#51,.F.);
#643=ADVANCED_FACE('',(#86),#52,.F.);
#644=ADVANCED_FACE('',(#87),#53,.T.);
#645=ADVANCED_FACE('',(#88),#54,.T.);
#646=ADVANCED_FACE('',(#89,#21,#22,#23,#24,#25),#55,.T.);
#647=ADVANCED_FACE('',(#90),#56,.F.);
#648=ADVANCED_FACE('',(#91),#13,.T.);
#649=ADVANCED_FACE('',(#92),#614,.T.);
#650=ADVANCED_FACE('',(#93),#57,.F.);
#651=ADVANCED_FACE('',(#94),#14,.T.);
#652=ADVANCED_FACE('',(#95),#615,.T.);
#653=ADVANCED_FACE('',(#96),#58,.F.);
#654=CLOSED_SHELL('',(#616,#617,#618,#619,#620,#621,#622,#623,#624,#625,
#626,#627,#628,#629,#630,#631,#632,#633,#634,#635,#636,#637,#638,#639,#640,
#641,#642,#643,#644,#645,#646,#647));
#655=CLOSED_SHELL('',(#648,#649,#650));
#656=CLOSED_SHELL('',(#651,#652,#653));
#657=DERIVED_UNIT_ELEMENT(#659,1.);
#658=DERIVED_UNIT_ELEMENT(#1078,-3.);
#659=(
MASS_UNIT()
NAMED_UNIT(*)
SI_UNIT(.KILO.,.GRAM.)
);
#660=DERIVED_UNIT((#657,#658));
#661=MEASURE_REPRESENTATION_ITEM('density measure',
POSITIVE_RATIO_MEASURE(7850.),#660);
#662=PROPERTY_DEFINITION_REPRESENTATION(#667,#664);
#663=PROPERTY_DEFINITION_REPRESENTATION(#668,#665);
#664=REPRESENTATION('material name',(#666),#1075);
#665=REPRESENTATION('density',(#661),#1075);
#666=DESCRIPTIVE_REPRESENTATION_ITEM('Steel','Steel');
#667=PROPERTY_DEFINITION('material property','material name',#1085);
#668=PROPERTY_DEFINITION('material property','density of part',#1085);
#669=AXIS2_PLACEMENT_3D('',#891,#718,#719);
#670=AXIS2_PLACEMENT_3D('',#892,#720,#721);
#671=AXIS2_PLACEMENT_3D('',#895,#722,#723);
#672=AXIS2_PLACEMENT_3D('',#899,#725,#726);
#673=AXIS2_PLACEMENT_3D('',#901,#728,#729);
#674=AXIS2_PLACEMENT_3D('',#909,#734,#735);
#675=AXIS2_PLACEMENT_3D('',#913,#738,#739);
#676=AXIS2_PLACEMENT_3D('',#922,#744,#745);
#677=AXIS2_PLACEMENT_3D('',#928,#749,#750);
#678=AXIS2_PLACEMENT_3D('',#934,#754,#755);
#679=AXIS2_PLACEMENT_3D('',#937,#758,#759);
#680=AXIS2_PLACEMENT_3D('',#938,#760,#761);
#681=AXIS2_PLACEMENT_3D('',#947,#766,#767);
#682=AXIS2_PLACEMENT_3D('',#953,#771,#772);
#683=AXIS2_PLACEMENT_3D('',#959,#776,#777);
#684=AXIS2_PLACEMENT_3D('',#962,#780,#781);
#685=AXIS2_PLACEMENT_3D('',#963,#782,#783);
#686=AXIS2_PLACEMENT_3D('',#972,#788,#789);
#687=AXIS2_PLACEMENT_3D('',#978,#793,#794);
#688=AXIS2_PLACEMENT_3D('',#984,#798,#799);
#689=AXIS2_PLACEMENT_3D('',#987,#802,#803);
#690=AXIS2_PLACEMENT_3D('',#988,#804,#805);
#691=AXIS2_PLACEMENT_3D('',#997,#810,#811);
#692=AXIS2_PLACEMENT_3D('',#1003,#815,#816);
#693=AXIS2_PLACEMENT_3D('',#1009,#820,#821);
#694=AXIS2_PLACEMENT_3D('',#1012,#824,#825);
#695=AXIS2_PLACEMENT_3D('',#1013,#826,#827);
#696=AXIS2_PLACEMENT_3D('',#1022,#832,#833);
#697=AXIS2_PLACEMENT_3D('',#1028,#837,#838);
#698=AXIS2_PLACEMENT_3D('',#1034,#842,#843);
#699=AXIS2_PLACEMENT_3D('',#1037,#846,#847);
#700=AXIS2_PLACEMENT_3D('',#1038,#848,#849);
#701=AXIS2_PLACEMENT_3D('',#1044,#853,#854);
#702=AXIS2_PLACEMENT_3D('',#1047,#857,#858);
#703=AXIS2_PLACEMENT_3D('',#1048,#859,#860);
#704=AXIS2_PLACEMENT_3D('',#1049,#861,#862);
#705=AXIS2_PLACEMENT_3D('',#1052,#863,#864);
#706=AXIS2_PLACEMENT_3D('',#1054,#865,#866);
#707=AXIS2_PLACEMENT_3D('',#1055,#867,#868);
#708=AXIS2_PLACEMENT_3D('',#1056,#869,#870);
#709=AXIS2_PLACEMENT_3D('',#1059,#872,#873);
#710=AXIS2_PLACEMENT_3D('',#1060,#874,#875);
#711=AXIS2_PLACEMENT_3D('',#1061,#876,#877);
#712=AXIS2_PLACEMENT_3D('',#1064,#878,#879);
#713=AXIS2_PLACEMENT_3D('',#1066,#880,#881);
#714=AXIS2_PLACEMENT_3D('',#1067,#882,#883);
#715=AXIS2_PLACEMENT_3D('',#1068,#884,#885);
#716=AXIS2_PLACEMENT_3D('',#1071,#887,#888);
#717=AXIS2_PLACEMENT_3D('',#1072,#889,#890);
#718=DIRECTION('axis',(0.,0.,1.));
#719=DIRECTION('refdir',(1.,0.,0.));
#720=DIRECTION('center_axis',(-1.,0.,0.));
#721=DIRECTION('ref_axis',(0.,0.707106781186546,0.707106781186549));
#722=DIRECTION('center_axis',(1.,0.,0.));
#723=DIRECTION('ref_axis',(0.,0.707106781186546,0.707106781186549));
#724=DIRECTION('',(1.,0.,0.));
#725=DIRECTION('center_axis',(-1.,0.,0.));
#726=DIRECTION('ref_axis',(0.,0.707106781186546,0.707106781186549));
#727=DIRECTION('',(-1.,0.,0.));
#728=DIRECTION('center_axis',(-1.,0.,0.));
#729=DIRECTION('ref_axis',(0.,-1.,0.));
#730=DIRECTION('',(0.,0.,1.));
#731=DIRECTION('',(0.,-1.,0.));
#732=DIRECTION('',(0.,0.,1.));
#733=DIRECTION('',(0.,-1.,0.));
#734=DIRECTION('center_axis',(0.,1.,0.));
#735=DIRECTION('ref_axis',(-1.,0.,0.));
#736=DIRECTION('',(0.,0.,1.));
#737=DIRECTION('',(-1.,0.,0.));
#738=DIRECTION('center_axis',(1.,0.,0.));
#739=DIRECTION('ref_axis',(0.,-1.,0.));
#740=DIRECTION('',(0.,-1.,0.));
#741=DIRECTION('',(0.,0.,-1.));
#742=DIRECTION('',(0.,-1.,0.));
#743=DIRECTION('',(0.,0.,-1.));
#744=DIRECTION('center_axis',(0.,1.,0.));
#745=DIRECTION('ref_axis',(1.,0.,0.));
#746=DIRECTION('',(1.,0.,0.));
#747=DIRECTION('',(0.,0.,-1.));
#748=DIRECTION('',(1.,0.,0.));
#749=DIRECTION('center_axis',(-1.,0.,0.));
#750=DIRECTION('ref_axis',(0.,1.,0.));
#751=DIRECTION('',(0.,1.,0.));
#752=DIRECTION('',(0.,0.,-1.));
#753=DIRECTION('',(0.,1.,0.));
#754=DIRECTION('center_axis',(0.,-1.,0.));
#755=DIRECTION('ref_axis',(-1.,0.,0.));
#756=DIRECTION('',(-1.,0.,0.));
#757=DIRECTION('',(-1.,0.,0.));
#758=DIRECTION('center_axis',(0.,0.,-1.));
#759=DIRECTION('ref_axis',(-1.,0.,0.));
#760=DIRECTION('center_axis',(1.,0.,0.));
#761=DIRECTION('ref_axis',(0.,-1.,0.));
#762=DIRECTION('',(0.,-1.,0.));
#763=DIRECTION('',(0.,0.,-1.));
#764=DIRECTION('',(0.,-1.,0.));
#765=DIRECTION('',(0.,0.,-1.));
#766=DIRECTION('center_axis',(0.,1.,0.));
#767=DIRECTION('ref_axis',(1.,0.,0.));
#768=DIRECTION('',(1.,0.,0.));
#769=DIRECTION('',(0.,0.,-1.));
#770=DIRECTION('',(1.,0.,0.));
#771=DIRECTION('center_axis',(-1.,0.,0.));
#772=DIRECTION('ref_axis',(0.,1.,0.));
#773=DIRECTION('',(0.,1.,0.));
#774=DIRECTION('',(0.,0.,-1.));
#775=DIRECTION('',(0.,1.,0.));
#776=DIRECTION('center_axis',(0.,-1.,0.));
#777=DIRECTION('ref_axis',(-1.,0.,0.));
#778=DIRECTION('',(-1.,0.,0.));
#779=DIRECTION('',(-1.,0.,0.));
#780=DIRECTION('center_axis',(0.,0.,-1.));
#781=DIRECTION('ref_axis',(-1.,0.,0.));
#782=DIRECTION('center_axis',(1.,0.,0.));
#783=DIRECTION('ref_axis',(0.,-1.,0.));
#784=DIRECTION('',(0.,-1.,0.));
#785=DIRECTION('',(0.,0.,-1.));
#786=DIRECTION('',(0.,-1.,0.));
#787=DIRECTION('',(0.,0.,-1.));
#788=DIRECTION('center_axis',(0.,1.,0.));
#789=DIRECTION('ref_axis',(1.,0.,0.));
#790=DIRECTION('',(1.,0.,0.));
#791=DIRECTION('',(0.,0.,-1.));
#792=DIRECTION('',(1.,0.,0.));
#793=DIRECTION('center_axis',(-1.,0.,0.));
#794=DIRECTION('ref_axis',(0.,1.,0.));
#795=DIRECTION('',(0.,1.,0.));
#796=DIRECTION('',(0.,0.,-1.));
#797=DIRECTION('',(0.,1.,0.));
#798=DIRECTION('center_axis',(0.,-1.,0.));
#799=DIRECTION('ref_axis',(-1.,0.,0.));
#800=DIRECTION('',(-1.,0.,0.));
#801=DIRECTION('',(-1.,0.,0.));
#802=DIRECTION('center_axis',(0.,0.,-1.));
#803=DIRECTION('ref_axis',(-1.,0.,0.));
#804=DIRECTION('center_axis',(1.,0.,0.));
#805=DIRECTION('ref_axis',(0.,-1.,0.));
#806=DIRECTION('',(0.,-1.,0.));
#807=DIRECTION('',(0.,0.,-1.));
#808=DIRECTION('',(0.,-1.,0.));
#809=DIRECTION('',(0.,0.,-1.));
#810=DIRECTION('center_axis',(0.,1.,0.));
#811=DIRECTION('ref_axis',(1.,0.,0.));
#812=DIRECTION('',(1.,0.,0.));
#813=DIRECTION('',(0.,0.,-1.));
#814=DIRECTION('',(1.,0.,0.));
#815=DIRECTION('center_axis',(-1.,0.,0.));
#816=DIRECTION('ref_axis',(0.,1.,0.));
#817=DIRECTION('',(0.,1.,0.));
#818=DIRECTION('',(0.,0.,-1.));
#819=DIRECTION('',(0.,1.,0.));
#820=DIRECTION('center_axis',(0.,-1.,0.));
#821=DIRECTION('ref_axis',(-1.,0.,0.));
#822=DIRECTION('',(-1.,0.,0.));
#823=DIRECTION('',(-1.,0.,0.));
#824=DIRECTION('center_axis',(0.,0.,-1.));
#825=DIRECTION('ref_axis',(-1.,0.,0.));
#826=DIRECTION('center_axis',(1.,0.,0.));
#827=DIRECTION('ref_axis',(0.,-1.,0.));
#828=DIRECTION('',(0.,-1.,0.));
#829=DIRECTION('',(0.,0.,-1.));
#830=DIRECTION('',(0.,-1.,0.));
#831=DIRECTION('',(0.,0.,-1.));
#832=DIRECTION('center_axis',(0.,1.,0.));
#833=DIRECTION('ref_axis',(1.,0.,0.));
#834=DIRECTION('',(1.,0.,0.));
#835=DIRECTION('',(0.,0.,-1.));
#836=DIRECTION('',(1.,0.,0.));
#837=DIRECTION('center_axis',(-1.,0.,0.));
#838=DIRECTION('ref_axis',(0.,1.,0.));
#839=DIRECTION('',(0.,1.,0.));
#840=DIRECTION('',(0.,0.,-1.));
#841=DIRECTION('',(0.,1.,0.));
#842=DIRECTION('center_axis',(0.,-1.,0.));
#843=DIRECTION('ref_axis',(-1.,0.,0.));
#844=DIRECTION('',(-1.,0.,0.));
#845=DIRECTION('',(-1.,0.,0.));
#846=DIRECTION('center_axis',(0.,0.,-1.));
#847=DIRECTION('ref_axis',(-1.,0.,0.));
#848=DIRECTION('center_axis',(1.,0.,0.));
#849=DIRECTION('ref_axis',(0.,1.,0.));
#850=DIRECTION('',(0.,1.,0.));
#851=DIRECTION('',(0.,0.,1.));
#852=DIRECTION('',(0.,1.,0.));
#853=DIRECTION('center_axis',(0.,-1.,0.));
#854=DIRECTION('ref_axis',(1.,0.,0.));
#855=DIRECTION('',(1.,0.,0.));
#856=DIRECTION('',(1.,0.,0.));
#857=DIRECTION('center_axis',(0.,0.,1.));
#858=DIRECTION('ref_axis',(1.,0.,0.));
#859=DIRECTION('center_axis',(0.,0.,1.));
#860=DIRECTION('ref_axis',(1.,0.,0.));
#861=DIRECTION('center_axis',(0.,0.,1.));
#862=DIRECTION('ref_axis',(1.,0.,0.));
#863=DIRECTION('center_axis',(0.,0.,1.));
#864=DIRECTION('ref_axis',(-1.,0.,0.));
#865=DIRECTION('center_axis',(0.,-1.,0.));
#866=DIRECTION('ref_axis',(-1.,0.,0.));
#867=DIRECTION('center_axis',(0.,0.,1.));
#868=DIRECTION('ref_axis',(-1.,0.,0.));
#869=DIRECTION('center_axis',(0.,0.,1.));
#870=DIRECTION('ref_axis',(-1.,0.,0.));
#871=DIRECTION('',(0.,0.,-1.));
#872=DIRECTION('center_axis',(0.,0.,1.));
#873=DIRECTION('ref_axis',(-1.,0.,0.));
#874=DIRECTION('center_axis',(0.,0.,1.));
#875=DIRECTION('ref_axis',(-1.,0.,0.));
#876=DIRECTION('center_axis',(0.,0.,1.));
#877=DIRECTION('ref_axis',(1.,0.,0.));
#878=DIRECTION('center_axis',(0.,0.,1.));
#879=DIRECTION('ref_axis',(-1.,0.,0.));
#880=DIRECTION('center_axis',(0.,-1.,0.));
#881=DIRECTION('ref_axis',(-1.,0.,0.));
#882=DIRECTION('center_axis',(0.,0.,1.));
#883=DIRECTION('ref_axis',(-1.,0.,0.));
#884=DIRECTION('center_axis',(0.,0.,1.));
#885=DIRECTION('ref_axis',(-1.,0.,0.));
#886=DIRECTION('',(0.,0.,-1.));
#887=DIRECTION('center_axis',(0.,0.,1.));
#888=DIRECTION('ref_axis',(-1.,0.,0.));
#889=DIRECTION('center_axis',(0.,0.,1.));
#890=DIRECTION('ref_axis',(-1.,0.,0.));
#891=CARTESIAN_POINT('',(0.,0.,0.));
#892=CARTESIAN_POINT('Origin',(26.25,49.,19.));
#893=CARTESIAN_POINT('',(0.,50.,19.));
#894=CARTESIAN_POINT('',(0.,49.,20.));
#895=CARTESIAN_POINT('Origin',(0.,49.,19.));
#896=CARTESIAN_POINT('',(35.,49.,20.));
#897=CARTESIAN_POINT('',(26.25,49.,20.));
#898=CARTESIAN_POINT('',(35.,50.,19.));
#899=CARTESIAN_POINT('Origin',(35.,49.,19.));
#900=CARTESIAN_POINT('',(26.25,50.,19.));
#901=CARTESIAN_POINT('Origin',(0.,50.,0.));
#902=CARTESIAN_POINT('',(0.,50.,0.));
#903=CARTESIAN_POINT('',(0.,50.,0.));
#904=CARTESIAN_POINT('',(0.,0.,0.));
#905=CARTESIAN_POINT('',(0.,50.,0.));
#906=CARTESIAN_POINT('',(0.,0.,20.));
#907=CARTESIAN_POINT('',(0.,0.,0.));
#908=CARTESIAN_POINT('',(0.,50.,20.));
#909=CARTESIAN_POINT('Origin',(35.,50.,0.));
#910=CARTESIAN_POINT('',(35.,50.,0.));
#911=CARTESIAN_POINT('',(35.,50.,0.));
#912=CARTESIAN_POINT('',(35.,50.,0.));
#913=CARTESIAN_POINT('Origin',(32.0000004768372,22.0000003278255,20.));
#914=CARTESIAN_POINT('',(32.0000004768372,22.0000003278255,20.));
#915=CARTESIAN_POINT('',(32.0000004768372,4.00000005960464,20.));
#916=CARTESIAN_POINT('',(32.0000004768372,23.5000001639128,20.));
#917=CARTESIAN_POINT('',(32.0000004768372,22.0000003278255,19.7));
#918=CARTESIAN_POINT('',(32.0000004768372,22.0000003278255,20.));
#919=CARTESIAN_POINT('',(32.0000004768372,4.00000005960464,19.7));
#920=CARTESIAN_POINT('',(32.0000004768372,22.0000003278255,19.7));
#921=CARTESIAN_POINT('',(32.0000004768372,4.00000005960464,20.));
#922=CARTESIAN_POINT('Origin',(19.0000002831221,22.0000003278255,20.));
#923=CARTESIAN_POINT('',(19.0000002831221,22.0000003278255,20.));
#924=CARTESIAN_POINT('',(18.250000141561,22.0000003278255,20.));
#925=CARTESIAN_POINT('',(19.0000002831221,22.0000003278255,19.7));
#926=CARTESIAN_POINT('',(19.0000002831221,22.0000003278255,20.));
#927=CARTESIAN_POINT('',(19.0000002831221,22.0000003278255,19.7));
#928=CARTESIAN_POINT('Origin',(19.0000002831221,4.00000005960464,20.));
#929=CARTESIAN_POINT('',(19.0000002831221,4.00000005960464,20.));
#930=CARTESIAN_POINT('',(19.0000002831221,14.5000000298023,20.));
#931=CARTESIAN_POINT('',(19.0000002831221,4.00000005960464,19.7));
#932=CARTESIAN_POINT('',(19.0000002831221,4.00000005960464,20.));
#933=CARTESIAN_POINT('',(19.0000002831221,4.00000005960464,19.7));
#934=CARTESIAN_POINT('Origin',(32.0000004768372,4.00000005960464,20.));
#935=CARTESIAN_POINT('',(24.7500002384186,4.00000005960464,20.));
#936=CARTESIAN_POINT('',(32.0000004768372,4.00000005960464,19.7));
#937=CARTESIAN_POINT('Origin',(25.5000003799796,13.0000001937151,19.7));
#938=CARTESIAN_POINT('Origin',(16.4045930811885,22.0000003278255,20.));
#939=CARTESIAN_POINT('',(16.4045930811885,22.0000003278255,20.));
#940=CARTESIAN_POINT('',(16.4045930811885,4.01239864011842,20.));
#941=CARTESIAN_POINT('',(16.4045930811885,23.5000001639128,20.));
#942=CARTESIAN_POINT('',(16.4045930811885,22.0000003278255,19.7));
#943=CARTESIAN_POINT('',(16.4045930811885,22.0000003278255,20.));
#944=CARTESIAN_POINT('',(16.4045930811885,4.01239864011842,19.7));
#945=CARTESIAN_POINT('',(16.4045930811885,22.0000003278255,19.7));
#946=CARTESIAN_POINT('',(16.4045930811885,4.01239864011842,20.));
#947=CARTESIAN_POINT('Origin',(3.00000004470348,22.0000003278255,20.));
#948=CARTESIAN_POINT('',(3.00000004470348,22.0000003278255,20.));
#949=CARTESIAN_POINT('',(10.2500000223517,22.0000003278255,20.));
#950=CARTESIAN_POINT('',(3.00000004470348,22.0000003278255,19.7));
#951=CARTESIAN_POINT('',(3.00000004470348,22.0000003278255,20.));
#952=CARTESIAN_POINT('',(3.00000004470348,22.0000003278255,19.7));
#953=CARTESIAN_POINT('Origin',(3.00000004470348,4.01239864011842,20.));
#954=CARTESIAN_POINT('',(3.00000004470348,4.01239864011842,20.));
#955=CARTESIAN_POINT('',(3.00000004470348,14.5061993200592,20.));
#956=CARTESIAN_POINT('',(3.00000004470348,4.01239864011842,19.7));
#957=CARTESIAN_POINT('',(3.00000004470348,4.01239864011842,20.));
#958=CARTESIAN_POINT('',(3.00000004470348,4.01239864011842,19.7));
#959=CARTESIAN_POINT('Origin',(16.4045930811885,4.01239864011842,20.));
#960=CARTESIAN_POINT('',(16.9522965405942,4.01239864011842,20.));
#961=CARTESIAN_POINT('',(16.4045930811885,4.01239864011842,19.7));
#962=CARTESIAN_POINT('Origin',(9.70229656294597,13.006199483972,19.7));
#963=CARTESIAN_POINT('Origin',(33.,47.3772592231296,20.));
#964=CARTESIAN_POINT('',(33.,47.3772592231296,20.));
#965=CARTESIAN_POINT('',(33.,41.3772592231296,20.));
#966=CARTESIAN_POINT('',(33.,36.1886296115648,20.));
#967=CARTESIAN_POINT('',(33.,47.3772592231296,3.));
#968=CARTESIAN_POINT('',(33.,47.3772592231296,20.));
#969=CARTESIAN_POINT('',(33.,41.3772592231296,3.));
#970=CARTESIAN_POINT('',(33.,47.3772592231296,3.));
#971=CARTESIAN_POINT('',(33.,41.3772592231296,20.));
#972=CARTESIAN_POINT('Origin',(2.,47.3772592231296,20.));
#973=CARTESIAN_POINT('',(2.,47.3772592231296,20.));
#974=CARTESIAN_POINT('',(9.75,47.3772592231296,20.));
#975=CARTESIAN_POINT('',(2.,47.3772592231296,3.));
#976=CARTESIAN_POINT('',(2.,47.3772592231296,20.));
#977=CARTESIAN_POINT('',(2.,47.3772592231296,3.));
#978=CARTESIAN_POINT('Origin',(2.,41.3772592231296,20.));
#979=CARTESIAN_POINT('',(2.,41.3772592231296,20.));
#980=CARTESIAN_POINT('',(2.,33.1886296115648,20.));
#981=CARTESIAN_POINT('',(2.,41.3772592231296,3.));
#982=CARTESIAN_POINT('',(2.,41.3772592231296,20.));
#983=CARTESIAN_POINT('',(2.,41.3772592231296,3.));
#984=CARTESIAN_POINT('Origin',(33.,41.3772592231296,20.));
#985=CARTESIAN_POINT('',(25.25,41.3772592231296,20.));
#986=CARTESIAN_POINT('',(33.,41.3772592231296,3.));
#987=CARTESIAN_POINT('Origin',(17.5,44.3772592231296,3.));
#988=CARTESIAN_POINT('Origin',(33.,39.8772592231296,20.));
#989=CARTESIAN_POINT('',(33.,39.8772592231296,20.));
#990=CARTESIAN_POINT('',(33.,33.8772592231296,20.));
#991=CARTESIAN_POINT('',(33.,32.4386296115648,20.));
#992=CARTESIAN_POINT('',(33.,39.8772592231296,3.));
#993=CARTESIAN_POINT('',(33.,39.8772592231296,20.));
#994=CARTESIAN_POINT('',(33.,33.8772592231296,3.));
#995=CARTESIAN_POINT('',(33.,39.8772592231296,3.));
#996=CARTESIAN_POINT('',(33.,33.8772592231296,20.));
#997=CARTESIAN_POINT('Origin',(2.,39.8772592231296,20.));
#998=CARTESIAN_POINT('',(2.,39.8772592231296,20.));
#999=CARTESIAN_POINT('',(9.75,39.8772592231296,20.));
#1000=CARTESIAN_POINT('',(2.,39.8772592231296,3.));
#1001=CARTESIAN_POINT('',(2.,39.8772592231296,20.));
#1002=CARTESIAN_POINT('',(2.,39.8772592231296,3.));
#1003=CARTESIAN_POINT('Origin',(2.,33.8772592231296,20.));
#1004=CARTESIAN_POINT('',(2.,33.8772592231296,20.));
#1005=CARTESIAN_POINT('',(2.,29.4386296115648,20.));
#1006=CARTESIAN_POINT('',(2.,33.8772592231296,3.));
#1007=CARTESIAN_POINT('',(2.,33.8772592231296,20.));
#1008=CARTESIAN_POINT('',(2.,33.8772592231296,3.));
#1009=CARTESIAN_POINT('Origin',(33.,33.8772592231296,20.));
#1010=CARTESIAN_POINT('',(25.25,33.8772592231296,20.));
#1011=CARTESIAN_POINT('',(33.,33.8772592231296,3.));
#1012=CARTESIAN_POINT('Origin',(17.5,36.8772592231296,3.));
#1013=CARTESIAN_POINT('Origin',(33.,32.3772592231296,20.));
#1014=CARTESIAN_POINT('',(33.,32.3772592231296,20.));
#1015=CARTESIAN_POINT('',(33.,26.3772592231296,20.));
#1016=CARTESIAN_POINT('',(33.,28.6886296115648,20.));
#1017=CARTESIAN_POINT('',(33.,32.3772592231296,3.));
#1018=CARTESIAN_POINT('',(33.,32.3772592231296,20.));
#1019=CARTESIAN_POINT('',(33.,26.3772592231296,3.));
#1020=CARTESIAN_POINT('',(33.,32.3772592231296,3.));
#1021=CARTESIAN_POINT('',(33.,26.3772592231296,20.));
#1022=CARTESIAN_POINT('Origin',(2.,32.3772592231296,20.));
#1023=CARTESIAN_POINT('',(2.,32.3772592231296,20.));
#1024=CARTESIAN_POINT('',(9.75,32.3772592231296,20.));
#1025=CARTESIAN_POINT('',(2.,32.3772592231296,3.));
#1026=CARTESIAN_POINT('',(2.,32.3772592231296,20.));
#1027=CARTESIAN_POINT('',(2.,32.3772592231296,3.));
#1028=CARTESIAN_POINT('Origin',(2.,26.3772592231296,20.));
#1029=CARTESIAN_POINT('',(2.,26.3772592231296,20.));
#1030=CARTESIAN_POINT('',(2.,25.6886296115648,20.));
#1031=CARTESIAN_POINT('',(2.,26.3772592231296,3.));
#1032=CARTESIAN_POINT('',(2.,26.3772592231296,20.));
#1033=CARTESIAN_POINT('',(2.,26.3772592231296,3.));
#1034=CARTESIAN_POINT('Origin',(33.,26.3772592231296,20.));
#1035=CARTESIAN_POINT('',(25.25,26.3772592231296,20.));
#1036=CARTESIAN_POINT('',(33.,26.3772592231296,3.));
#1037=CARTESIAN_POINT('Origin',(17.5,29.3772592231296,3.));
#1038=CARTESIAN_POINT('Origin',(35.,0.,0.));
#1039=CARTESIAN_POINT('',(35.,0.,20.));
#1040=CARTESIAN_POINT('',(35.,0.,20.));
#1041=CARTESIAN_POINT('',(35.,0.,0.));
#1042=CARTESIAN_POINT('',(35.,0.,0.));
#1043=CARTESIAN_POINT('',(35.,0.,0.));
#1044=CARTESIAN_POINT('Origin',(0.,0.,0.));
#1045=CARTESIAN_POINT('',(0.,0.,0.));
#1046=CARTESIAN_POINT('',(0.,0.,20.));
#1047=CARTESIAN_POINT('Origin',(17.5,25.,20.));
#1048=CARTESIAN_POINT('Origin',(17.5,25.,0.));
#1049=CARTESIAN_POINT('Origin',(14.0000002086163,13.0000001937151,20.2));
#1050=CARTESIAN_POINT('',(15.0000002086163,13.0000001937151,20.2));
#1051=CARTESIAN_POINT('',(13.0000002086163,13.0000001937151,20.2));
#1052=CARTESIAN_POINT('Origin',(14.0000002086163,13.0000001937151,20.2));
#1053=CARTESIAN_POINT('',(14.0000002086163,13.0000001937151,21.2));
#1054=CARTESIAN_POINT('Origin',(14.0000002086163,13.0000001937151,20.2));
#1055=CARTESIAN_POINT('Origin',(14.0000002086163,13.0000001937151,20.2));
#1056=CARTESIAN_POINT('Origin',(14.0000002086163,13.0000001937151,20.));
#1057=CARTESIAN_POINT('',(15.0000002086163,13.0000001937151,20.));
#1058=CARTESIAN_POINT('',(15.0000002086163,13.0000001937151,20.));
#1059=CARTESIAN_POINT('Origin',(14.0000002086163,13.0000001937151,20.));
#1060=CARTESIAN_POINT('Origin',(14.0000002086163,13.0000001937151,20.));
#1061=CARTESIAN_POINT('Origin',(21.0000003129244,13.0000001937151,20.2));
#1062=CARTESIAN_POINT('',(22.0000003129244,13.0000001937151,20.2));
#1063=CARTESIAN_POINT('',(20.0000003129244,13.0000001937151,20.2));
#1064=CARTESIAN_POINT('Origin',(21.0000003129244,13.0000001937151,20.2));
#1065=CARTESIAN_POINT('',(21.0000003129244,13.0000001937151,21.2));
#1066=CARTESIAN_POINT('Origin',(21.0000003129244,13.0000001937151,20.2));
#1067=CARTESIAN_POINT('Origin',(21.0000003129244,13.0000001937151,20.2));
#1068=CARTESIAN_POINT('Origin',(21.0000003129244,13.0000001937151,20.));
#1069=CARTESIAN_POINT('',(22.0000003129244,13.0000001937151,20.));
#1070=CARTESIAN_POINT('',(22.0000003129244,13.0000001937151,20.));
#1071=CARTESIAN_POINT('Origin',(21.0000003129244,13.0000001937151,20.));
#1072=CARTESIAN_POINT('Origin',(21.0000003129244,13.0000001937151,20.));
#1073=UNCERTAINTY_MEASURE_WITH_UNIT(LENGTH_MEASURE(0.01),#1077,
'DISTANCE_ACCURACY_VALUE',
'Maximum model space distance between geometric entities at asserted c
onnectivities');
#1074=UNCERTAINTY_MEASURE_WITH_UNIT(LENGTH_MEASURE(0.01),#1077,
'DISTANCE_ACCURACY_VALUE',
'Maximum model space distance between geometric entities at asserted c
onnectivities');
#1075=(
GEOMETRIC_REPRESENTATION_CONTEXT(3)
GLOBAL_UNCERTAINTY_ASSIGNED_CONTEXT((#1073))
GLOBAL_UNIT_ASSIGNED_CONTEXT((#1077,#1079,#1080))
REPRESENTATION_CONTEXT('','3D')
);
#1076=(
GEOMETRIC_REPRESENTATION_CONTEXT(3)
GLOBAL_UNCERTAINTY_ASSIGNED_CONTEXT((#1074))
GLOBAL_UNIT_ASSIGNED_CONTEXT((#1077,#1079,#1080))
REPRESENTATION_CONTEXT('','3D')
);
#1077=(
LENGTH_UNIT()
NAMED_UNIT(*)
SI_UNIT(.MILLI.,.METRE.)
);
#1078=(
LENGTH_UNIT()
NAMED_UNIT(*)
SI_UNIT($,.METRE.)
);
#1079=(
NAMED_UNIT(*)
PLANE_ANGLE_UNIT()
SI_UNIT($,.RADIAN.)
);
#1080=(
NAMED_UNIT(*)
SI_UNIT($,.STERADIAN.)
SOLID_ANGLE_UNIT()
);
#1081=SHAPE_DEFINITION_REPRESENTATION(#1082,#1083);
#1082=PRODUCT_DEFINITION_SHAPE('',$,#1085);
#1083=SHAPE_REPRESENTATION('',(#669),#1075);
#1084=PRODUCT_DEFINITION_CONTEXT('part definition',#1089,'design');
#1085=PRODUCT_DEFINITION('2026-09-08-20-26-56-898','Cupboard',#1086,#1084);
#1086=PRODUCT_DEFINITION_FORMATION('',$,#1091);
#1087=PRODUCT_RELATED_PRODUCT_CATEGORY('Cupboard','Cupboard',(#1091));
#1088=APPLICATION_PROTOCOL_DEFINITION('international standard',
'automotive_design',2009,#1089);
#1089=APPLICATION_CONTEXT(
'Core Data for Automotive Mechanical Design Process');
#1090=PRODUCT_CONTEXT('part definition',#1089,'mechanical');
#1091=PRODUCT('2026-09-08-20-26-56-898','Cupboard',$,(#1090));
#1092=PRESENTATION_STYLE_ASSIGNMENT((#1093));
#1093=SURFACE_STYLE_USAGE(.BOTH.,#1094);
#1094=SURFACE_SIDE_STYLE('',(#1095));
#1095=SURFACE_STYLE_FILL_AREA(#1096);
#1096=FILL_AREA_STYLE('Steel - Satin',(#1097));
#1097=FILL_AREA_STYLE_COLOUR('Steel - Satin',#1098);
#1098=COLOUR_RGB('Steel - Satin',0.627450980392157,0.627450980392157,0.627450980392157);
ENDSEC;
END-ISO-10303-21;
