ISO-10303-21;
HEADER;
/* Generated by software containing ST-Developer
 * from STEP Tools, Inc. (www.steptools.com) 
 */

FILE_DESCRIPTION(
/* description */ (''),
/* implementation_level */ '2;1');

FILE_NAME(
/* name */ 'Table.step',
/* time_stamp */ '2026-09-09T16:06:04+05:30',
/* author */ (''),
/* organization */ (''),
/* preprocessor_version */ 'ST-DEVELOPER v20.2',
/* originating_system */ 'Autodesk Translation Framework v15.15.0.0',
/* authorisation */ '');

FILE_SCHEMA (('AUTOMOTIVE_DESIGN { 1 0 10303 214 3 1 1 }'));
ENDSEC;

DATA;
#10=MECHANICAL_DESIGN_GEOMETRIC_PRESENTATION_REPRESENTATION('',(#13),#228);
#11=SHAPE_REPRESENTATION_RELATIONSHIP('SRR','None',#235,#12);
#12=ADVANCED_BREP_SHAPE_REPRESENTATION('',(#14),#227);
#13=STYLED_ITEM('',(#244),#14);
#14=MANIFOLD_SOLID_BREP('Body1',#117);
#15=FACE_BOUND('',#39,.T.);
#16=PLANE('',#138);
#17=PLANE('',#146);
#18=PLANE('',#149);
#19=LINE('',#205,#22);
#20=LINE('',#218,#23);
#21=LINE('',#222,#24);
#22=VECTOR('',#166,2.);
#23=VECTOR('',#183,5.);
#24=VECTOR('',#188,12.5);
#25=CYLINDRICAL_SURFACE('',#135,2.);
#26=CYLINDRICAL_SURFACE('',#144,5.);
#27=CYLINDRICAL_SURFACE('',#147,12.5);
#28=FACE_OUTER_BOUND('',#36,.T.);
#29=FACE_OUTER_BOUND('',#37,.T.);
#30=FACE_OUTER_BOUND('',#38,.T.);
#31=FACE_OUTER_BOUND('',#40,.T.);
#32=FACE_OUTER_BOUND('',#41,.T.);
#33=FACE_OUTER_BOUND('',#42,.T.);
#34=FACE_OUTER_BOUND('',#43,.T.);
#35=FACE_OUTER_BOUND('',#44,.T.);
#36=EDGE_LOOP('',(#79,#80,#81,#82));
#37=EDGE_LOOP('',(#83,#84,#85,#86,#87));
#38=EDGE_LOOP('',(#88));
#39=EDGE_LOOP('',(#89));
#40=EDGE_LOOP('',(#90,#91,#92,#93,#94,#95));
#41=EDGE_LOOP('',(#96,#97,#98,#99,#100));
#42=EDGE_LOOP('',(#101));
#43=EDGE_LOOP('',(#102,#103,#104,#105));
#44=EDGE_LOOP('',(#106));
#45=CIRCLE('',#132,2.);
#46=CIRCLE('',#133,4.5);
#47=CIRCLE('',#134,6.5);
#48=CIRCLE('',#136,2.);
#49=CIRCLE('',#137,2.);
#50=CIRCLE('',#139,12.5);
#51=CIRCLE('',#141,4.5);
#52=CIRCLE('',#142,5.);
#53=CIRCLE('',#143,5.);
#54=CIRCLE('',#145,5.);
#55=CIRCLE('',#148,12.5);
#56=VERTEX_POINT('',#195);
#57=VERTEX_POINT('',#197);
#58=VERTEX_POINT('',#201);
#59=VERTEX_POINT('',#202);
#60=VERTEX_POINT('',#207);
#61=VERTEX_POINT('',#210);
#62=VERTEX_POINT('',#212);
#63=VERTEX_POINT('',#216);
#64=VERTEX_POINT('',#221);
#65=EDGE_CURVE('',#56,#56,#45,.T.);
#66=EDGE_CURVE('',#56,#57,#46,.T.);
#67=EDGE_CURVE('',#57,#57,#47,.T.);
#68=EDGE_CURVE('',#58,#59,#48,.T.);
#69=EDGE_CURVE('',#59,#58,#49,.T.);
#70=EDGE_CURVE('',#59,#56,#19,.T.);
#71=EDGE_CURVE('',#60,#60,#50,.T.);
#72=EDGE_CURVE('',#58,#61,#51,.T.);
#73=EDGE_CURVE('',#62,#61,#52,.T.);
#74=EDGE_CURVE('',#61,#62,#53,.T.);
#75=EDGE_CURVE('',#63,#63,#54,.T.);
#76=EDGE_CURVE('',#63,#62,#20,.T.);
#77=EDGE_CURVE('',#60,#64,#21,.T.);
#78=EDGE_CURVE('',#64,#64,#55,.T.);
#79=ORIENTED_EDGE('',*,*,#65,.T.);
#80=ORIENTED_EDGE('',*,*,#66,.T.);
#81=ORIENTED_EDGE('',*,*,#67,.T.);
#82=ORIENTED_EDGE('',*,*,#66,.F.);
#83=ORIENTED_EDGE('',*,*,#68,.F.);
#84=ORIENTED_EDGE('',*,*,#69,.F.);
#85=ORIENTED_EDGE('',*,*,#70,.T.);
#86=ORIENTED_EDGE('',*,*,#65,.F.);
#87=ORIENTED_EDGE('',*,*,#70,.F.);
#88=ORIENTED_EDGE('',*,*,#71,.T.);
#89=ORIENTED_EDGE('',*,*,#67,.F.);
#90=ORIENTED_EDGE('',*,*,#68,.T.);
#91=ORIENTED_EDGE('',*,*,#69,.T.);
#92=ORIENTED_EDGE('',*,*,#72,.T.);
#93=ORIENTED_EDGE('',*,*,#73,.F.);
#94=ORIENTED_EDGE('',*,*,#74,.F.);
#95=ORIENTED_EDGE('',*,*,#72,.F.);
#96=ORIENTED_EDGE('',*,*,#75,.F.);
#97=ORIENTED_EDGE('',*,*,#76,.T.);
#98=ORIENTED_EDGE('',*,*,#73,.T.);
#99=ORIENTED_EDGE('',*,*,#74,.T.);
#100=ORIENTED_EDGE('',*,*,#76,.F.);
#101=ORIENTED_EDGE('',*,*,#75,.T.);
#102=ORIENTED_EDGE('',*,*,#71,.F.);
#103=ORIENTED_EDGE('',*,*,#77,.T.);
#104=ORIENTED_EDGE('',*,*,#78,.T.);
#105=ORIENTED_EDGE('',*,*,#77,.F.);
#106=ORIENTED_EDGE('',*,*,#78,.F.);
#107=TOROIDAL_SURFACE('',#131,6.5,4.5);
#108=TOROIDAL_SURFACE('',#140,6.5,4.5);
#109=ADVANCED_FACE('',(#28),#107,.F.);
#110=ADVANCED_FACE('',(#29),#25,.T.);
#111=ADVANCED_FACE('',(#30,#15),#16,.T.);
#112=ADVANCED_FACE('',(#31),#108,.F.);
#113=ADVANCED_FACE('',(#32),#26,.T.);
#114=ADVANCED_FACE('',(#33),#17,.T.);
#115=ADVANCED_FACE('',(#34),#27,.T.);
#116=ADVANCED_FACE('',(#35),#18,.F.);
#117=CLOSED_SHELL('',(#109,#110,#111,#112,#113,#114,#115,#116));
#118=DERIVED_UNIT_ELEMENT(#120,1.);
#119=DERIVED_UNIT_ELEMENT(#230,-3.);
#120=(
MASS_UNIT()
NAMED_UNIT(*)
SI_UNIT(.KILO.,.GRAM.)
);
#121=DERIVED_UNIT((#118,#119));
#122=MEASURE_REPRESENTATION_ITEM('density measure',
POSITIVE_RATIO_MEASURE(7850.),#121);
#123=PROPERTY_DEFINITION_REPRESENTATION(#128,#125);
#124=PROPERTY_DEFINITION_REPRESENTATION(#129,#126);
#125=REPRESENTATION('material name',(#127),#227);
#126=REPRESENTATION('density',(#122),#227);
#127=DESCRIPTIVE_REPRESENTATION_ITEM('Steel','Steel');
#128=PROPERTY_DEFINITION('material property','material name',#237);
#129=PROPERTY_DEFINITION('material property','density of part',#237);
#130=AXIS2_PLACEMENT_3D('',#193,#150,#151);
#131=AXIS2_PLACEMENT_3D('',#194,#152,#153);
#132=AXIS2_PLACEMENT_3D('',#196,#154,#155);
#133=AXIS2_PLACEMENT_3D('',#198,#156,#157);
#134=AXIS2_PLACEMENT_3D('',#199,#158,#159);
#135=AXIS2_PLACEMENT_3D('',#200,#160,#161);
#136=AXIS2_PLACEMENT_3D('',#203,#162,#163);
#137=AXIS2_PLACEMENT_3D('',#204,#164,#165);
#138=AXIS2_PLACEMENT_3D('',#206,#167,#168);
#139=AXIS2_PLACEMENT_3D('',#208,#169,#170);
#140=AXIS2_PLACEMENT_3D('',#209,#171,#172);
#141=AXIS2_PLACEMENT_3D('',#211,#173,#174);
#142=AXIS2_PLACEMENT_3D('',#213,#175,#176);
#143=AXIS2_PLACEMENT_3D('',#214,#177,#178);
#144=AXIS2_PLACEMENT_3D('',#215,#179,#180);
#145=AXIS2_PLACEMENT_3D('',#217,#181,#182);
#146=AXIS2_PLACEMENT_3D('',#219,#184,#185);
#147=AXIS2_PLACEMENT_3D('',#220,#186,#187);
#148=AXIS2_PLACEMENT_3D('',#223,#189,#190);
#149=AXIS2_PLACEMENT_3D('',#224,#191,#192);
#150=DIRECTION('axis',(0.,0.,1.));
#151=DIRECTION('refdir',(1.,0.,0.));
#152=DIRECTION('center_axis',(0.,0.,-1.));
#153=DIRECTION('ref_axis',(-1.,0.,0.));
#154=DIRECTION('center_axis',(0.,0.,-1.));
#155=DIRECTION('ref_axis',(-1.,0.,0.));
#156=DIRECTION('center_axis',(-1.22464679914735E-16,-1.,0.));
#157=DIRECTION('ref_axis',(1.,-1.22464679914735E-16,0.));
#158=DIRECTION('center_axis',(0.,0.,1.));
#159=DIRECTION('ref_axis',(-1.,0.,0.));
#160=DIRECTION('center_axis',(0.,0.,1.));
#161=DIRECTION('ref_axis',(-1.,0.,0.));
#162=DIRECTION('center_axis',(0.,0.,1.));
#163=DIRECTION('ref_axis',(1.,0.,0.));
#164=DIRECTION('center_axis',(0.,0.,1.));
#165=DIRECTION('ref_axis',(1.,0.,0.));
#166=DIRECTION('',(0.,0.,-1.));
#167=DIRECTION('center_axis',(0.,0.,1.));
#168=DIRECTION('ref_axis',(1.,0.,0.));
#169=DIRECTION('center_axis',(0.,0.,1.));
#170=DIRECTION('ref_axis',(1.,0.,0.));
#171=DIRECTION('center_axis',(0.,0.,1.));
#172=DIRECTION('ref_axis',(1.,0.,0.));
#173=DIRECTION('center_axis',(1.22464679914735E-16,-1.,0.));
#174=DIRECTION('ref_axis',(-1.,-1.22464679914735E-16,0.));
#175=DIRECTION('center_axis',(0.,0.,1.));
#176=DIRECTION('ref_axis',(-1.,0.,0.));
#177=DIRECTION('center_axis',(0.,0.,1.));
#178=DIRECTION('ref_axis',(-1.,0.,0.));
#179=DIRECTION('center_axis',(0.,0.,1.));
#180=DIRECTION('ref_axis',(-1.,0.,0.));
#181=DIRECTION('center_axis',(0.,0.,1.));
#182=DIRECTION('ref_axis',(-1.,0.,0.));
#183=DIRECTION('',(0.,0.,-1.));
#184=DIRECTION('center_axis',(0.,0.,1.));
#185=DIRECTION('ref_axis',(-1.,0.,0.));
#186=DIRECTION('center_axis',(0.,0.,1.));
#187=DIRECTION('ref_axis',(1.,0.,0.));
#188=DIRECTION('',(0.,0.,-1.));
#189=DIRECTION('center_axis',(0.,0.,1.));
#190=DIRECTION('ref_axis',(1.,0.,0.));
#191=DIRECTION('center_axis',(0.,0.,1.));
#192=DIRECTION('ref_axis',(1.,0.,0.));
#193=CARTESIAN_POINT('',(0.,0.,0.));
#194=CARTESIAN_POINT('Origin',(0.,0.,8.5));
#195=CARTESIAN_POINT('',(2.,-2.44929359829471E-16,8.5));
#196=CARTESIAN_POINT('Origin',(0.,0.,8.5));
#197=CARTESIAN_POINT('',(6.5,7.9602041944578E-16,4.));
#198=CARTESIAN_POINT('Origin',(6.5,-7.9602041944578E-16,8.5));
#199=CARTESIAN_POINT('Origin',(0.,0.,4.));
#200=CARTESIAN_POINT('Origin',(0.,0.,4.));
#201=CARTESIAN_POINT('',(-2.,-2.44929359829471E-16,19.7573593128807));
#202=CARTESIAN_POINT('',(2.,2.44929359829471E-16,19.7573593128807));
#203=CARTESIAN_POINT('Origin',(0.,0.,19.7573593128807));
#204=CARTESIAN_POINT('Origin',(0.,0.,19.7573593128807));
#205=CARTESIAN_POINT('',(2.,2.44929359829471E-16,4.));
#206=CARTESIAN_POINT('Origin',(0.,0.,4.));
#207=CARTESIAN_POINT('',(-12.5,-1.53080849893419E-15,4.));
#208=CARTESIAN_POINT('Origin',(0.,0.,4.));
#209=CARTESIAN_POINT('Origin',(0.,0.,19.7573593128807));
#210=CARTESIAN_POINT('',(-5.,-6.12323399573677E-16,24.));
#211=CARTESIAN_POINT('Origin',(-6.5,-7.9602041944578E-16,19.7573593128807));
#212=CARTESIAN_POINT('',(5.,6.12323399573677E-16,24.));
#213=CARTESIAN_POINT('Origin',(0.,0.,24.));
#214=CARTESIAN_POINT('Origin',(0.,0.,24.));
#215=CARTESIAN_POINT('Origin',(0.,0.,24.));
#216=CARTESIAN_POINT('',(5.,6.12323399573677E-16,26.));
#217=CARTESIAN_POINT('Origin',(0.,0.,26.));
#218=CARTESIAN_POINT('',(5.,6.12323399573677E-16,24.));
#219=CARTESIAN_POINT('Origin',(0.,0.,26.));
#220=CARTESIAN_POINT('Origin',(0.,0.,0.));
#221=CARTESIAN_POINT('',(-12.5,-1.53080849893419E-15,0.));
#222=CARTESIAN_POINT('',(-12.5,-1.53080849893419E-15,0.));
#223=CARTESIAN_POINT('Origin',(0.,0.,0.));
#224=CARTESIAN_POINT('Origin',(0.,0.,0.));
#225=UNCERTAINTY_MEASURE_WITH_UNIT(LENGTH_MEASURE(0.01),#229,
'DISTANCE_ACCURACY_VALUE',
'Maximum model space distance between geometric entities at asserted c
onnectivities');
#226=UNCERTAINTY_MEASURE_WITH_UNIT(LENGTH_MEASURE(0.01),#229,
'DISTANCE_ACCURACY_VALUE',
'Maximum model space distance between geometric entities at asserted c
onnectivities');
#227=(
GEOMETRIC_REPRESENTATION_CONTEXT(3)
GLOBAL_UNCERTAINTY_ASSIGNED_CONTEXT((#225))
GLOBAL_UNIT_ASSIGNED_CONTEXT((#229,#231,#232))
REPRESENTATION_CONTEXT('','3D')
);
#228=(
GEOMETRIC_REPRESENTATION_CONTEXT(3)
GLOBAL_UNCERTAINTY_ASSIGNED_CONTEXT((#226))
GLOBAL_UNIT_ASSIGNED_CONTEXT((#229,#231,#232))
REPRESENTATION_CONTEXT('','3D')
);
#229=(
LENGTH_UNIT()
NAMED_UNIT(*)
SI_UNIT(.MILLI.,.METRE.)
);
#230=(
LENGTH_UNIT()
NAMED_UNIT(*)
SI_UNIT($,.METRE.)
);
#231=(
NAMED_UNIT(*)
PLANE_ANGLE_UNIT()
SI_UNIT($,.RADIAN.)
);
#232=(
NAMED_UNIT(*)
SI_UNIT($,.STERADIAN.)
SOLID_ANGLE_UNIT()
);
#233=SHAPE_DEFINITION_REPRESENTATION(#234,#235);
#234=PRODUCT_DEFINITION_SHAPE('',$,#237);
#235=SHAPE_REPRESENTATION('',(#130),#227);
#236=PRODUCT_DEFINITION_CONTEXT('part definition',#241,'design');
#237=PRODUCT_DEFINITION('2026-09-05-11-31-25-269','Table',#238,#236);
#238=PRODUCT_DEFINITION_FORMATION('',$,#243);
#239=PRODUCT_RELATED_PRODUCT_CATEGORY('Table','Table',(#243));
#240=APPLICATION_PROTOCOL_DEFINITION('international standard',
'automotive_design',2009,#241);
#241=APPLICATION_CONTEXT(
'Core Data for Automotive Mechanical Design Process');
#242=PRODUCT_CONTEXT('part definition',#241,'mechanical');
#243=PRODUCT('2026-09-05-11-31-25-269','Table',$,(#242));
#244=PRESENTATION_STYLE_ASSIGNMENT((#245));
#245=SURFACE_STYLE_USAGE(.BOTH.,#246);
#246=SURFACE_SIDE_STYLE('',(#247));
#247=SURFACE_STYLE_FILL_AREA(#248);
#248=FILL_AREA_STYLE('Steel - Satin',(#249));
#249=FILL_AREA_STYLE_COLOUR('Steel - Satin',#250);
#250=COLOUR_RGB('Steel - Satin',0.627450980392157,0.627450980392157,0.627450980392157);
ENDSEC;
END-ISO-10303-21;
