ISO-10303-21;
HEADER;
/* Generated by software containing ST-Developer
 * from STEP Tools, Inc. (www.steptools.com) 
 */

FILE_DESCRIPTION(
/* description */ (''),
/* implementation_level */ '2;1');

FILE_NAME(
/* name */ 'Window wall.step',
/* time_stamp */ '2026-09-09T16:11:15+05:30',
/* author */ (''),
/* organization */ (''),
/* preprocessor_version */ 'ST-DEVELOPER v20.2',
/* originating_system */ 'Autodesk Translation Framework v15.15.0.0',
/* authorisation */ '');

FILE_SCHEMA (('AUTOMOTIVE_DESIGN { 1 0 10303 214 3 1 1 }'));
ENDSEC;

DATA;
#10=MECHANICAL_DESIGN_GEOMETRIC_PRESENTATION_REPRESENTATION('',(#13,#14),
#1422);
#11=SHAPE_REPRESENTATION_RELATIONSHIP('SRR','None',#1429,#12);
#12=ADVANCED_BREP_SHAPE_REPRESENTATION('',(#15,#16),#1421);
#13=STYLED_ITEM('',(#1438),#15);
#14=STYLED_ITEM('',(#1438),#16);
#15=MANIFOLD_SOLID_BREP('Body1',#905);
#16=MANIFOLD_SOLID_BREP('Body2',#906);
#17=FACE_BOUND('',#98,.T.);
#18=FACE_BOUND('',#99,.T.);
#19=FACE_BOUND('',#100,.T.);
#20=FACE_BOUND('',#101,.T.);
#21=FACE_BOUND('',#103,.T.);
#22=FACE_BOUND('',#104,.T.);
#23=FACE_BOUND('',#105,.T.);
#24=FACE_BOUND('',#106,.T.);
#25=FACE_BOUND('',#128,.T.);
#26=FACE_BOUND('',#129,.T.);
#27=FACE_BOUND('',#130,.T.);
#28=FACE_BOUND('',#131,.T.);
#29=FACE_BOUND('',#133,.T.);
#30=FACE_BOUND('',#134,.T.);
#31=FACE_BOUND('',#135,.T.);
#32=FACE_BOUND('',#136,.T.);
#33=FACE_OUTER_BOUND('',#77,.T.);
#34=FACE_OUTER_BOUND('',#78,.T.);
#35=FACE_OUTER_BOUND('',#79,.T.);
#36=FACE_OUTER_BOUND('',#80,.T.);
#37=FACE_OUTER_BOUND('',#81,.T.);
#38=FACE_OUTER_BOUND('',#82,.T.);
#39=FACE_OUTER_BOUND('',#83,.T.);
#40=FACE_OUTER_BOUND('',#84,.T.);
#41=FACE_OUTER_BOUND('',#85,.T.);
#42=FACE_OUTER_BOUND('',#86,.T.);
#43=FACE_OUTER_BOUND('',#87,.T.);
#44=FACE_OUTER_BOUND('',#88,.T.);
#45=FACE_OUTER_BOUND('',#89,.T.);
#46=FACE_OUTER_BOUND('',#90,.T.);
#47=FACE_OUTER_BOUND('',#91,.T.);
#48=FACE_OUTER_BOUND('',#92,.T.);
#49=FACE_OUTER_BOUND('',#93,.T.);
#50=FACE_OUTER_BOUND('',#94,.T.);
#51=FACE_OUTER_BOUND('',#95,.T.);
#52=FACE_OUTER_BOUND('',#96,.T.);
#53=FACE_OUTER_BOUND('',#97,.T.);
#54=FACE_OUTER_BOUND('',#102,.T.);
#55=FACE_OUTER_BOUND('',#107,.T.);
#56=FACE_OUTER_BOUND('',#108,.T.);
#57=FACE_OUTER_BOUND('',#109,.T.);
#58=FACE_OUTER_BOUND('',#110,.T.);
#59=FACE_OUTER_BOUND('',#111,.T.);
#60=FACE_OUTER_BOUND('',#112,.T.);
#61=FACE_OUTER_BOUND('',#113,.T.);
#62=FACE_OUTER_BOUND('',#114,.T.);
#63=FACE_OUTER_BOUND('',#115,.T.);
#64=FACE_OUTER_BOUND('',#116,.T.);
#65=FACE_OUTER_BOUND('',#117,.T.);
#66=FACE_OUTER_BOUND('',#118,.T.);
#67=FACE_OUTER_BOUND('',#119,.T.);
#68=FACE_OUTER_BOUND('',#120,.T.);
#69=FACE_OUTER_BOUND('',#121,.T.);
#70=FACE_OUTER_BOUND('',#122,.T.);
#71=FACE_OUTER_BOUND('',#123,.T.);
#72=FACE_OUTER_BOUND('',#124,.T.);
#73=FACE_OUTER_BOUND('',#125,.T.);
#74=FACE_OUTER_BOUND('',#126,.T.);
#75=FACE_OUTER_BOUND('',#127,.T.);
#76=FACE_OUTER_BOUND('',#132,.T.);
#77=EDGE_LOOP('',(#577,#578,#579,#580));
#78=EDGE_LOOP('',(#581,#582,#583,#584));
#79=EDGE_LOOP('',(#585,#586,#587,#588));
#80=EDGE_LOOP('',(#589,#590,#591,#592));
#81=EDGE_LOOP('',(#593,#594,#595,#596));
#82=EDGE_LOOP('',(#597,#598,#599,#600));
#83=EDGE_LOOP('',(#601,#602,#603,#604));
#84=EDGE_LOOP('',(#605,#606,#607,#608));
#85=EDGE_LOOP('',(#609,#610,#611,#612));
#86=EDGE_LOOP('',(#613,#614,#615,#616));
#87=EDGE_LOOP('',(#617,#618,#619,#620));
#88=EDGE_LOOP('',(#621,#622,#623,#624));
#89=EDGE_LOOP('',(#625,#626,#627,#628));
#90=EDGE_LOOP('',(#629,#630,#631,#632));
#91=EDGE_LOOP('',(#633,#634,#635,#636));
#92=EDGE_LOOP('',(#637,#638,#639,#640));
#93=EDGE_LOOP('',(#641,#642,#643,#644));
#94=EDGE_LOOP('',(#645,#646,#647,#648));
#95=EDGE_LOOP('',(#649,#650,#651,#652));
#96=EDGE_LOOP('',(#653,#654,#655,#656));
#97=EDGE_LOOP('',(#657,#658,#659,#660));
#98=EDGE_LOOP('',(#661,#662,#663,#664));
#99=EDGE_LOOP('',(#665,#666,#667,#668));
#100=EDGE_LOOP('',(#669,#670,#671,#672));
#101=EDGE_LOOP('',(#673,#674,#675,#676));
#102=EDGE_LOOP('',(#677,#678,#679,#680));
#103=EDGE_LOOP('',(#681,#682,#683,#684));
#104=EDGE_LOOP('',(#685,#686,#687,#688));
#105=EDGE_LOOP('',(#689,#690,#691,#692));
#106=EDGE_LOOP('',(#693,#694,#695,#696));
#107=EDGE_LOOP('',(#697,#698,#699,#700));
#108=EDGE_LOOP('',(#701,#702,#703,#704));
#109=EDGE_LOOP('',(#705,#706,#707,#708));
#110=EDGE_LOOP('',(#709,#710,#711,#712));
#111=EDGE_LOOP('',(#713,#714,#715,#716));
#112=EDGE_LOOP('',(#717,#718,#719,#720));
#113=EDGE_LOOP('',(#721,#722,#723,#724));
#114=EDGE_LOOP('',(#725,#726,#727,#728));
#115=EDGE_LOOP('',(#729,#730,#731,#732));
#116=EDGE_LOOP('',(#733,#734,#735,#736));
#117=EDGE_LOOP('',(#737,#738,#739,#740));
#118=EDGE_LOOP('',(#741,#742,#743,#744));
#119=EDGE_LOOP('',(#745,#746,#747,#748));
#120=EDGE_LOOP('',(#749,#750,#751,#752));
#121=EDGE_LOOP('',(#753,#754,#755,#756));
#122=EDGE_LOOP('',(#757,#758,#759,#760));
#123=EDGE_LOOP('',(#761,#762,#763,#764));
#124=EDGE_LOOP('',(#765,#766,#767,#768));
#125=EDGE_LOOP('',(#769,#770,#771,#772));
#126=EDGE_LOOP('',(#773,#774,#775,#776));
#127=EDGE_LOOP('',(#777,#778,#779,#780));
#128=EDGE_LOOP('',(#781,#782,#783,#784));
#129=EDGE_LOOP('',(#785,#786,#787,#788));
#130=EDGE_LOOP('',(#789,#790,#791,#792));
#131=EDGE_LOOP('',(#793,#794,#795,#796));
#132=EDGE_LOOP('',(#797,#798,#799,#800));
#133=EDGE_LOOP('',(#801,#802,#803,#804));
#134=EDGE_LOOP('',(#805,#806,#807,#808));
#135=EDGE_LOOP('',(#809,#810,#811,#812));
#136=EDGE_LOOP('',(#813,#814,#815,#816));
#137=LINE('',#1178,#257);
#138=LINE('',#1180,#258);
#139=LINE('',#1182,#259);
#140=LINE('',#1183,#260);
#141=LINE('',#1186,#261);
#142=LINE('',#1188,#262);
#143=LINE('',#1189,#263);
#144=LINE('',#1192,#264);
#145=LINE('',#1194,#265);
#146=LINE('',#1195,#266);
#147=LINE('',#1197,#267);
#148=LINE('',#1198,#268);
#149=LINE('',#1202,#269);
#150=LINE('',#1204,#270);
#151=LINE('',#1206,#271);
#152=LINE('',#1207,#272);
#153=LINE('',#1210,#273);
#154=LINE('',#1212,#274);
#155=LINE('',#1213,#275);
#156=LINE('',#1216,#276);
#157=LINE('',#1218,#277);
#158=LINE('',#1219,#278);
#159=LINE('',#1221,#279);
#160=LINE('',#1222,#280);
#161=LINE('',#1226,#281);
#162=LINE('',#1228,#282);
#163=LINE('',#1230,#283);
#164=LINE('',#1231,#284);
#165=LINE('',#1234,#285);
#166=LINE('',#1236,#286);
#167=LINE('',#1237,#287);
#168=LINE('',#1240,#288);
#169=LINE('',#1242,#289);
#170=LINE('',#1243,#290);
#171=LINE('',#1245,#291);
#172=LINE('',#1246,#292);
#173=LINE('',#1250,#293);
#174=LINE('',#1252,#294);
#175=LINE('',#1254,#295);
#176=LINE('',#1255,#296);
#177=LINE('',#1258,#297);
#178=LINE('',#1260,#298);
#179=LINE('',#1261,#299);
#180=LINE('',#1264,#300);
#181=LINE('',#1266,#301);
#182=LINE('',#1267,#302);
#183=LINE('',#1269,#303);
#184=LINE('',#1270,#304);
#185=LINE('',#1274,#305);
#186=LINE('',#1276,#306);
#187=LINE('',#1278,#307);
#188=LINE('',#1279,#308);
#189=LINE('',#1282,#309);
#190=LINE('',#1284,#310);
#191=LINE('',#1285,#311);
#192=LINE('',#1288,#312);
#193=LINE('',#1290,#313);
#194=LINE('',#1291,#314);
#195=LINE('',#1293,#315);
#196=LINE('',#1294,#316);
#197=LINE('',#1300,#317);
#198=LINE('',#1302,#318);
#199=LINE('',#1304,#319);
#200=LINE('',#1305,#320);
#201=LINE('',#1308,#321);
#202=LINE('',#1310,#322);
#203=LINE('',#1311,#323);
#204=LINE('',#1314,#324);
#205=LINE('',#1316,#325);
#206=LINE('',#1317,#326);
#207=LINE('',#1319,#327);
#208=LINE('',#1320,#328);
#209=LINE('',#1324,#329);
#210=LINE('',#1326,#330);
#211=LINE('',#1328,#331);
#212=LINE('',#1329,#332);
#213=LINE('',#1332,#333);
#214=LINE('',#1334,#334);
#215=LINE('',#1335,#335);
#216=LINE('',#1338,#336);
#217=LINE('',#1340,#337);
#218=LINE('',#1341,#338);
#219=LINE('',#1343,#339);
#220=LINE('',#1344,#340);
#221=LINE('',#1348,#341);
#222=LINE('',#1350,#342);
#223=LINE('',#1352,#343);
#224=LINE('',#1353,#344);
#225=LINE('',#1356,#345);
#226=LINE('',#1358,#346);
#227=LINE('',#1359,#347);
#228=LINE('',#1362,#348);
#229=LINE('',#1364,#349);
#230=LINE('',#1365,#350);
#231=LINE('',#1367,#351);
#232=LINE('',#1368,#352);
#233=LINE('',#1372,#353);
#234=LINE('',#1374,#354);
#235=LINE('',#1376,#355);
#236=LINE('',#1377,#356);
#237=LINE('',#1380,#357);
#238=LINE('',#1382,#358);
#239=LINE('',#1383,#359);
#240=LINE('',#1386,#360);
#241=LINE('',#1388,#361);
#242=LINE('',#1389,#362);
#243=LINE('',#1391,#363);
#244=LINE('',#1392,#364);
#245=LINE('',#1396,#365);
#246=LINE('',#1398,#366);
#247=LINE('',#1400,#367);
#248=LINE('',#1401,#368);
#249=LINE('',#1404,#369);
#250=LINE('',#1406,#370);
#251=LINE('',#1407,#371);
#252=LINE('',#1410,#372);
#253=LINE('',#1412,#373);
#254=LINE('',#1413,#374);
#255=LINE('',#1415,#375);
#256=LINE('',#1416,#376);
#257=VECTOR('',#968,10.);
#258=VECTOR('',#969,10.);
#259=VECTOR('',#970,10.);
#260=VECTOR('',#971,10.);
#261=VECTOR('',#974,10.);
#262=VECTOR('',#975,10.);
#263=VECTOR('',#976,10.);
#264=VECTOR('',#979,10.);
#265=VECTOR('',#980,10.);
#266=VECTOR('',#981,10.);
#267=VECTOR('',#984,10.);
#268=VECTOR('',#985,10.);
#269=VECTOR('',#988,10.);
#270=VECTOR('',#989,10.);
#271=VECTOR('',#990,10.);
#272=VECTOR('',#991,10.);
#273=VECTOR('',#994,10.);
#274=VECTOR('',#995,10.);
#275=VECTOR('',#996,10.);
#276=VECTOR('',#999,10.);
#277=VECTOR('',#1000,10.);
#278=VECTOR('',#1001,10.);
#279=VECTOR('',#1004,10.);
#280=VECTOR('',#1005,10.);
#281=VECTOR('',#1008,10.);
#282=VECTOR('',#1009,10.);
#283=VECTOR('',#1010,10.);
#284=VECTOR('',#1011,10.);
#285=VECTOR('',#1014,10.);
#286=VECTOR('',#1015,10.);
#287=VECTOR('',#1016,10.);
#288=VECTOR('',#1019,10.);
#289=VECTOR('',#1020,10.);
#290=VECTOR('',#1021,10.);
#291=VECTOR('',#1024,10.);
#292=VECTOR('',#1025,10.);
#293=VECTOR('',#1028,10.);
#294=VECTOR('',#1029,10.);
#295=VECTOR('',#1030,10.);
#296=VECTOR('',#1031,10.);
#297=VECTOR('',#1034,10.);
#298=VECTOR('',#1035,10.);
#299=VECTOR('',#1036,10.);
#300=VECTOR('',#1039,10.);
#301=VECTOR('',#1040,10.);
#302=VECTOR('',#1041,10.);
#303=VECTOR('',#1044,10.);
#304=VECTOR('',#1045,10.);
#305=VECTOR('',#1048,10.);
#306=VECTOR('',#1049,10.);
#307=VECTOR('',#1050,10.);
#308=VECTOR('',#1051,10.);
#309=VECTOR('',#1054,10.);
#310=VECTOR('',#1055,10.);
#311=VECTOR('',#1056,10.);
#312=VECTOR('',#1059,10.);
#313=VECTOR('',#1060,10.);
#314=VECTOR('',#1061,10.);
#315=VECTOR('',#1064,10.);
#316=VECTOR('',#1065,10.);
#317=VECTOR('',#1072,10.);
#318=VECTOR('',#1073,10.);
#319=VECTOR('',#1074,10.);
#320=VECTOR('',#1075,10.);
#321=VECTOR('',#1078,10.);
#322=VECTOR('',#1079,10.);
#323=VECTOR('',#1080,10.);
#324=VECTOR('',#1083,10.);
#325=VECTOR('',#1084,10.);
#326=VECTOR('',#1085,10.);
#327=VECTOR('',#1088,10.);
#328=VECTOR('',#1089,10.);
#329=VECTOR('',#1092,10.);
#330=VECTOR('',#1093,10.);
#331=VECTOR('',#1094,10.);
#332=VECTOR('',#1095,10.);
#333=VECTOR('',#1098,10.);
#334=VECTOR('',#1099,10.);
#335=VECTOR('',#1100,10.);
#336=VECTOR('',#1103,10.);
#337=VECTOR('',#1104,10.);
#338=VECTOR('',#1105,10.);
#339=VECTOR('',#1108,10.);
#340=VECTOR('',#1109,10.);
#341=VECTOR('',#1112,10.);
#342=VECTOR('',#1113,10.);
#343=VECTOR('',#1114,10.);
#344=VECTOR('',#1115,10.);
#345=VECTOR('',#1118,10.);
#346=VECTOR('',#1119,10.);
#347=VECTOR('',#1120,10.);
#348=VECTOR('',#1123,10.);
#349=VECTOR('',#1124,10.);
#350=VECTOR('',#1125,10.);
#351=VECTOR('',#1128,10.);
#352=VECTOR('',#1129,10.);
#353=VECTOR('',#1132,10.);
#354=VECTOR('',#1133,10.);
#355=VECTOR('',#1134,10.);
#356=VECTOR('',#1135,10.);
#357=VECTOR('',#1138,10.);
#358=VECTOR('',#1139,10.);
#359=VECTOR('',#1140,10.);
#360=VECTOR('',#1143,10.);
#361=VECTOR('',#1144,10.);
#362=VECTOR('',#1145,10.);
#363=VECTOR('',#1148,10.);
#364=VECTOR('',#1149,10.);
#365=VECTOR('',#1152,10.);
#366=VECTOR('',#1153,10.);
#367=VECTOR('',#1154,10.);
#368=VECTOR('',#1155,10.);
#369=VECTOR('',#1158,10.);
#370=VECTOR('',#1159,10.);
#371=VECTOR('',#1160,10.);
#372=VECTOR('',#1163,10.);
#373=VECTOR('',#1164,10.);
#374=VECTOR('',#1165,10.);
#375=VECTOR('',#1168,10.);
#376=VECTOR('',#1169,10.);
#377=VERTEX_POINT('',#1176);
#378=VERTEX_POINT('',#1177);
#379=VERTEX_POINT('',#1179);
#380=VERTEX_POINT('',#1181);
#381=VERTEX_POINT('',#1185);
#382=VERTEX_POINT('',#1187);
#383=VERTEX_POINT('',#1191);
#384=VERTEX_POINT('',#1193);
#385=VERTEX_POINT('',#1200);
#386=VERTEX_POINT('',#1201);
#387=VERTEX_POINT('',#1203);
#388=VERTEX_POINT('',#1205);
#389=VERTEX_POINT('',#1209);
#390=VERTEX_POINT('',#1211);
#391=VERTEX_POINT('',#1215);
#392=VERTEX_POINT('',#1217);
#393=VERTEX_POINT('',#1224);
#394=VERTEX_POINT('',#1225);
#395=VERTEX_POINT('',#1227);
#396=VERTEX_POINT('',#1229);
#397=VERTEX_POINT('',#1233);
#398=VERTEX_POINT('',#1235);
#399=VERTEX_POINT('',#1239);
#400=VERTEX_POINT('',#1241);
#401=VERTEX_POINT('',#1248);
#402=VERTEX_POINT('',#1249);
#403=VERTEX_POINT('',#1251);
#404=VERTEX_POINT('',#1253);
#405=VERTEX_POINT('',#1257);
#406=VERTEX_POINT('',#1259);
#407=VERTEX_POINT('',#1263);
#408=VERTEX_POINT('',#1265);
#409=VERTEX_POINT('',#1272);
#410=VERTEX_POINT('',#1273);
#411=VERTEX_POINT('',#1275);
#412=VERTEX_POINT('',#1277);
#413=VERTEX_POINT('',#1281);
#414=VERTEX_POINT('',#1283);
#415=VERTEX_POINT('',#1287);
#416=VERTEX_POINT('',#1289);
#417=VERTEX_POINT('',#1298);
#418=VERTEX_POINT('',#1299);
#419=VERTEX_POINT('',#1301);
#420=VERTEX_POINT('',#1303);
#421=VERTEX_POINT('',#1307);
#422=VERTEX_POINT('',#1309);
#423=VERTEX_POINT('',#1313);
#424=VERTEX_POINT('',#1315);
#425=VERTEX_POINT('',#1322);
#426=VERTEX_POINT('',#1323);
#427=VERTEX_POINT('',#1325);
#428=VERTEX_POINT('',#1327);
#429=VERTEX_POINT('',#1331);
#430=VERTEX_POINT('',#1333);
#431=VERTEX_POINT('',#1337);
#432=VERTEX_POINT('',#1339);
#433=VERTEX_POINT('',#1346);
#434=VERTEX_POINT('',#1347);
#435=VERTEX_POINT('',#1349);
#436=VERTEX_POINT('',#1351);
#437=VERTEX_POINT('',#1355);
#438=VERTEX_POINT('',#1357);
#439=VERTEX_POINT('',#1361);
#440=VERTEX_POINT('',#1363);
#441=VERTEX_POINT('',#1370);
#442=VERTEX_POINT('',#1371);
#443=VERTEX_POINT('',#1373);
#444=VERTEX_POINT('',#1375);
#445=VERTEX_POINT('',#1379);
#446=VERTEX_POINT('',#1381);
#447=VERTEX_POINT('',#1385);
#448=VERTEX_POINT('',#1387);
#449=VERTEX_POINT('',#1394);
#450=VERTEX_POINT('',#1395);
#451=VERTEX_POINT('',#1397);
#452=VERTEX_POINT('',#1399);
#453=VERTEX_POINT('',#1403);
#454=VERTEX_POINT('',#1405);
#455=VERTEX_POINT('',#1409);
#456=VERTEX_POINT('',#1411);
#457=EDGE_CURVE('',#377,#378,#137,.T.);
#458=EDGE_CURVE('',#377,#379,#138,.T.);
#459=EDGE_CURVE('',#380,#379,#139,.T.);
#460=EDGE_CURVE('',#378,#380,#140,.T.);
#461=EDGE_CURVE('',#381,#377,#141,.T.);
#462=EDGE_CURVE('',#381,#382,#142,.T.);
#463=EDGE_CURVE('',#379,#382,#143,.T.);
#464=EDGE_CURVE('',#383,#381,#144,.T.);
#465=EDGE_CURVE('',#383,#384,#145,.T.);
#466=EDGE_CURVE('',#382,#384,#146,.T.);
#467=EDGE_CURVE('',#378,#383,#147,.T.);
#468=EDGE_CURVE('',#384,#380,#148,.T.);
#469=EDGE_CURVE('',#385,#386,#149,.T.);
#470=EDGE_CURVE('',#385,#387,#150,.T.);
#471=EDGE_CURVE('',#388,#387,#151,.T.);
#472=EDGE_CURVE('',#386,#388,#152,.T.);
#473=EDGE_CURVE('',#389,#385,#153,.T.);
#474=EDGE_CURVE('',#389,#390,#154,.T.);
#475=EDGE_CURVE('',#387,#390,#155,.T.);
#476=EDGE_CURVE('',#391,#389,#156,.T.);
#477=EDGE_CURVE('',#391,#392,#157,.T.);
#478=EDGE_CURVE('',#390,#392,#158,.T.);
#479=EDGE_CURVE('',#386,#391,#159,.T.);
#480=EDGE_CURVE('',#392,#388,#160,.T.);
#481=EDGE_CURVE('',#393,#394,#161,.T.);
#482=EDGE_CURVE('',#393,#395,#162,.T.);
#483=EDGE_CURVE('',#396,#395,#163,.T.);
#484=EDGE_CURVE('',#394,#396,#164,.T.);
#485=EDGE_CURVE('',#397,#393,#165,.T.);
#486=EDGE_CURVE('',#397,#398,#166,.T.);
#487=EDGE_CURVE('',#395,#398,#167,.T.);
#488=EDGE_CURVE('',#399,#397,#168,.T.);
#489=EDGE_CURVE('',#399,#400,#169,.T.);
#490=EDGE_CURVE('',#398,#400,#170,.T.);
#491=EDGE_CURVE('',#394,#399,#171,.T.);
#492=EDGE_CURVE('',#400,#396,#172,.T.);
#493=EDGE_CURVE('',#401,#402,#173,.T.);
#494=EDGE_CURVE('',#401,#403,#174,.T.);
#495=EDGE_CURVE('',#404,#403,#175,.T.);
#496=EDGE_CURVE('',#402,#404,#176,.T.);
#497=EDGE_CURVE('',#405,#401,#177,.T.);
#498=EDGE_CURVE('',#405,#406,#178,.T.);
#499=EDGE_CURVE('',#403,#406,#179,.T.);
#500=EDGE_CURVE('',#407,#405,#180,.T.);
#501=EDGE_CURVE('',#407,#408,#181,.T.);
#502=EDGE_CURVE('',#406,#408,#182,.T.);
#503=EDGE_CURVE('',#402,#407,#183,.T.);
#504=EDGE_CURVE('',#408,#404,#184,.T.);
#505=EDGE_CURVE('',#409,#410,#185,.T.);
#506=EDGE_CURVE('',#410,#411,#186,.T.);
#507=EDGE_CURVE('',#412,#411,#187,.T.);
#508=EDGE_CURVE('',#409,#412,#188,.T.);
#509=EDGE_CURVE('',#413,#409,#189,.T.);
#510=EDGE_CURVE('',#414,#412,#190,.T.);
#511=EDGE_CURVE('',#413,#414,#191,.T.);
#512=EDGE_CURVE('',#415,#413,#192,.T.);
#513=EDGE_CURVE('',#416,#414,#193,.T.);
#514=EDGE_CURVE('',#415,#416,#194,.T.);
#515=EDGE_CURVE('',#410,#415,#195,.T.);
#516=EDGE_CURVE('',#411,#416,#196,.T.);
#517=EDGE_CURVE('',#417,#418,#197,.T.);
#518=EDGE_CURVE('',#418,#419,#198,.T.);
#519=EDGE_CURVE('',#420,#419,#199,.T.);
#520=EDGE_CURVE('',#417,#420,#200,.T.);
#521=EDGE_CURVE('',#421,#417,#201,.T.);
#522=EDGE_CURVE('',#422,#420,#202,.T.);
#523=EDGE_CURVE('',#421,#422,#203,.T.);
#524=EDGE_CURVE('',#423,#421,#204,.T.);
#525=EDGE_CURVE('',#424,#422,#205,.T.);
#526=EDGE_CURVE('',#423,#424,#206,.T.);
#527=EDGE_CURVE('',#418,#423,#207,.T.);
#528=EDGE_CURVE('',#419,#424,#208,.T.);
#529=EDGE_CURVE('',#425,#426,#209,.T.);
#530=EDGE_CURVE('',#426,#427,#210,.T.);
#531=EDGE_CURVE('',#428,#427,#211,.T.);
#532=EDGE_CURVE('',#425,#428,#212,.T.);
#533=EDGE_CURVE('',#429,#425,#213,.T.);
#534=EDGE_CURVE('',#430,#428,#214,.T.);
#535=EDGE_CURVE('',#429,#430,#215,.T.);
#536=EDGE_CURVE('',#431,#429,#216,.T.);
#537=EDGE_CURVE('',#432,#430,#217,.T.);
#538=EDGE_CURVE('',#431,#432,#218,.T.);
#539=EDGE_CURVE('',#426,#431,#219,.T.);
#540=EDGE_CURVE('',#427,#432,#220,.T.);
#541=EDGE_CURVE('',#433,#434,#221,.T.);
#542=EDGE_CURVE('',#434,#435,#222,.T.);
#543=EDGE_CURVE('',#436,#435,#223,.T.);
#544=EDGE_CURVE('',#433,#436,#224,.T.);
#545=EDGE_CURVE('',#437,#433,#225,.T.);
#546=EDGE_CURVE('',#438,#436,#226,.T.);
#547=EDGE_CURVE('',#437,#438,#227,.T.);
#548=EDGE_CURVE('',#439,#437,#228,.T.);
#549=EDGE_CURVE('',#440,#438,#229,.T.);
#550=EDGE_CURVE('',#439,#440,#230,.T.);
#551=EDGE_CURVE('',#434,#439,#231,.T.);
#552=EDGE_CURVE('',#435,#440,#232,.T.);
#553=EDGE_CURVE('',#441,#442,#233,.T.);
#554=EDGE_CURVE('',#442,#443,#234,.T.);
#555=EDGE_CURVE('',#444,#443,#235,.T.);
#556=EDGE_CURVE('',#441,#444,#236,.T.);
#557=EDGE_CURVE('',#445,#441,#237,.T.);
#558=EDGE_CURVE('',#446,#444,#238,.T.);
#559=EDGE_CURVE('',#445,#446,#239,.T.);
#560=EDGE_CURVE('',#447,#445,#240,.T.);
#561=EDGE_CURVE('',#448,#446,#241,.T.);
#562=EDGE_CURVE('',#447,#448,#242,.T.);
#563=EDGE_CURVE('',#442,#447,#243,.T.);
#564=EDGE_CURVE('',#443,#448,#244,.T.);
#565=EDGE_CURVE('',#449,#450,#245,.T.);
#566=EDGE_CURVE('',#449,#451,#246,.T.);
#567=EDGE_CURVE('',#452,#451,#247,.T.);
#568=EDGE_CURVE('',#450,#452,#248,.T.);
#569=EDGE_CURVE('',#450,#453,#249,.T.);
#570=EDGE_CURVE('',#454,#452,#250,.T.);
#571=EDGE_CURVE('',#453,#454,#251,.T.);
#572=EDGE_CURVE('',#453,#455,#252,.T.);
#573=EDGE_CURVE('',#456,#454,#253,.T.);
#574=EDGE_CURVE('',#455,#456,#254,.T.);
#575=EDGE_CURVE('',#455,#449,#255,.T.);
#576=EDGE_CURVE('',#451,#456,#256,.T.);
#577=ORIENTED_EDGE('',*,*,#457,.F.);
#578=ORIENTED_EDGE('',*,*,#458,.T.);
#579=ORIENTED_EDGE('',*,*,#459,.F.);
#580=ORIENTED_EDGE('',*,*,#460,.F.);
#581=ORIENTED_EDGE('',*,*,#461,.F.);
#582=ORIENTED_EDGE('',*,*,#462,.T.);
#583=ORIENTED_EDGE('',*,*,#463,.F.);
#584=ORIENTED_EDGE('',*,*,#458,.F.);
#585=ORIENTED_EDGE('',*,*,#464,.F.);
#586=ORIENTED_EDGE('',*,*,#465,.T.);
#587=ORIENTED_EDGE('',*,*,#466,.F.);
#588=ORIENTED_EDGE('',*,*,#462,.F.);
#589=ORIENTED_EDGE('',*,*,#467,.F.);
#590=ORIENTED_EDGE('',*,*,#460,.T.);
#591=ORIENTED_EDGE('',*,*,#468,.F.);
#592=ORIENTED_EDGE('',*,*,#465,.F.);
#593=ORIENTED_EDGE('',*,*,#469,.F.);
#594=ORIENTED_EDGE('',*,*,#470,.T.);
#595=ORIENTED_EDGE('',*,*,#471,.F.);
#596=ORIENTED_EDGE('',*,*,#472,.F.);
#597=ORIENTED_EDGE('',*,*,#473,.F.);
#598=ORIENTED_EDGE('',*,*,#474,.T.);
#599=ORIENTED_EDGE('',*,*,#475,.F.);
#600=ORIENTED_EDGE('',*,*,#470,.F.);
#601=ORIENTED_EDGE('',*,*,#476,.F.);
#602=ORIENTED_EDGE('',*,*,#477,.T.);
#603=ORIENTED_EDGE('',*,*,#478,.F.);
#604=ORIENTED_EDGE('',*,*,#474,.F.);
#605=ORIENTED_EDGE('',*,*,#479,.F.);
#606=ORIENTED_EDGE('',*,*,#472,.T.);
#607=ORIENTED_EDGE('',*,*,#480,.F.);
#608=ORIENTED_EDGE('',*,*,#477,.F.);
#609=ORIENTED_EDGE('',*,*,#481,.F.);
#610=ORIENTED_EDGE('',*,*,#482,.T.);
#611=ORIENTED_EDGE('',*,*,#483,.F.);
#612=ORIENTED_EDGE('',*,*,#484,.F.);
#613=ORIENTED_EDGE('',*,*,#485,.F.);
#614=ORIENTED_EDGE('',*,*,#486,.T.);
#615=ORIENTED_EDGE('',*,*,#487,.F.);
#616=ORIENTED_EDGE('',*,*,#482,.F.);
#617=ORIENTED_EDGE('',*,*,#488,.F.);
#618=ORIENTED_EDGE('',*,*,#489,.T.);
#619=ORIENTED_EDGE('',*,*,#490,.F.);
#620=ORIENTED_EDGE('',*,*,#486,.F.);
#621=ORIENTED_EDGE('',*,*,#491,.F.);
#622=ORIENTED_EDGE('',*,*,#484,.T.);
#623=ORIENTED_EDGE('',*,*,#492,.F.);
#624=ORIENTED_EDGE('',*,*,#489,.F.);
#625=ORIENTED_EDGE('',*,*,#493,.F.);
#626=ORIENTED_EDGE('',*,*,#494,.T.);
#627=ORIENTED_EDGE('',*,*,#495,.F.);
#628=ORIENTED_EDGE('',*,*,#496,.F.);
#629=ORIENTED_EDGE('',*,*,#497,.F.);
#630=ORIENTED_EDGE('',*,*,#498,.T.);
#631=ORIENTED_EDGE('',*,*,#499,.F.);
#632=ORIENTED_EDGE('',*,*,#494,.F.);
#633=ORIENTED_EDGE('',*,*,#500,.F.);
#634=ORIENTED_EDGE('',*,*,#501,.T.);
#635=ORIENTED_EDGE('',*,*,#502,.F.);
#636=ORIENTED_EDGE('',*,*,#498,.F.);
#637=ORIENTED_EDGE('',*,*,#503,.F.);
#638=ORIENTED_EDGE('',*,*,#496,.T.);
#639=ORIENTED_EDGE('',*,*,#504,.F.);
#640=ORIENTED_EDGE('',*,*,#501,.F.);
#641=ORIENTED_EDGE('',*,*,#505,.T.);
#642=ORIENTED_EDGE('',*,*,#506,.T.);
#643=ORIENTED_EDGE('',*,*,#507,.F.);
#644=ORIENTED_EDGE('',*,*,#508,.F.);
#645=ORIENTED_EDGE('',*,*,#509,.T.);
#646=ORIENTED_EDGE('',*,*,#508,.T.);
#647=ORIENTED_EDGE('',*,*,#510,.F.);
#648=ORIENTED_EDGE('',*,*,#511,.F.);
#649=ORIENTED_EDGE('',*,*,#512,.T.);
#650=ORIENTED_EDGE('',*,*,#511,.T.);
#651=ORIENTED_EDGE('',*,*,#513,.F.);
#652=ORIENTED_EDGE('',*,*,#514,.F.);
#653=ORIENTED_EDGE('',*,*,#515,.T.);
#654=ORIENTED_EDGE('',*,*,#514,.T.);
#655=ORIENTED_EDGE('',*,*,#516,.F.);
#656=ORIENTED_EDGE('',*,*,#506,.F.);
#657=ORIENTED_EDGE('',*,*,#516,.T.);
#658=ORIENTED_EDGE('',*,*,#513,.T.);
#659=ORIENTED_EDGE('',*,*,#510,.T.);
#660=ORIENTED_EDGE('',*,*,#507,.T.);
#661=ORIENTED_EDGE('',*,*,#457,.T.);
#662=ORIENTED_EDGE('',*,*,#467,.T.);
#663=ORIENTED_EDGE('',*,*,#464,.T.);
#664=ORIENTED_EDGE('',*,*,#461,.T.);
#665=ORIENTED_EDGE('',*,*,#469,.T.);
#666=ORIENTED_EDGE('',*,*,#479,.T.);
#667=ORIENTED_EDGE('',*,*,#476,.T.);
#668=ORIENTED_EDGE('',*,*,#473,.T.);
#669=ORIENTED_EDGE('',*,*,#481,.T.);
#670=ORIENTED_EDGE('',*,*,#491,.T.);
#671=ORIENTED_EDGE('',*,*,#488,.T.);
#672=ORIENTED_EDGE('',*,*,#485,.T.);
#673=ORIENTED_EDGE('',*,*,#493,.T.);
#674=ORIENTED_EDGE('',*,*,#503,.T.);
#675=ORIENTED_EDGE('',*,*,#500,.T.);
#676=ORIENTED_EDGE('',*,*,#497,.T.);
#677=ORIENTED_EDGE('',*,*,#515,.F.);
#678=ORIENTED_EDGE('',*,*,#505,.F.);
#679=ORIENTED_EDGE('',*,*,#509,.F.);
#680=ORIENTED_EDGE('',*,*,#512,.F.);
#681=ORIENTED_EDGE('',*,*,#459,.T.);
#682=ORIENTED_EDGE('',*,*,#463,.T.);
#683=ORIENTED_EDGE('',*,*,#466,.T.);
#684=ORIENTED_EDGE('',*,*,#468,.T.);
#685=ORIENTED_EDGE('',*,*,#471,.T.);
#686=ORIENTED_EDGE('',*,*,#475,.T.);
#687=ORIENTED_EDGE('',*,*,#478,.T.);
#688=ORIENTED_EDGE('',*,*,#480,.T.);
#689=ORIENTED_EDGE('',*,*,#483,.T.);
#690=ORIENTED_EDGE('',*,*,#487,.T.);
#691=ORIENTED_EDGE('',*,*,#490,.T.);
#692=ORIENTED_EDGE('',*,*,#492,.T.);
#693=ORIENTED_EDGE('',*,*,#495,.T.);
#694=ORIENTED_EDGE('',*,*,#499,.T.);
#695=ORIENTED_EDGE('',*,*,#502,.T.);
#696=ORIENTED_EDGE('',*,*,#504,.T.);
#697=ORIENTED_EDGE('',*,*,#517,.T.);
#698=ORIENTED_EDGE('',*,*,#518,.T.);
#699=ORIENTED_EDGE('',*,*,#519,.F.);
#700=ORIENTED_EDGE('',*,*,#520,.F.);
#701=ORIENTED_EDGE('',*,*,#521,.T.);
#702=ORIENTED_EDGE('',*,*,#520,.T.);
#703=ORIENTED_EDGE('',*,*,#522,.F.);
#704=ORIENTED_EDGE('',*,*,#523,.F.);
#705=ORIENTED_EDGE('',*,*,#524,.T.);
#706=ORIENTED_EDGE('',*,*,#523,.T.);
#707=ORIENTED_EDGE('',*,*,#525,.F.);
#708=ORIENTED_EDGE('',*,*,#526,.F.);
#709=ORIENTED_EDGE('',*,*,#527,.T.);
#710=ORIENTED_EDGE('',*,*,#526,.T.);
#711=ORIENTED_EDGE('',*,*,#528,.F.);
#712=ORIENTED_EDGE('',*,*,#518,.F.);
#713=ORIENTED_EDGE('',*,*,#529,.T.);
#714=ORIENTED_EDGE('',*,*,#530,.T.);
#715=ORIENTED_EDGE('',*,*,#531,.F.);
#716=ORIENTED_EDGE('',*,*,#532,.F.);
#717=ORIENTED_EDGE('',*,*,#533,.T.);
#718=ORIENTED_EDGE('',*,*,#532,.T.);
#719=ORIENTED_EDGE('',*,*,#534,.F.);
#720=ORIENTED_EDGE('',*,*,#535,.F.);
#721=ORIENTED_EDGE('',*,*,#536,.T.);
#722=ORIENTED_EDGE('',*,*,#535,.T.);
#723=ORIENTED_EDGE('',*,*,#537,.F.);
#724=ORIENTED_EDGE('',*,*,#538,.F.);
#725=ORIENTED_EDGE('',*,*,#539,.T.);
#726=ORIENTED_EDGE('',*,*,#538,.T.);
#727=ORIENTED_EDGE('',*,*,#540,.F.);
#728=ORIENTED_EDGE('',*,*,#530,.F.);
#729=ORIENTED_EDGE('',*,*,#541,.T.);
#730=ORIENTED_EDGE('',*,*,#542,.T.);
#731=ORIENTED_EDGE('',*,*,#543,.F.);
#732=ORIENTED_EDGE('',*,*,#544,.F.);
#733=ORIENTED_EDGE('',*,*,#545,.T.);
#734=ORIENTED_EDGE('',*,*,#544,.T.);
#735=ORIENTED_EDGE('',*,*,#546,.F.);
#736=ORIENTED_EDGE('',*,*,#547,.F.);
#737=ORIENTED_EDGE('',*,*,#548,.T.);
#738=ORIENTED_EDGE('',*,*,#547,.T.);
#739=ORIENTED_EDGE('',*,*,#549,.F.);
#740=ORIENTED_EDGE('',*,*,#550,.F.);
#741=ORIENTED_EDGE('',*,*,#551,.T.);
#742=ORIENTED_EDGE('',*,*,#550,.T.);
#743=ORIENTED_EDGE('',*,*,#552,.F.);
#744=ORIENTED_EDGE('',*,*,#542,.F.);
#745=ORIENTED_EDGE('',*,*,#553,.T.);
#746=ORIENTED_EDGE('',*,*,#554,.T.);
#747=ORIENTED_EDGE('',*,*,#555,.F.);
#748=ORIENTED_EDGE('',*,*,#556,.F.);
#749=ORIENTED_EDGE('',*,*,#557,.T.);
#750=ORIENTED_EDGE('',*,*,#556,.T.);
#751=ORIENTED_EDGE('',*,*,#558,.F.);
#752=ORIENTED_EDGE('',*,*,#559,.F.);
#753=ORIENTED_EDGE('',*,*,#560,.T.);
#754=ORIENTED_EDGE('',*,*,#559,.T.);
#755=ORIENTED_EDGE('',*,*,#561,.F.);
#756=ORIENTED_EDGE('',*,*,#562,.F.);
#757=ORIENTED_EDGE('',*,*,#563,.T.);
#758=ORIENTED_EDGE('',*,*,#562,.T.);
#759=ORIENTED_EDGE('',*,*,#564,.F.);
#760=ORIENTED_EDGE('',*,*,#554,.F.);
#761=ORIENTED_EDGE('',*,*,#565,.F.);
#762=ORIENTED_EDGE('',*,*,#566,.T.);
#763=ORIENTED_EDGE('',*,*,#567,.F.);
#764=ORIENTED_EDGE('',*,*,#568,.F.);
#765=ORIENTED_EDGE('',*,*,#569,.F.);
#766=ORIENTED_EDGE('',*,*,#568,.T.);
#767=ORIENTED_EDGE('',*,*,#570,.F.);
#768=ORIENTED_EDGE('',*,*,#571,.F.);
#769=ORIENTED_EDGE('',*,*,#572,.F.);
#770=ORIENTED_EDGE('',*,*,#571,.T.);
#771=ORIENTED_EDGE('',*,*,#573,.F.);
#772=ORIENTED_EDGE('',*,*,#574,.F.);
#773=ORIENTED_EDGE('',*,*,#575,.F.);
#774=ORIENTED_EDGE('',*,*,#574,.T.);
#775=ORIENTED_EDGE('',*,*,#576,.F.);
#776=ORIENTED_EDGE('',*,*,#566,.F.);
#777=ORIENTED_EDGE('',*,*,#576,.T.);
#778=ORIENTED_EDGE('',*,*,#573,.T.);
#779=ORIENTED_EDGE('',*,*,#570,.T.);
#780=ORIENTED_EDGE('',*,*,#567,.T.);
#781=ORIENTED_EDGE('',*,*,#564,.T.);
#782=ORIENTED_EDGE('',*,*,#561,.T.);
#783=ORIENTED_EDGE('',*,*,#558,.T.);
#784=ORIENTED_EDGE('',*,*,#555,.T.);
#785=ORIENTED_EDGE('',*,*,#552,.T.);
#786=ORIENTED_EDGE('',*,*,#549,.T.);
#787=ORIENTED_EDGE('',*,*,#546,.T.);
#788=ORIENTED_EDGE('',*,*,#543,.T.);
#789=ORIENTED_EDGE('',*,*,#540,.T.);
#790=ORIENTED_EDGE('',*,*,#537,.T.);
#791=ORIENTED_EDGE('',*,*,#534,.T.);
#792=ORIENTED_EDGE('',*,*,#531,.T.);
#793=ORIENTED_EDGE('',*,*,#528,.T.);
#794=ORIENTED_EDGE('',*,*,#525,.T.);
#795=ORIENTED_EDGE('',*,*,#522,.T.);
#796=ORIENTED_EDGE('',*,*,#519,.T.);
#797=ORIENTED_EDGE('',*,*,#575,.T.);
#798=ORIENTED_EDGE('',*,*,#565,.T.);
#799=ORIENTED_EDGE('',*,*,#569,.T.);
#800=ORIENTED_EDGE('',*,*,#572,.T.);
#801=ORIENTED_EDGE('',*,*,#563,.F.);
#802=ORIENTED_EDGE('',*,*,#553,.F.);
#803=ORIENTED_EDGE('',*,*,#557,.F.);
#804=ORIENTED_EDGE('',*,*,#560,.F.);
#805=ORIENTED_EDGE('',*,*,#551,.F.);
#806=ORIENTED_EDGE('',*,*,#541,.F.);
#807=ORIENTED_EDGE('',*,*,#545,.F.);
#808=ORIENTED_EDGE('',*,*,#548,.F.);
#809=ORIENTED_EDGE('',*,*,#539,.F.);
#810=ORIENTED_EDGE('',*,*,#529,.F.);
#811=ORIENTED_EDGE('',*,*,#533,.F.);
#812=ORIENTED_EDGE('',*,*,#536,.F.);
#813=ORIENTED_EDGE('',*,*,#527,.F.);
#814=ORIENTED_EDGE('',*,*,#517,.F.);
#815=ORIENTED_EDGE('',*,*,#521,.F.);
#816=ORIENTED_EDGE('',*,*,#524,.F.);
#817=PLANE('',#920);
#818=PLANE('',#921);
#819=PLANE('',#922);
#820=PLANE('',#923);
#821=PLANE('',#924);
#822=PLANE('',#925);
#823=PLANE('',#926);
#824=PLANE('',#927);
#825=PLANE('',#928);
#826=PLANE('',#929);
#827=PLANE('',#930);
#828=PLANE('',#931);
#829=PLANE('',#932);
#830=PLANE('',#933);
#831=PLANE('',#934);
#832=PLANE('',#935);
#833=PLANE('',#936);
#834=PLANE('',#937);
#835=PLANE('',#938);
#836=PLANE('',#939);
#837=PLANE('',#940);
#838=PLANE('',#941);
#839=PLANE('',#942);
#840=PLANE('',#943);
#841=PLANE('',#944);
#842=PLANE('',#945);
#843=PLANE('',#946);
#844=PLANE('',#947);
#845=PLANE('',#948);
#846=PLANE('',#949);
#847=PLANE('',#950);
#848=PLANE('',#951);
#849=PLANE('',#952);
#850=PLANE('',#953);
#851=PLANE('',#954);
#852=PLANE('',#955);
#853=PLANE('',#956);
#854=PLANE('',#957);
#855=PLANE('',#958);
#856=PLANE('',#959);
#857=PLANE('',#960);
#858=PLANE('',#961);
#859=PLANE('',#962);
#860=PLANE('',#963);
#861=ADVANCED_FACE('',(#33),#817,.F.);
#862=ADVANCED_FACE('',(#34),#818,.F.);
#863=ADVANCED_FACE('',(#35),#819,.F.);
#864=ADVANCED_FACE('',(#36),#820,.F.);
#865=ADVANCED_FACE('',(#37),#821,.F.);
#866=ADVANCED_FACE('',(#38),#822,.F.);
#867=ADVANCED_FACE('',(#39),#823,.F.);
#868=ADVANCED_FACE('',(#40),#824,.F.);
#869=ADVANCED_FACE('',(#41),#825,.F.);
#870=ADVANCED_FACE('',(#42),#826,.F.);
#871=ADVANCED_FACE('',(#43),#827,.F.);
#872=ADVANCED_FACE('',(#44),#828,.F.);
#873=ADVANCED_FACE('',(#45),#829,.F.);
#874=ADVANCED_FACE('',(#46),#830,.F.);
#875=ADVANCED_FACE('',(#47),#831,.F.);
#876=ADVANCED_FACE('',(#48),#832,.F.);
#877=ADVANCED_FACE('',(#49),#833,.T.);
#878=ADVANCED_FACE('',(#50),#834,.T.);
#879=ADVANCED_FACE('',(#51),#835,.T.);
#880=ADVANCED_FACE('',(#52),#836,.T.);
#881=ADVANCED_FACE('',(#53,#17,#18,#19,#20),#837,.T.);
#882=ADVANCED_FACE('',(#54,#21,#22,#23,#24),#838,.F.);
#883=ADVANCED_FACE('',(#55),#839,.T.);
#884=ADVANCED_FACE('',(#56),#840,.T.);
#885=ADVANCED_FACE('',(#57),#841,.T.);
#886=ADVANCED_FACE('',(#58),#842,.T.);
#887=ADVANCED_FACE('',(#59),#843,.T.);
#888=ADVANCED_FACE('',(#60),#844,.T.);
#889=ADVANCED_FACE('',(#61),#845,.T.);
#890=ADVANCED_FACE('',(#62),#846,.T.);
#891=ADVANCED_FACE('',(#63),#847,.T.);
#892=ADVANCED_FACE('',(#64),#848,.T.);
#893=ADVANCED_FACE('',(#65),#849,.T.);
#894=ADVANCED_FACE('',(#66),#850,.T.);
#895=ADVANCED_FACE('',(#67),#851,.T.);
#896=ADVANCED_FACE('',(#68),#852,.T.);
#897=ADVANCED_FACE('',(#69),#853,.T.);
#898=ADVANCED_FACE('',(#70),#854,.T.);
#899=ADVANCED_FACE('',(#71),#855,.T.);
#900=ADVANCED_FACE('',(#72),#856,.T.);
#901=ADVANCED_FACE('',(#73),#857,.T.);
#902=ADVANCED_FACE('',(#74),#858,.T.);
#903=ADVANCED_FACE('',(#75,#25,#26,#27,#28),#859,.T.);
#904=ADVANCED_FACE('',(#76,#29,#30,#31,#32),#860,.F.);
#905=CLOSED_SHELL('',(#861,#862,#863,#864,#865,#866,#867,#868,#869,#870,
#871,#872,#873,#874,#875,#876,#877,#878,#879,#880,#881,#882));
#906=CLOSED_SHELL('',(#883,#884,#885,#886,#887,#888,#889,#890,#891,#892,
#893,#894,#895,#896,#897,#898,#899,#900,#901,#902,#903,#904));
#907=DERIVED_UNIT_ELEMENT(#909,1.);
#908=DERIVED_UNIT_ELEMENT(#1424,-3.);
#909=(
MASS_UNIT()
NAMED_UNIT(*)
SI_UNIT(.KILO.,.GRAM.)
);
#910=DERIVED_UNIT((#907,#908));
#911=MEASURE_REPRESENTATION_ITEM('density measure',
POSITIVE_RATIO_MEASURE(7850.),#910);
#912=PROPERTY_DEFINITION_REPRESENTATION(#917,#914);
#913=PROPERTY_DEFINITION_REPRESENTATION(#918,#915);
#914=REPRESENTATION('material name',(#916),#1421);
#915=REPRESENTATION('density',(#911),#1421);
#916=DESCRIPTIVE_REPRESENTATION_ITEM('Steel','Steel');
#917=PROPERTY_DEFINITION('material property','material name',#1431);
#918=PROPERTY_DEFINITION('material property','density of part',#1431);
#919=AXIS2_PLACEMENT_3D('',#1174,#964,#965);
#920=AXIS2_PLACEMENT_3D('',#1175,#966,#967);
#921=AXIS2_PLACEMENT_3D('',#1184,#972,#973);
#922=AXIS2_PLACEMENT_3D('',#1190,#977,#978);
#923=AXIS2_PLACEMENT_3D('',#1196,#982,#983);
#924=AXIS2_PLACEMENT_3D('',#1199,#986,#987);
#925=AXIS2_PLACEMENT_3D('',#1208,#992,#993);
#926=AXIS2_PLACEMENT_3D('',#1214,#997,#998);
#927=AXIS2_PLACEMENT_3D('',#1220,#1002,#1003);
#928=AXIS2_PLACEMENT_3D('',#1223,#1006,#1007);
#929=AXIS2_PLACEMENT_3D('',#1232,#1012,#1013);
#930=AXIS2_PLACEMENT_3D('',#1238,#1017,#1018);
#931=AXIS2_PLACEMENT_3D('',#1244,#1022,#1023);
#932=AXIS2_PLACEMENT_3D('',#1247,#1026,#1027);
#933=AXIS2_PLACEMENT_3D('',#1256,#1032,#1033);
#934=AXIS2_PLACEMENT_3D('',#1262,#1037,#1038);
#935=AXIS2_PLACEMENT_3D('',#1268,#1042,#1043);
#936=AXIS2_PLACEMENT_3D('',#1271,#1046,#1047);
#937=AXIS2_PLACEMENT_3D('',#1280,#1052,#1053);
#938=AXIS2_PLACEMENT_3D('',#1286,#1057,#1058);
#939=AXIS2_PLACEMENT_3D('',#1292,#1062,#1063);
#940=AXIS2_PLACEMENT_3D('',#1295,#1066,#1067);
#941=AXIS2_PLACEMENT_3D('',#1296,#1068,#1069);
#942=AXIS2_PLACEMENT_3D('',#1297,#1070,#1071);
#943=AXIS2_PLACEMENT_3D('',#1306,#1076,#1077);
#944=AXIS2_PLACEMENT_3D('',#1312,#1081,#1082);
#945=AXIS2_PLACEMENT_3D('',#1318,#1086,#1087);
#946=AXIS2_PLACEMENT_3D('',#1321,#1090,#1091);
#947=AXIS2_PLACEMENT_3D('',#1330,#1096,#1097);
#948=AXIS2_PLACEMENT_3D('',#1336,#1101,#1102);
#949=AXIS2_PLACEMENT_3D('',#1342,#1106,#1107);
#950=AXIS2_PLACEMENT_3D('',#1345,#1110,#1111);
#951=AXIS2_PLACEMENT_3D('',#1354,#1116,#1117);
#952=AXIS2_PLACEMENT_3D('',#1360,#1121,#1122);
#953=AXIS2_PLACEMENT_3D('',#1366,#1126,#1127);
#954=AXIS2_PLACEMENT_3D('',#1369,#1130,#1131);
#955=AXIS2_PLACEMENT_3D('',#1378,#1136,#1137);
#956=AXIS2_PLACEMENT_3D('',#1384,#1141,#1142);
#957=AXIS2_PLACEMENT_3D('',#1390,#1146,#1147);
#958=AXIS2_PLACEMENT_3D('',#1393,#1150,#1151);
#959=AXIS2_PLACEMENT_3D('',#1402,#1156,#1157);
#960=AXIS2_PLACEMENT_3D('',#1408,#1161,#1162);
#961=AXIS2_PLACEMENT_3D('',#1414,#1166,#1167);
#962=AXIS2_PLACEMENT_3D('',#1417,#1170,#1171);
#963=AXIS2_PLACEMENT_3D('',#1418,#1172,#1173);
#964=DIRECTION('axis',(0.,0.,1.));
#965=DIRECTION('refdir',(1.,0.,0.));
#966=DIRECTION('center_axis',(1.,0.,0.));
#967=DIRECTION('ref_axis',(0.,-1.,0.));
#968=DIRECTION('',(0.,-1.,0.));
#969=DIRECTION('',(0.,0.,-1.));
#970=DIRECTION('',(0.,1.,0.));
#971=DIRECTION('',(0.,0.,-1.));
#972=DIRECTION('center_axis',(0.,1.,0.));
#973=DIRECTION('ref_axis',(1.,0.,0.));
#974=DIRECTION('',(1.,0.,0.));
#975=DIRECTION('',(0.,0.,-1.));
#976=DIRECTION('',(-1.,0.,0.));
#977=DIRECTION('center_axis',(-1.,0.,0.));
#978=DIRECTION('ref_axis',(0.,1.,0.));
#979=DIRECTION('',(0.,1.,0.));
#980=DIRECTION('',(0.,0.,-1.));
#981=DIRECTION('',(0.,-1.,0.));
#982=DIRECTION('center_axis',(0.,-1.,0.));
#983=DIRECTION('ref_axis',(-1.,0.,0.));
#984=DIRECTION('',(-1.,0.,0.));
#985=DIRECTION('',(1.,0.,0.));
#986=DIRECTION('center_axis',(1.,0.,0.));
#987=DIRECTION('ref_axis',(0.,-1.,0.));
#988=DIRECTION('',(0.,-1.,0.));
#989=DIRECTION('',(0.,0.,-1.));
#990=DIRECTION('',(0.,1.,0.));
#991=DIRECTION('',(0.,0.,-1.));
#992=DIRECTION('center_axis',(0.,1.,0.));
#993=DIRECTION('ref_axis',(1.,0.,0.));
#994=DIRECTION('',(1.,0.,0.));
#995=DIRECTION('',(0.,0.,-1.));
#996=DIRECTION('',(-1.,0.,0.));
#997=DIRECTION('center_axis',(-1.,0.,0.));
#998=DIRECTION('ref_axis',(0.,1.,0.));
#999=DIRECTION('',(0.,1.,0.));
#1000=DIRECTION('',(0.,0.,-1.));
#1001=DIRECTION('',(0.,-1.,0.));
#1002=DIRECTION('center_axis',(0.,-1.,0.));
#1003=DIRECTION('ref_axis',(-1.,0.,0.));
#1004=DIRECTION('',(-1.,0.,0.));
#1005=DIRECTION('',(1.,0.,0.));
#1006=DIRECTION('center_axis',(1.,8.83564084787162E-16,0.));
#1007=DIRECTION('ref_axis',(8.83564084787162E-16,-1.,0.));
#1008=DIRECTION('',(8.83564084787162E-16,-1.,0.));
#1009=DIRECTION('',(0.,0.,-1.));
#1010=DIRECTION('',(-8.83564084787162E-16,1.,0.));
#1011=DIRECTION('',(0.,0.,-1.));
#1012=DIRECTION('center_axis',(0.,1.,0.));
#1013=DIRECTION('ref_axis',(1.,0.,0.));
#1014=DIRECTION('',(1.,0.,0.));
#1015=DIRECTION('',(0.,0.,-1.));
#1016=DIRECTION('',(-1.,0.,0.));
#1017=DIRECTION('center_axis',(-1.,0.,0.));
#1018=DIRECTION('ref_axis',(0.,1.,0.));
#1019=DIRECTION('',(0.,1.,0.));
#1020=DIRECTION('',(0.,0.,-1.));
#1021=DIRECTION('',(0.,-1.,0.));
#1022=DIRECTION('center_axis',(0.,-1.,0.));
#1023=DIRECTION('ref_axis',(-1.,0.,0.));
#1024=DIRECTION('',(-1.,0.,0.));
#1025=DIRECTION('',(1.,0.,0.));
#1026=DIRECTION('center_axis',(1.,0.,0.));
#1027=DIRECTION('ref_axis',(0.,-1.,0.));
#1028=DIRECTION('',(0.,-1.,0.));
#1029=DIRECTION('',(0.,0.,-1.));
#1030=DIRECTION('',(0.,1.,0.));
#1031=DIRECTION('',(0.,0.,-1.));
#1032=DIRECTION('center_axis',(0.,1.,0.));
#1033=DIRECTION('ref_axis',(1.,0.,0.));
#1034=DIRECTION('',(1.,0.,0.));
#1035=DIRECTION('',(0.,0.,-1.));
#1036=DIRECTION('',(-1.,0.,0.));
#1037=DIRECTION('center_axis',(-1.,0.,0.));
#1038=DIRECTION('ref_axis',(0.,1.,0.));
#1039=DIRECTION('',(0.,1.,0.));
#1040=DIRECTION('',(0.,0.,-1.));
#1041=DIRECTION('',(0.,-1.,0.));
#1042=DIRECTION('center_axis',(0.,-1.,0.));
#1043=DIRECTION('ref_axis',(-1.,0.,0.));
#1044=DIRECTION('',(-1.,0.,0.));
#1045=DIRECTION('',(1.,0.,0.));
#1046=DIRECTION('center_axis',(0.,1.,0.));
#1047=DIRECTION('ref_axis',(-1.,0.,0.));
#1048=DIRECTION('',(-1.,0.,0.));
#1049=DIRECTION('',(0.,0.,1.));
#1050=DIRECTION('',(-1.,0.,0.));
#1051=DIRECTION('',(0.,0.,1.));
#1052=DIRECTION('center_axis',(1.,0.,0.));
#1053=DIRECTION('ref_axis',(0.,1.,0.));
#1054=DIRECTION('',(0.,1.,0.));
#1055=DIRECTION('',(0.,1.,0.));
#1056=DIRECTION('',(0.,0.,1.));
#1057=DIRECTION('center_axis',(0.,-1.,0.));
#1058=DIRECTION('ref_axis',(1.,0.,0.));
#1059=DIRECTION('',(1.,0.,0.));
#1060=DIRECTION('',(1.,0.,0.));
#1061=DIRECTION('',(0.,0.,1.));
#1062=DIRECTION('center_axis',(-1.,0.,0.));
#1063=DIRECTION('ref_axis',(0.,-1.,0.));
#1064=DIRECTION('',(0.,-1.,0.));
#1065=DIRECTION('',(0.,-1.,0.));
#1066=DIRECTION('center_axis',(0.,0.,1.));
#1067=DIRECTION('ref_axis',(1.,0.,0.));
#1068=DIRECTION('center_axis',(0.,0.,1.));
#1069=DIRECTION('ref_axis',(1.,0.,0.));
#1070=DIRECTION('center_axis',(-1.,0.,0.));
#1071=DIRECTION('ref_axis',(0.,-1.,0.));
#1072=DIRECTION('',(0.,-1.,0.));
#1073=DIRECTION('',(0.,0.,1.));
#1074=DIRECTION('',(0.,-1.,0.));
#1075=DIRECTION('',(0.,0.,1.));
#1076=DIRECTION('center_axis',(0.,-1.,0.));
#1077=DIRECTION('ref_axis',(1.,0.,0.));
#1078=DIRECTION('',(1.,0.,0.));
#1079=DIRECTION('',(1.,0.,0.));
#1080=DIRECTION('',(0.,0.,1.));
#1081=DIRECTION('center_axis',(1.,0.,0.));
#1082=DIRECTION('ref_axis',(0.,1.,0.));
#1083=DIRECTION('',(0.,1.,0.));
#1084=DIRECTION('',(0.,1.,0.));
#1085=DIRECTION('',(0.,0.,1.));
#1086=DIRECTION('center_axis',(0.,1.,0.));
#1087=DIRECTION('ref_axis',(-1.,0.,0.));
#1088=DIRECTION('',(-1.,0.,0.));
#1089=DIRECTION('',(-1.,0.,0.));
#1090=DIRECTION('center_axis',(-1.,0.,0.));
#1091=DIRECTION('ref_axis',(0.,-1.,0.));
#1092=DIRECTION('',(0.,-1.,0.));
#1093=DIRECTION('',(0.,0.,1.));
#1094=DIRECTION('',(0.,-1.,0.));
#1095=DIRECTION('',(0.,0.,1.));
#1096=DIRECTION('center_axis',(0.,-1.,0.));
#1097=DIRECTION('ref_axis',(1.,0.,0.));
#1098=DIRECTION('',(1.,0.,0.));
#1099=DIRECTION('',(1.,0.,0.));
#1100=DIRECTION('',(0.,0.,1.));
#1101=DIRECTION('center_axis',(1.,0.,0.));
#1102=DIRECTION('ref_axis',(0.,1.,0.));
#1103=DIRECTION('',(0.,1.,0.));
#1104=DIRECTION('',(0.,1.,0.));
#1105=DIRECTION('',(0.,0.,1.));
#1106=DIRECTION('center_axis',(0.,1.,0.));
#1107=DIRECTION('ref_axis',(-1.,0.,0.));
#1108=DIRECTION('',(-1.,0.,0.));
#1109=DIRECTION('',(-1.,0.,0.));
#1110=DIRECTION('center_axis',(-1.,0.,0.));
#1111=DIRECTION('ref_axis',(0.,-1.,0.));
#1112=DIRECTION('',(0.,-1.,0.));
#1113=DIRECTION('',(0.,0.,1.));
#1114=DIRECTION('',(0.,-1.,0.));
#1115=DIRECTION('',(0.,0.,1.));
#1116=DIRECTION('center_axis',(0.,-1.,0.));
#1117=DIRECTION('ref_axis',(1.,0.,0.));
#1118=DIRECTION('',(1.,0.,0.));
#1119=DIRECTION('',(1.,0.,0.));
#1120=DIRECTION('',(0.,0.,1.));
#1121=DIRECTION('center_axis',(1.,0.,0.));
#1122=DIRECTION('ref_axis',(0.,1.,0.));
#1123=DIRECTION('',(0.,1.,0.));
#1124=DIRECTION('',(0.,1.,0.));
#1125=DIRECTION('',(0.,0.,1.));
#1126=DIRECTION('center_axis',(0.,1.,0.));
#1127=DIRECTION('ref_axis',(-1.,0.,0.));
#1128=DIRECTION('',(-1.,0.,0.));
#1129=DIRECTION('',(-1.,0.,0.));
#1130=DIRECTION('center_axis',(-1.,-8.83564084787162E-16,0.));
#1131=DIRECTION('ref_axis',(8.83564084787162E-16,-1.,0.));
#1132=DIRECTION('',(8.83564084787162E-16,-1.,0.));
#1133=DIRECTION('',(0.,0.,1.));
#1134=DIRECTION('',(8.83564084787162E-16,-1.,0.));
#1135=DIRECTION('',(0.,0.,1.));
#1136=DIRECTION('center_axis',(0.,-1.,0.));
#1137=DIRECTION('ref_axis',(1.,0.,0.));
#1138=DIRECTION('',(1.,0.,0.));
#1139=DIRECTION('',(1.,0.,0.));
#1140=DIRECTION('',(0.,0.,1.));
#1141=DIRECTION('center_axis',(1.,0.,0.));
#1142=DIRECTION('ref_axis',(0.,1.,0.));
#1143=DIRECTION('',(0.,1.,0.));
#1144=DIRECTION('',(0.,1.,0.));
#1145=DIRECTION('',(0.,0.,1.));
#1146=DIRECTION('center_axis',(0.,1.,0.));
#1147=DIRECTION('ref_axis',(-1.,0.,0.));
#1148=DIRECTION('',(-1.,0.,0.));
#1149=DIRECTION('',(-1.,0.,0.));
#1150=DIRECTION('center_axis',(-1.,0.,0.));
#1151=DIRECTION('ref_axis',(0.,-1.,0.));
#1152=DIRECTION('',(0.,1.,0.));
#1153=DIRECTION('',(0.,0.,1.));
#1154=DIRECTION('',(0.,-1.,0.));
#1155=DIRECTION('',(0.,0.,1.));
#1156=DIRECTION('center_axis',(0.,1.,0.));
#1157=DIRECTION('ref_axis',(-1.,0.,0.));
#1158=DIRECTION('',(1.,0.,0.));
#1159=DIRECTION('',(-1.,0.,0.));
#1160=DIRECTION('',(0.,0.,1.));
#1161=DIRECTION('center_axis',(1.,0.,0.));
#1162=DIRECTION('ref_axis',(0.,1.,0.));
#1163=DIRECTION('',(0.,-1.,0.));
#1164=DIRECTION('',(0.,1.,0.));
#1165=DIRECTION('',(0.,0.,1.));
#1166=DIRECTION('center_axis',(0.,-1.,0.));
#1167=DIRECTION('ref_axis',(1.,0.,0.));
#1168=DIRECTION('',(-1.,0.,0.));
#1169=DIRECTION('',(1.,0.,0.));
#1170=DIRECTION('center_axis',(0.,0.,1.));
#1171=DIRECTION('ref_axis',(1.,0.,0.));
#1172=DIRECTION('center_axis',(0.,0.,1.));
#1173=DIRECTION('ref_axis',(-1.,0.,0.));
#1174=CARTESIAN_POINT('',(0.,0.,0.));
#1175=CARTESIAN_POINT('Origin',(67.,95.,2.5));
#1176=CARTESIAN_POINT('',(67.,95.,2.5));
#1177=CARTESIAN_POINT('',(67.,74.9523987626917,2.5));
#1178=CARTESIAN_POINT('',(67.,82.5,2.5));
#1179=CARTESIAN_POINT('',(67.,95.,0.));
#1180=CARTESIAN_POINT('',(67.,95.,2.5));
#1181=CARTESIAN_POINT('',(67.,74.9523987626917,0.));
#1182=CARTESIAN_POINT('',(67.,82.5,0.));
#1183=CARTESIAN_POINT('',(67.,74.9523987626917,2.5));
#1184=CARTESIAN_POINT('Origin',(37.,95.,2.5));
#1185=CARTESIAN_POINT('',(37.,95.,2.5));
#1186=CARTESIAN_POINT('',(53.5,95.,2.5));
#1187=CARTESIAN_POINT('',(37.,95.,0.));
#1188=CARTESIAN_POINT('',(37.,95.,2.5));
#1189=CARTESIAN_POINT('',(53.5,95.,0.));
#1190=CARTESIAN_POINT('Origin',(37.,74.9523987626917,2.5));
#1191=CARTESIAN_POINT('',(37.,74.9523987626917,2.5));
#1192=CARTESIAN_POINT('',(37.,72.4761993813458,2.5));
#1193=CARTESIAN_POINT('',(37.,74.9523987626917,0.));
#1194=CARTESIAN_POINT('',(37.,74.9523987626917,2.5));
#1195=CARTESIAN_POINT('',(37.,72.4761993813458,0.));
#1196=CARTESIAN_POINT('Origin',(67.,74.9523987626917,2.5));
#1197=CARTESIAN_POINT('',(68.5,74.9523987626917,2.5));
#1198=CARTESIAN_POINT('',(68.5,74.9523987626917,0.));
#1199=CARTESIAN_POINT('Origin',(104.,95.,2.5));
#1200=CARTESIAN_POINT('',(104.,95.,2.5));
#1201=CARTESIAN_POINT('',(104.,75.,2.5));
#1202=CARTESIAN_POINT('',(104.,82.5,2.5));
#1203=CARTESIAN_POINT('',(104.,95.,0.));
#1204=CARTESIAN_POINT('',(104.,95.,2.5));
#1205=CARTESIAN_POINT('',(104.,75.,0.));
#1206=CARTESIAN_POINT('',(104.,82.5,0.));
#1207=CARTESIAN_POINT('',(104.,75.,2.5));
#1208=CARTESIAN_POINT('Origin',(74.,95.,2.5));
#1209=CARTESIAN_POINT('',(74.,95.,2.5));
#1210=CARTESIAN_POINT('',(72.,95.,2.5));
#1211=CARTESIAN_POINT('',(74.,95.,0.));
#1212=CARTESIAN_POINT('',(74.,95.,2.5));
#1213=CARTESIAN_POINT('',(72.,95.,0.));
#1214=CARTESIAN_POINT('Origin',(74.,75.,2.5));
#1215=CARTESIAN_POINT('',(74.,75.,2.5));
#1216=CARTESIAN_POINT('',(74.,72.5,2.5));
#1217=CARTESIAN_POINT('',(74.,75.,0.));
#1218=CARTESIAN_POINT('',(74.,75.,2.5));
#1219=CARTESIAN_POINT('',(74.,72.5,0.));
#1220=CARTESIAN_POINT('Origin',(104.,75.,2.5));
#1221=CARTESIAN_POINT('',(87.,75.,2.5));
#1222=CARTESIAN_POINT('',(87.,75.,0.));
#1223=CARTESIAN_POINT('Origin',(67.,70.,2.5));
#1224=CARTESIAN_POINT('',(67.,70.,2.5));
#1225=CARTESIAN_POINT('',(67.,49.8955517773433,2.5));
#1226=CARTESIAN_POINT('',(67.,70.,2.5));
#1227=CARTESIAN_POINT('',(67.,70.,0.));
#1228=CARTESIAN_POINT('',(67.,70.,2.5));
#1229=CARTESIAN_POINT('',(67.,49.8955517773433,0.));
#1230=CARTESIAN_POINT('',(67.,70.,0.));
#1231=CARTESIAN_POINT('',(67.,49.8955517773433,2.5));
#1232=CARTESIAN_POINT('Origin',(37.,70.,2.5));
#1233=CARTESIAN_POINT('',(37.,70.,2.5));
#1234=CARTESIAN_POINT('',(53.5,70.,2.5));
#1235=CARTESIAN_POINT('',(37.,70.,0.));
#1236=CARTESIAN_POINT('',(37.,70.,2.5));
#1237=CARTESIAN_POINT('',(53.5,70.,0.));
#1238=CARTESIAN_POINT('Origin',(37.,49.8955517773433,2.5));
#1239=CARTESIAN_POINT('',(37.,49.8955517773433,2.5));
#1240=CARTESIAN_POINT('',(37.,59.9477758886717,2.5));
#1241=CARTESIAN_POINT('',(37.,49.8955517773433,0.));
#1242=CARTESIAN_POINT('',(37.,49.8955517773433,2.5));
#1243=CARTESIAN_POINT('',(37.,59.9477758886717,0.));
#1244=CARTESIAN_POINT('Origin',(67.,49.8955517773433,2.5));
#1245=CARTESIAN_POINT('',(68.5,49.8955517773433,2.5));
#1246=CARTESIAN_POINT('',(68.5,49.8955517773433,0.));
#1247=CARTESIAN_POINT('Origin',(104.,70.,2.5));
#1248=CARTESIAN_POINT('',(104.,70.,2.5));
#1249=CARTESIAN_POINT('',(104.,49.8955517773433,2.5));
#1250=CARTESIAN_POINT('',(104.,70.,2.5));
#1251=CARTESIAN_POINT('',(104.,70.,0.));
#1252=CARTESIAN_POINT('',(104.,70.,2.5));
#1253=CARTESIAN_POINT('',(104.,49.8955517773433,0.));
#1254=CARTESIAN_POINT('',(104.,70.,0.));
#1255=CARTESIAN_POINT('',(104.,49.8955517773433,2.5));
#1256=CARTESIAN_POINT('Origin',(74.,70.,2.5));
#1257=CARTESIAN_POINT('',(74.,70.,2.5));
#1258=CARTESIAN_POINT('',(72.,70.,2.5));
#1259=CARTESIAN_POINT('',(74.,70.,0.));
#1260=CARTESIAN_POINT('',(74.,70.,2.5));
#1261=CARTESIAN_POINT('',(72.,70.,0.));
#1262=CARTESIAN_POINT('Origin',(74.,49.8955517773433,2.5));
#1263=CARTESIAN_POINT('',(74.,49.8955517773433,2.5));
#1264=CARTESIAN_POINT('',(74.,59.9477758886717,2.5));
#1265=CARTESIAN_POINT('',(74.,49.8955517773433,0.));
#1266=CARTESIAN_POINT('',(74.,49.8955517773433,2.5));
#1267=CARTESIAN_POINT('',(74.,59.9477758886717,0.));
#1268=CARTESIAN_POINT('Origin',(104.,49.8955517773433,2.5));
#1269=CARTESIAN_POINT('',(87.,49.8955517773433,2.5));
#1270=CARTESIAN_POINT('',(87.,49.8955517773433,0.));
#1271=CARTESIAN_POINT('Origin',(140.,140.,0.));
#1272=CARTESIAN_POINT('',(140.,140.,0.));
#1273=CARTESIAN_POINT('',(0.,140.,0.));
#1274=CARTESIAN_POINT('',(140.,140.,0.));
#1275=CARTESIAN_POINT('',(0.,140.,2.5));
#1276=CARTESIAN_POINT('',(0.,140.,0.));
#1277=CARTESIAN_POINT('',(140.,140.,2.5));
#1278=CARTESIAN_POINT('',(140.,140.,2.5));
#1279=CARTESIAN_POINT('',(140.,140.,0.));
#1280=CARTESIAN_POINT('Origin',(140.,0.,0.));
#1281=CARTESIAN_POINT('',(140.,0.,0.));
#1282=CARTESIAN_POINT('',(140.,0.,0.));
#1283=CARTESIAN_POINT('',(140.,0.,2.5));
#1284=CARTESIAN_POINT('',(140.,0.,2.5));
#1285=CARTESIAN_POINT('',(140.,0.,0.));
#1286=CARTESIAN_POINT('Origin',(0.,0.,0.));
#1287=CARTESIAN_POINT('',(0.,0.,0.));
#1288=CARTESIAN_POINT('',(0.,0.,0.));
#1289=CARTESIAN_POINT('',(0.,0.,2.5));
#1290=CARTESIAN_POINT('',(0.,0.,2.5));
#1291=CARTESIAN_POINT('',(0.,0.,0.));
#1292=CARTESIAN_POINT('Origin',(0.,140.,0.));
#1293=CARTESIAN_POINT('',(0.,140.,0.));
#1294=CARTESIAN_POINT('',(0.,140.,2.5));
#1295=CARTESIAN_POINT('Origin',(70.,70.,2.5));
#1296=CARTESIAN_POINT('Origin',(70.,70.,0.));
#1297=CARTESIAN_POINT('Origin',(104.,95.,2.5));
#1298=CARTESIAN_POINT('',(104.,95.,2.5));
#1299=CARTESIAN_POINT('',(104.,75.,2.5));
#1300=CARTESIAN_POINT('',(104.,95.,2.5));
#1301=CARTESIAN_POINT('',(104.,75.,3.7));
#1302=CARTESIAN_POINT('',(104.,75.,2.5));
#1303=CARTESIAN_POINT('',(104.,95.,3.7));
#1304=CARTESIAN_POINT('',(104.,95.,3.7));
#1305=CARTESIAN_POINT('',(104.,95.,2.5));
#1306=CARTESIAN_POINT('Origin',(74.,95.,2.5));
#1307=CARTESIAN_POINT('',(74.,95.,2.5));
#1308=CARTESIAN_POINT('',(74.,95.,2.5));
#1309=CARTESIAN_POINT('',(74.,95.,3.7));
#1310=CARTESIAN_POINT('',(74.,95.,3.7));
#1311=CARTESIAN_POINT('',(74.,95.,2.5));
#1312=CARTESIAN_POINT('Origin',(74.,75.,2.5));
#1313=CARTESIAN_POINT('',(74.,75.,2.5));
#1314=CARTESIAN_POINT('',(74.,75.,2.5));
#1315=CARTESIAN_POINT('',(74.,75.,3.7));
#1316=CARTESIAN_POINT('',(74.,75.,3.7));
#1317=CARTESIAN_POINT('',(74.,75.,2.5));
#1318=CARTESIAN_POINT('Origin',(104.,75.,2.5));
#1319=CARTESIAN_POINT('',(104.,75.,2.5));
#1320=CARTESIAN_POINT('',(104.,75.,3.7));
#1321=CARTESIAN_POINT('Origin',(104.,70.,2.5));
#1322=CARTESIAN_POINT('',(104.,70.,2.5));
#1323=CARTESIAN_POINT('',(104.,49.8955517773433,2.5));
#1324=CARTESIAN_POINT('',(104.,70.,2.5));
#1325=CARTESIAN_POINT('',(104.,49.8955517773433,3.7));
#1326=CARTESIAN_POINT('',(104.,49.8955517773433,2.5));
#1327=CARTESIAN_POINT('',(104.,70.,3.7));
#1328=CARTESIAN_POINT('',(104.,70.,3.7));
#1329=CARTESIAN_POINT('',(104.,70.,2.5));
#1330=CARTESIAN_POINT('Origin',(74.,70.,2.5));
#1331=CARTESIAN_POINT('',(74.,70.,2.5));
#1332=CARTESIAN_POINT('',(74.,70.,2.5));
#1333=CARTESIAN_POINT('',(74.,70.,3.7));
#1334=CARTESIAN_POINT('',(74.,70.,3.7));
#1335=CARTESIAN_POINT('',(74.,70.,2.5));
#1336=CARTESIAN_POINT('Origin',(74.,49.8955517773433,2.5));
#1337=CARTESIAN_POINT('',(74.,49.8955517773433,2.5));
#1338=CARTESIAN_POINT('',(74.,49.8955517773433,2.5));
#1339=CARTESIAN_POINT('',(74.,49.8955517773433,3.7));
#1340=CARTESIAN_POINT('',(74.,49.8955517773433,3.7));
#1341=CARTESIAN_POINT('',(74.,49.8955517773433,2.5));
#1342=CARTESIAN_POINT('Origin',(104.,49.8955517773433,2.5));
#1343=CARTESIAN_POINT('',(104.,49.8955517773433,2.5));
#1344=CARTESIAN_POINT('',(104.,49.8955517773433,3.7));
#1345=CARTESIAN_POINT('Origin',(67.,95.,2.5));
#1346=CARTESIAN_POINT('',(67.,95.,2.5));
#1347=CARTESIAN_POINT('',(67.,74.9523987626917,2.5));
#1348=CARTESIAN_POINT('',(67.,95.,2.5));
#1349=CARTESIAN_POINT('',(67.,74.9523987626917,3.7));
#1350=CARTESIAN_POINT('',(67.,74.9523987626917,2.5));
#1351=CARTESIAN_POINT('',(67.,95.,3.7));
#1352=CARTESIAN_POINT('',(67.,95.,3.7));
#1353=CARTESIAN_POINT('',(67.,95.,2.5));
#1354=CARTESIAN_POINT('Origin',(37.,95.,2.5));
#1355=CARTESIAN_POINT('',(37.,95.,2.5));
#1356=CARTESIAN_POINT('',(37.,95.,2.5));
#1357=CARTESIAN_POINT('',(37.,95.,3.7));
#1358=CARTESIAN_POINT('',(37.,95.,3.7));
#1359=CARTESIAN_POINT('',(37.,95.,2.5));
#1360=CARTESIAN_POINT('Origin',(37.,74.9523987626917,2.5));
#1361=CARTESIAN_POINT('',(37.,74.9523987626917,2.5));
#1362=CARTESIAN_POINT('',(37.,74.9523987626917,2.5));
#1363=CARTESIAN_POINT('',(37.,74.9523987626917,3.7));
#1364=CARTESIAN_POINT('',(37.,74.9523987626917,3.7));
#1365=CARTESIAN_POINT('',(37.,74.9523987626917,2.5));
#1366=CARTESIAN_POINT('Origin',(67.,74.9523987626917,2.5));
#1367=CARTESIAN_POINT('',(67.,74.9523987626917,2.5));
#1368=CARTESIAN_POINT('',(67.,74.9523987626917,3.7));
#1369=CARTESIAN_POINT('Origin',(67.,70.,2.5));
#1370=CARTESIAN_POINT('',(67.,70.,2.5));
#1371=CARTESIAN_POINT('',(67.,49.8955517773433,2.5));
#1372=CARTESIAN_POINT('',(67.,70.,2.5));
#1373=CARTESIAN_POINT('',(67.,49.8955517773433,3.7));
#1374=CARTESIAN_POINT('',(67.,49.8955517773433,2.5));
#1375=CARTESIAN_POINT('',(67.,70.,3.7));
#1376=CARTESIAN_POINT('',(67.,70.,3.7));
#1377=CARTESIAN_POINT('',(67.,70.,2.5));
#1378=CARTESIAN_POINT('Origin',(37.,70.,2.5));
#1379=CARTESIAN_POINT('',(37.,70.,2.5));
#1380=CARTESIAN_POINT('',(37.,70.,2.5));
#1381=CARTESIAN_POINT('',(37.,70.,3.7));
#1382=CARTESIAN_POINT('',(37.,70.,3.7));
#1383=CARTESIAN_POINT('',(37.,70.,2.5));
#1384=CARTESIAN_POINT('Origin',(37.,49.8955517773433,2.5));
#1385=CARTESIAN_POINT('',(37.,49.8955517773433,2.5));
#1386=CARTESIAN_POINT('',(37.,49.8955517773433,2.5));
#1387=CARTESIAN_POINT('',(37.,49.8955517773433,3.7));
#1388=CARTESIAN_POINT('',(37.,49.8955517773433,3.7));
#1389=CARTESIAN_POINT('',(37.,49.8955517773433,2.5));
#1390=CARTESIAN_POINT('Origin',(67.,49.8955517773433,2.5));
#1391=CARTESIAN_POINT('',(67.,49.8955517773433,2.5));
#1392=CARTESIAN_POINT('',(67.,49.8955517773433,3.7));
#1393=CARTESIAN_POINT('Origin',(30.,100.,2.5));
#1394=CARTESIAN_POINT('',(30.,45.,2.5));
#1395=CARTESIAN_POINT('',(30.,100.,2.5));
#1396=CARTESIAN_POINT('',(30.,45.,2.5));
#1397=CARTESIAN_POINT('',(30.,45.,3.7));
#1398=CARTESIAN_POINT('',(30.,45.,2.5));
#1399=CARTESIAN_POINT('',(30.,100.,3.7));
#1400=CARTESIAN_POINT('',(30.,45.,3.7));
#1401=CARTESIAN_POINT('',(30.,100.,2.5));
#1402=CARTESIAN_POINT('Origin',(110.,100.,2.5));
#1403=CARTESIAN_POINT('',(110.,100.,2.5));
#1404=CARTESIAN_POINT('',(30.,100.,2.5));
#1405=CARTESIAN_POINT('',(110.,100.,3.7));
#1406=CARTESIAN_POINT('',(30.,100.,3.7));
#1407=CARTESIAN_POINT('',(110.,100.,2.5));
#1408=CARTESIAN_POINT('Origin',(110.,45.,2.5));
#1409=CARTESIAN_POINT('',(110.,45.,2.5));
#1410=CARTESIAN_POINT('',(110.,100.,2.5));
#1411=CARTESIAN_POINT('',(110.,45.,3.7));
#1412=CARTESIAN_POINT('',(110.,100.,3.7));
#1413=CARTESIAN_POINT('',(110.,45.,2.5));
#1414=CARTESIAN_POINT('Origin',(30.,45.,2.5));
#1415=CARTESIAN_POINT('',(110.,45.,2.5));
#1416=CARTESIAN_POINT('',(110.,45.,3.7));
#1417=CARTESIAN_POINT('Origin',(70.,72.5,3.7));
#1418=CARTESIAN_POINT('Origin',(70.,72.5,2.5));
#1419=UNCERTAINTY_MEASURE_WITH_UNIT(LENGTH_MEASURE(0.01),#1423,
'DISTANCE_ACCURACY_VALUE',
'Maximum model space distance between geometric entities at asserted c
onnectivities');
#1420=UNCERTAINTY_MEASURE_WITH_UNIT(LENGTH_MEASURE(0.01),#1423,
'DISTANCE_ACCURACY_VALUE',
'Maximum model space distance between geometric entities at asserted c
onnectivities');
#1421=(
GEOMETRIC_REPRESENTATION_CONTEXT(3)
GLOBAL_UNCERTAINTY_ASSIGNED_CONTEXT((#1419))
GLOBAL_UNIT_ASSIGNED_CONTEXT((#1423,#1425,#1426))
REPRESENTATION_CONTEXT('','3D')
);
#1422=(
GEOMETRIC_REPRESENTATION_CONTEXT(3)
GLOBAL_UNCERTAINTY_ASSIGNED_CONTEXT((#1420))
GLOBAL_UNIT_ASSIGNED_CONTEXT((#1423,#1425,#1426))
REPRESENTATION_CONTEXT('','3D')
);
#1423=(
LENGTH_UNIT()
NAMED_UNIT(*)
SI_UNIT(.MILLI.,.METRE.)
);
#1424=(
LENGTH_UNIT()
NAMED_UNIT(*)
SI_UNIT($,.METRE.)
);
#1425=(
NAMED_UNIT(*)
PLANE_ANGLE_UNIT()
SI_UNIT($,.RADIAN.)
);
#1426=(
NAMED_UNIT(*)
SI_UNIT($,.STERADIAN.)
SOLID_ANGLE_UNIT()
);
#1427=SHAPE_DEFINITION_REPRESENTATION(#1428,#1429);
#1428=PRODUCT_DEFINITION_SHAPE('',$,#1431);
#1429=SHAPE_REPRESENTATION('',(#919),#1421);
#1430=PRODUCT_DEFINITION_CONTEXT('part definition',#1435,'design');
#1431=PRODUCT_DEFINITION('2026-09-09-05-48-23-925','Window wall',#1432,
#1430);
#1432=PRODUCT_DEFINITION_FORMATION('',$,#1437);
#1433=PRODUCT_RELATED_PRODUCT_CATEGORY('Window wall','Window wall',(#1437));
#1434=APPLICATION_PROTOCOL_DEFINITION('international standard',
'automotive_design',2009,#1435);
#1435=APPLICATION_CONTEXT(
'Core Data for Automotive Mechanical Design Process');
#1436=PRODUCT_CONTEXT('part definition',#1435,'mechanical');
#1437=PRODUCT('2026-09-09-05-48-23-925','Window wall',$,(#1436));
#1438=PRESENTATION_STYLE_ASSIGNMENT((#1439));
#1439=SURFACE_STYLE_USAGE(.BOTH.,#1440);
#1440=SURFACE_SIDE_STYLE('',(#1441));
#1441=SURFACE_STYLE_FILL_AREA(#1442);
#1442=FILL_AREA_STYLE('Steel - Satin',(#1443));
#1443=FILL_AREA_STYLE_COLOUR('Steel - Satin',#1444);
#1444=COLOUR_RGB('Steel - Satin',0.627450980392157,0.627450980392157,0.627450980392157);
ENDSEC;
END-ISO-10303-21;
